<svg id="svg31911" height="512" viewBox="0 0 16.933333 16.933334" width="512" xmlns="http://www.w3.org/2000/svg" xmlns:svg="http://www.w3.org/2000/svg"><g id="layer1" transform="translate(0 -280.067)"><path id="path15800" d="m11.906248 289.85622h-11.11249951v1.5875c0 .29316.23600831.52917.52916671.52917h10.0541668c.293158 0 .529166-.23601.529166-.52917z" fill="#33b9ef"/><path id="rect12423-2" d="m1.3229152 283.50622c-.2931584 0-.52916671.23601-.52916671.52917v5.82083h11.11249951v-5.82083c0-.29316-.236008-.52917-.529166-.52917z" fill="#dbe9ee"/><path id="path16976-2" d="m4.4979037 293.56039c.9579798-.76638.79375-1.5875.79375-1.5875h2.1166701s-.16425.82112.79375 1.5875z" fill="#2fa9da"/><path id="path15806" d="m14.022915 291.44372h-5.8208332v1.5875c0 .29316.236006.52917.529167.52917h4.7624992c.293151 0 .529167-.23601.529167-.52917z" fill="#ff6b6b"/><path id="path15804" d="m14.022915 286.15206h-5.8208332v5.29166h5.8208332z" fill="#dbe9ee"/><path id="path17068" d="m8.7312488 285.09372c-.293161 0-.529167.23601-.529167.52917v.52917h5.8208332v-.52917c0-.29316-.236016-.52917-.529167-.52917z" fill="#ff6b6b"/><path id="path15812" d="m16.139582 292.50206h-3.175v.52916c0 .29316.235998.52917.529166.52917h2.116667c.293151 0 .529167-.23601.529167-.52917z" fill="#33658a"/><path id="path15810" d="m16.139582 289.32706h-3.175v3.175h3.175z" fill="#dbe9ee"/><path id="rect1587-6-8" d="m13.493748 288.26872c-.293168 0-.529166.23601-.529166.52917v.52917h3.175v-.52917c0-.29316-.236016-.52917-.529167-.52917z" fill="#33658a"/><path id="path12853-1" d="m1.3229136 283.24164c-.43516001 0-.79375001.35859-.79375001.79375v7.40833c0 .43516.35859.79375.79375001.79375h3.70882c-.006.0503-.0161.1077-.0336.17467-.0619.23682-.21351.55408-.5978901.88315h-.43254c-.35286 0-.35286.52917 0 .52917h3.1760403c.35286 0 .35286-.52917 0-.52917h-2.0117702c.2063398-.26712.3205199-.52833.3782798-.74931.0302-.11558.0419-.21675.0481-.30851h1.5854404c.35779.005.35779-.53421 0-.52916h-5.8208402c-.15115 0-.26458-.11343-.26458-.26459v-1.32291h6.0854202c.35779.005.35779-.53422 0-.52917h-6.0854202v-5.55625c0-.15116.11343-.26458.26458-.26458h10.0541704c.15116 0 .26458.11342.26458.26458-.005.35764.534069.35764.52917 0 0-.43516-.35859-.79375-.79375-.79375zm7.4083402 1.58647c-.43516 0-.79479.36015-.79479.7953v7.40833c0 .43515.35963.79272.79479.79272h3.1739592c.35287 0 .35287-.52917 0-.52917h-3.1739592c-.15115 0-.26562-.11238-.26562-.26355v-1.3224h3.4395792c.35286 0 .35286-.52917 0-.52917h-3.4395792v-4.76405h5.2932202v.7953c0 .35286.52916.35286.52916 0v-1.58801c0-.43516-.35962-.7953-.79478-.7953zm-6.8827902.52555c-.14695.002-.26422.12281-.26148.26975v.52916c0 .35287.52917.35287.52917 0v-.52916c.003-.14923-.11844-.27146-.26769-.26975zm6.8827902.004h4.7619802c.151149 0 .26562.11445.26562.26561v.26356h-5.2932202v-.26355c0-.15117.11447-.26562.26562-.26562zm-6.8827902 1.58388c-.14695.002-.26422.12282-.26148.26975v1.58544c0 .35286.52917.35286.52917 0v-1.58544c.003-.14923-.11844-.27145-.26769-.26975zm7.4083402 0c-.14695.002-.26423.12282-.26148.26975v.52917c0 .35286.52916.35286.52916 0v-.52917c.003-.14923-.11844-.27145-.26768-.26975zm4.2364302 1.06247c-.435161 0-.79323.35756-.79323.79271v4.23489c0 .43515.358069.79271.79323.79271h2.11718c.43516 0 .79272-.35756.79272-.79271v-4.23488c0-.43516-.35756-.79272-.79272-.79272zm-4.2364302.52555c-.14617.002-.26313.12099-.26148.26716v1.58802c0 .35286.52916.35286.52916 0v-1.58801c.002-.14847-.11921-.26885-.26768-.26717zm4.2364302.004h2.11718c.151149 0 .263549.11239.263549.26355v.26614h-2.64428v-.26613c0-.15116.11238-.26355.263551-.26355zm-.263551 1.05885h2.64428v2.64429h-2.64428zm-7.1447794 1.58802h.5296802c.35287 0 .35287-.52968 0-.52968h-.5423402c-.3655301.0169-.34021.54662.0127.52968zm4.7640504 1.05627c-.35287 0-.35287.52916 0 .52916h.529169c.35286 0 .35286-.52916 0-.52916zm2.380729.52916h2.64428v.26614c0 .15116-.1124.26355-.263549.26355h-2.11718c-.151171 0-.263551-.11239-.263551-.26355z" font-variant-ligatures="normal" font-variant-position="normal" font-variant-caps="normal" font-variant-numeric="normal" font-variant-alternates="normal" font-feature-settings="normal" text-indent="0" text-align="start" text-decoration-line="none" text-decoration-style="solid" text-decoration-color="#000000" text-transform="none" text-orientation="mixed" white-space="normal" shape-padding="0" isolation="auto" mix-blend-mode="normal" solid-color="#000000" solid-opacity="1" vector-effect="none"/></g></svg>