<svg height="512" viewBox="0 0 128 128" width="512" xmlns="http://www.w3.org/2000/svg"><g><rect fill="#edf5ff" height="93.942" rx="4.073" width="52.794" x="6.307" y="17.029"/><path d="m44.827 17.029-1.927 6.69a3.257 3.257 0 0 1 -3.13 2.356h-14.135a3.257 3.257 0 0 1 -3.13-2.356l-1.924-6.69z" fill="#979fef"/><rect fill="#edf5ff" height="93.942" rx="4.073" width="52.794" x="68.899" y="17.029"/><path d="m107.419 17.029-1.924 6.69a3.257 3.257 0 0 1 -3.13 2.356h-14.138a3.257 3.257 0 0 1 -3.13-2.356l-1.924-6.69z" fill="#979fef"/><path d="m15.489 35.256h34.431v12.743h-34.431z" fill="#76e2f8"/><path d="m78.081 35.256h34.431v35.115h-34.431z" fill="#76e2f8"/><path d="m38.345 87.1a5.641 5.641 0 1 1 -5.645-5.638 5.642 5.642 0 0 1 5.645 5.638z" fill="#ffda2d"/><path d="m68.9 101.925h52.794a0 0 0 0 1 0 0v4.975a4.07 4.07 0 0 1 -4.07 4.07h-44.655a4.07 4.07 0 0 1 -4.07-4.07v-4.976a0 0 0 0 1 .001.001z" fill="#979fef"/><path d="m6.307 101.925h52.793a0 0 0 0 1 0 0v4.975a4.07 4.07 0 0 1 -4.07 4.07h-44.653a4.07 4.07 0 0 1 -4.07-4.07v-4.976a0 0 0 0 1 0 .001z" fill="#979fef"/><g><path d="m117.62 15.278h-44.648a5.831 5.831 0 0 0 -5.823 5.822v64.253h-6.3v-9.311a1.75 1.75 0 0 0 -3.5 0v9.311h-17.472a7.39 7.39 0 1 0 0 3.5h17.474v11.322h-49.294v-79.075a2.326 2.326 0 0 1 2.323-2.324h8.884l1.559 5.424a5.028 5.028 0 0 0 4.812 3.623h14.138a5.028 5.028 0 0 0 4.812-3.623l1.56-5.424h8.883a2.326 2.326 0 0 1 2.323 2.324v45.58a1.75 1.75 0 0 0 3.5 0v-45.58a5.831 5.831 0 0 0 -5.823-5.824h-44.648a5.83 5.83 0 0 0 -5.823 5.824v85.8a5.83 5.83 0 0 0 5.823 5.824h44.648a5.831 5.831 0 0 0 5.823-5.824v-18.047h6.3v18.047a5.831 5.831 0 0 0 5.823 5.824h44.646a5.83 5.83 0 0 0 5.823-5.824v-48.178a1.75 1.75 0 1 0 -3.5 0v41.453h-49.294v-11.322h23.243l-2.654 2.653a1.75 1.75 0 1 0 2.475 2.474l5.64-5.64a1.749 1.749 0 0 0 0-2.475l-5.64-5.64a1.75 1.75 0 1 0 -2.475 2.475l2.654 2.654h-23.243v-64.254a2.326 2.326 0 0 1 2.323-2.324h8.883l1.56 5.424a5.028 5.028 0 0 0 4.812 3.623h14.138a5.029 5.029 0 0 0 4.812-3.623l1.559-5.424h8.884a2.326 2.326 0 0 1 2.323 2.324v14.228a1.75 1.75 0 1 0 3.5 0v-14.228a5.83 5.83 0 0 0 -5.823-5.822zm-84.92 75.715a3.891 3.891 0 1 1 3.9-3.893 3.9 3.9 0 0 1 -3.9 3.893zm8.518-67.758a1.515 1.515 0 0 1 -1.449 1.09h-14.134a1.515 1.515 0 0 1 -1.449-1.09l-1.281-4.457h19.595zm13.806 85.987h-44.644a2.326 2.326 0 0 1 -2.323-2.322v-3.223h49.294v3.223a2.326 2.326 0 0 1 -2.323 2.322zm64.915-5.547v3.225a2.326 2.326 0 0 1 -2.323 2.324h-44.644a2.326 2.326 0 0 1 -2.323-2.324v-3.223zm-16.13-80.44a1.513 1.513 0 0 1 -1.448 1.09h-14.134a1.515 1.515 0 0 1 -1.449-1.09l-1.278-4.457h19.6z"/><path d="m121.693 43.235a1.751 1.751 0 0 0 -1.75 1.75v4.5a1.75 1.75 0 0 0 3.5 0v-4.5a1.75 1.75 0 0 0 -1.75-1.75z"/><path d="m51.669 35.257a1.749 1.749 0 0 0 -1.75-1.75h-34.431a1.749 1.749 0 0 0 -1.75 1.75v12.743a1.749 1.749 0 0 0 1.75 1.75h34.431a1.749 1.749 0 0 0 1.75-1.75zm-3.5 10.992h-30.931v-9.242h30.931z"/><path d="m78.081 33.507a1.749 1.749 0 0 0 -1.75 1.75v35.114a1.749 1.749 0 0 0 1.75 1.75h34.431a1.75 1.75 0 0 0 1.75-1.75v-35.114a1.75 1.75 0 0 0 -1.75-1.75zm32.681 35.114h-30.931v-31.614h30.931z"/><path d="m49.919 68.621h-34.431a1.75 1.75 0 0 0 0 3.5h34.431a1.75 1.75 0 0 0 0-3.5z"/><path d="m49.919 57.435h-34.431a1.75 1.75 0 0 0 0 3.5h34.431a1.75 1.75 0 0 0 0-3.5z"/></g></g></svg>