<?xml version="1.0" encoding="iso-8859-1"?>
<!-- Generator: Adobe Illustrator 19.0.0, SVG Export Plug-In . SVG Version: 6.00 Build 0)  -->
<svg version="1.1" id="Layer_1" xmlns="http://www.w3.org/2000/svg" xmlns:xlink="http://www.w3.org/1999/xlink" x="0px" y="0px"
	 viewBox="0 0 512 512" style="enable-background:new 0 0 512 512;" xml:space="preserve">
<polygon style="fill:#AFB6BB;" points="477.691,192.66 477.691,382.68 451.299,382.68 60.701,382.68 34.309,382.68 34.309,192.66 
	60.701,192.66 451.299,192.66 "/>
<polygon style="fill:#7E8488;" points="450.982,81.814 345.732,81.814 345.732,7.918 "/>
<g>
	<rect x="60.701" y="382.68" style="fill:#AFB6BB;" width="390.598" height="121.402"/>
	<polygon style="fill:#AFB6BB;" points="451.299,82.026 451.299,192.66 60.701,192.66 60.701,7.918 345.732,7.918 345.732,81.814 
		450.982,81.814 	"/>
</g>
<g>
	<rect x="60.701" y="382.68" style="fill:#7E8488;" width="195.299" height="121.402"/>
	<rect x="60.701" y="7.918" style="fill:#7E8488;" width="195.299" height="184.742"/>
</g>
<polygon style="fill:#A0A7AB;" points="477.691,192.66 451.299,192.66 60.701,192.66 34.309,192.66 34.309,292.948 477.691,292.948 
	"/>
<g>
	<rect x="113.485" y="432.825" style="fill:#FFFFFF;" width="285.031" height="15.835"/>
	<rect x="435.464" y="216.412" style="fill:#FFFFFF;" width="21.113" height="15.835"/>
	<rect x="435.464" y="343.093" style="fill:#FFFFFF;" width="21.113" height="15.835"/>
	<rect x="55.423" y="343.093" style="fill:#FFFFFF;" width="21.113" height="15.835"/>
	<rect x="55.423" y="216.412" style="fill:#FFFFFF;" width="21.113" height="15.835"/>
	<polygon style="fill:#FFFFFF;" points="145.219,140.557 96.182,97.649 145.219,54.742 155.647,66.66 120.23,97.649 
		155.647,128.639 	"/>
	
		<rect x="182.107" y="43.308" transform="matrix(-0.9728 -0.2316 0.2316 -0.9728 351.6574 241.8483)" style="fill:#FFFFFF;" width="15.835" height="113.948"/>
	<polygon style="fill:#FFFFFF;" points="240.101,140.557 229.673,128.639 265.089,97.649 229.673,66.66 240.101,54.742 
		289.138,97.649 	"/>
</g>
<path d="M485.608,184.742h-26.392V77.791L348.234,0H52.784v184.742H26.392v205.856h26.392V512h406.433V390.598h26.392V184.742z
	 M353.65,23.151l72.277,50.746H353.65V23.151z M68.619,15.835h269.196v73.897h105.567v95.01H68.619V15.835z M443.381,496.165H68.619
	V390.598h374.763V496.165z M469.773,374.763H42.227V200.577h427.546V374.763z"/>
<polygon points="116.124,292.948 155.711,292.948 155.711,340.454 171.546,340.454 171.546,229.608 155.711,229.608 
	155.711,277.113 116.124,277.113 116.124,229.608 100.289,229.608 100.289,340.454 116.124,340.454 "/>
<polygon points="206.515,340.454 222.351,340.454 222.351,246.763 246.763,246.763 246.763,230.928 182.103,230.928 
	182.103,246.763 206.515,246.763 "/>
<path d="M273.155,252.069c6.179,10.592,14.73,26.683,21.949,41.122l7.081,14.162l7.081-14.162
	c7.22-14.438,15.771-30.53,21.949-41.122v88.385h15.835V238.845c0-6.077-4.394-12.536-12.536-12.536
	c-5.114,0-8.363,3.819-13.714,12.382c-2.96,4.735-6.709,11.287-11.145,19.476c-2.646,4.884-5.231,9.789-7.471,14.099
	c-2.24-4.309-4.825-9.216-7.471-14.098c-4.435-8.189-8.185-14.741-11.145-19.476c-5.351-8.561-8.601-12.382-13.714-12.382
	c-8.142,0-12.536,6.459-12.536,12.536v101.608h15.835V252.069z"/>
<polygon points="417.65,323.299 374.763,323.299 374.763,229.608 358.928,229.608 358.928,339.134 417.65,339.134 "/>
<g>
</g>
<g>
</g>
<g>
</g>
<g>
</g>
<g>
</g>
<g>
</g>
<g>
</g>
<g>
</g>
<g>
</g>
<g>
</g>
<g>
</g>
<g>
</g>
<g>
</g>
<g>
</g>
<g>
</g>
</svg>
