<?xml version="1.0" encoding="iso-8859-1"?>
<!-- Generator: Adobe Illustrator 19.0.0, SVG Export Plug-In . SVG Version: 6.00 Build 0)  -->
<svg version="1.1" id="Layer_1" xmlns="http://www.w3.org/2000/svg" xmlns:xlink="http://www.w3.org/1999/xlink" x="0px" y="0px"
	 viewBox="0 0 390.723 390.723" style="enable-background:new 0 0 390.723 390.723;" xml:space="preserve">
<path style="fill:#FFC10D;" d="M328.663,346.311c-0.517,12.477-10.279,22.238-22.238,22.238c-11.895,0-22.238-9.762-22.238-22.238
	c0-11.895,9.762-22.238,22.238-22.238C318.384,324.073,328.663,333.834,328.663,346.311z"/>
<path style="fill:#FFFFFF;" d="M317.543,21.657h-50.941v51.459c0,4.848-3.232,9.244-8.145,10.279l-27.022,7.628
	c-3.232,0.517-5.947,0.517-9.244-1.616l-19.523-14.093l-23.855,11.895c-7.564,3.814-15.709-1.616-15.709-9.762V21.592h-50.941
	c-5.947,0-10.861,4.848-10.861,10.861v82.941h44.994c5.947,0,10.861,4.848,10.861,10.861c0,6.012-4.848,10.861-10.861,10.861
	h-44.994v21.657h23.273c5.947,0,10.861,4.848,10.861,10.861c0,5.947-4.848,10.861-10.861,10.861h-23.273v39.564
	c0,5.947,4.848,10.861,10.861,10.861h205.382c5.947,0,10.861-4.848,10.861-10.861V32.517
	C328.404,26.57,323.556,21.657,317.543,21.657z"/>
<path style="fill:#56ACE0;" d="M306.489,43.378v166.4H123.281v-28.703h1.616c5.947,0,10.861-4.848,10.861-10.861
	c0-5.947-4.848-10.861-10.861-10.861h-1.616v-21.657h23.273c5.947,0,10.861-4.848,10.861-10.861c0-5.947-4.848-10.861-10.861-10.861
	h-23.273V43.378h40.081v34.715c0,8.145,8.145,12.994,15.709,9.762l23.855-11.96l19.523,14.093c3.232,2.198,6.529,2.198,9.244,1.616
	l27.087-7.564c4.849-1.099,8.145-5.43,8.145-10.279V43.378C266.925,43.378,306.489,43.378,306.489,43.378z"/>
<g>
	<path style="fill:#194F82;" d="M379.604,274.747H63.095c-5.947,0-10.861-4.849-10.861-10.861V30.901
		c0-5.947-4.848-10.861-10.861-10.861H11.119c-5.947,0-10.861,4.848-10.861,10.861c0,5.947,4.848,10.861,10.861,10.861h19.523
		v222.19c0,17.907,14.61,32.517,32.517,32.517h316.444c5.947,0,10.861-4.848,10.861-10.861
		C390.465,279.661,385.616,274.747,379.604,274.747z"/>
	<path style="fill:#194F82;" d="M306.489,302.933c-23.855,0-43.895,19.523-43.895,43.895c0,23.855,19.523,43.895,43.895,43.895
		c23.855,0,43.895-19.523,43.895-43.895C349.802,322.457,330.343,302.933,306.489,302.933z M306.489,368.549
		c-11.895,0-22.238-9.762-22.238-22.238c0-11.895,9.762-22.238,22.238-22.238c11.895,0,22.238,9.762,22.238,22.238
		C328.145,358.788,318.384,368.549,306.489,368.549z"/>
	<path style="fill:#194F82;" d="M317.285,0H112.42C94.513,0,79.903,14.61,79.903,32.517v188.057
		c0,17.907,14.61,32.517,32.517,32.517h204.865c17.907,0,32.517-14.61,32.517-32.517V32.517C349.802,14.61,335.192,0,317.285,0z
		 M328.145,220.574c0,5.947-4.848,10.861-10.861,10.861H112.42c-5.947,0-10.861-4.848-10.861-10.861V181.01h23.273
		c5.947,0,10.861-4.848,10.861-10.861c0-5.947-4.848-10.861-10.861-10.861H101.56v-21.657h44.994
		c5.947,0,10.861-4.848,10.861-10.861c0-6.012-4.848-10.861-10.861-10.861h-44.929V32.517c0-5.947,4.848-10.861,10.861-10.861
		h50.941v56.372c0,8.145,8.145,12.994,15.709,9.762l23.855-11.895l19.523,14.093c3.232,2.198,6.529,2.198,9.244,1.616l27.087-7.564
		c4.848-1.099,8.145-5.43,8.145-10.279v-52.04h50.424c5.947,0,10.861,4.848,10.861,10.861v187.992H328.145z M244.687,21.657v43.378
		l-14.093,4.331l-20.622-14.61c-3.232-2.198-7.046-2.715-11.378-1.099l-13.576,7.046V21.657L244.687,21.657L244.687,21.657z"/>
	<path style="fill:#194F82;" d="M124.897,159.354h-1.616v21.657h1.616c5.947,0,10.861-4.848,10.861-10.861
		C135.758,164.202,130.844,159.354,124.897,159.354z M146.554,115.976h-23.273v21.657h23.273c5.947,0,10.861-4.848,10.861-10.861
		C157.414,120.889,152.566,115.976,146.554,115.976z"/>
</g>
<g>
	<path style="fill:#FFC10D;" d="M209.972,54.756l20.622,14.61l14.093-3.814V21.657h-59.604V61.22l13.576-7.046
		C202.925,52.04,206.739,52.04,209.972,54.756z"/>
	<path style="fill:#FFC10D;" d="M146.036,346.311c-0.517,12.477-10.279,22.238-22.238,22.238c-11.96,0-22.238-9.762-22.238-22.238
		c0-11.895,9.762-22.238,22.238-22.238C135.758,324.073,146.036,333.834,146.036,346.311z"/>
</g>
<path style="fill:#194F82;" d="M123.798,302.933c-23.855,0-43.895,19.523-43.895,43.895c0,23.855,19.523,43.895,43.895,43.895
	c23.855,0,43.895-19.523,43.895-43.895C167.176,322.457,147.653,302.933,123.798,302.933z M123.798,368.549
	c-11.895,0-22.238-9.762-22.238-22.238c0-11.895,9.762-22.238,22.238-22.238c11.895,0,22.238,9.762,22.238,22.238
	C145.519,358.788,135.758,368.549,123.798,368.549z"/>
<g>
</g>
<g>
</g>
<g>
</g>
<g>
</g>
<g>
</g>
<g>
</g>
<g>
</g>
<g>
</g>
<g>
</g>
<g>
</g>
<g>
</g>
<g>
</g>
<g>
</g>
<g>
</g>
<g>
</g>
</svg>
