<?xml version="1.0" encoding="iso-8859-1"?>
<!-- Generator: Adobe Illustrator 19.0.0, SVG Export Plug-In . SVG Version: 6.00 Build 0)  -->
<svg version="1.1" id="Capa_1" xmlns="http://www.w3.org/2000/svg" xmlns:xlink="http://www.w3.org/1999/xlink" x="0px" y="0px"
	 viewBox="0 0 512 512" style="enable-background:new 0 0 512 512;" xml:space="preserve">
<path d="M28.8,44.8C12.96,44.8,0,57.76,0,73.6v25.44h512V73.6c0-15.84-12.96-28.8-28.8-28.8H28.8z"/>
<g style="opacity:0.25;enable-background:new    ;">
	<path style="fill:#FFFFFF;" d="M28.8,44.8C12.96,44.8,0,57.76,0,73.6v25.44h115.84l31.2-54.24H28.8z"/>
</g>
<rect x="8" y="107.2" style="fill:#FFFFFF;" width="496" height="352"/>
<path style="fill:#E8E8E8;" d="M496,115.2v336H16v-336L496,115.2 M512,99.2H0v368h512V99.2L512,99.2z"/>
<path style="fill:#CCCCCC;" d="M488,123.2v320H24v-320L488,123.2 M492,119.2H20v328h472V119.2L492,119.2z"/>
<circle style="fill:#999999;" cx="40.48" cy="72" r="8.16"/>
<circle style="fill:#CCCCCC;" cx="65.12" cy="72" r="8.16"/>
<circle style="fill:#E8E8E8;" cx="89.6" cy="72" r="8.16"/>
<path style="fill:#FFFFFF;" d="M428.32,86.4H170.88c-7.84,0-14.4-6.4-14.4-14.4l0,0c0-7.84,6.4-14.4,14.4-14.4h257.44
	c7.84,0,14.4,6.4,14.4,14.4l0,0C442.56,79.84,436.16,86.4,428.32,86.4z"/>
<path d="M180.64,64.84l1.92,7.52c0.48,1.6,0.8,3.2,1.12,4.8h0.16c0.32-1.44,0.8-3.04,1.28-4.64l2.4-7.52h2.24l2.24,7.52
	c0.48,1.76,0.96,3.36,1.28,4.8h0.16c0.32-1.44,0.64-3.04,1.12-4.8l2.08-7.52h2.72l-4.8,14.88h-2.4l-2.24-7.04
	c-0.48-1.6-0.96-3.2-1.28-4.96l0,0c-0.32,1.76-0.8,3.36-1.28,4.96l-2.4,7.04h-2.4L178.08,65h2.56L180.64,64.84L180.64,64.84z"/>
<path d="M203.52,64.84l1.92,7.52c0.48,1.6,0.8,3.2,1.12,4.8h0.16c0.32-1.44,0.8-3.04,1.28-4.64l2.4-7.52h2.24l2.24,7.52
	c0.48,1.76,0.96,3.36,1.28,4.8h0.16c0.32-1.44,0.64-3.04,1.12-4.8l2.08-7.52h2.72l-4.8,14.88h-2.4l-2.24-7.36
	c-0.48-1.6-0.96-3.2-1.28-4.96l0,0c-0.32,1.76-0.8,3.36-1.28,4.96l-2.4,7.04h-2.4l-4.48-14.88h2.56L203.52,64.84L203.52,64.84z"/>
<path d="M226.56,64.84l1.92,7.52c0.48,1.6,0.8,3.2,1.12,4.8h0.16c0.32-1.44,0.8-3.04,1.28-4.64l2.4-7.52h2.24l2.24,7.52
	c0.48,1.76,0.96,3.36,1.28,4.8h0.16c0.32-1.44,0.64-3.04,1.12-4.8l2.08-7.52h2.72l-4.8,14.88h-2.4l-2.24-7.04
	c-0.48-1.6-0.96-3.2-1.28-4.96l0,0c-0.32,1.76-0.8,3.36-1.28,4.96l-2.4,7.04h-2.4L224,65h2.56V64.84z"/>
<path d="M246.24,78.12c0-1.12,0.8-1.92,1.92-1.92s1.76,0.8,1.76,1.92c0,1.12-0.64,1.92-1.92,1.92
	C246.88,80.04,246.24,79.24,246.24,78.12z"/>
<g>
	<rect x="461.28" y="70.4" style="fill:#E9EDF1;" width="23.04" height="4"/>
	<polygon style="fill:#E9EDF1;" points="474.56,84.32 471.68,81.44 480.8,72.32 471.68,63.2 474.56,60.48 486.56,72.32 	"/>
</g>
<polygon style="fill:#999999;" points="429.76,67.36 422.24,77.28 414.56,67.36 "/>
<rect x="60.248" y="167.944" style="fill:#FF0000;" width="184.88" height="184.88"/>
<rect x="92.496" y="373.256" style="fill:#999999;" width="21.376" height="21.376"/>
<g>
	<rect x="125.496" y="373.256" style="fill:#FF0000;" width="21.376" height="21.376"/>
	<rect x="158.504" y="373.256" style="fill:#FF0000;" width="21.376" height="21.376"/>
</g>
<g>
	<rect x="191.504" y="373.256" style="fill:#999999;" width="21.376" height="21.376"/>
	<path style="fill:#999999;" d="M447.752,171.944v41.096H288.616v-41.096H447.752 M451.752,167.944H284.616v49.096h167.136V167.944
		L451.752,167.944z"/>
</g>
<path d="M185.464,232.896h-8.504V213.84c0-2.328-1.904-4.224-4.256-4.224h-40.04c-2.344,0-4.256,1.896-4.256,4.224v19.056h-8.504
	V213.84c0-6.984,5.72-12.664,12.76-12.664h40.04c7.032,0,12.76,5.68,12.76,12.664V232.896z"/>
<path style="fill:#FFFFFF;" d="M103.76,227.952l-19.112,91.632H220.72l-19.112-91.632L103.76,227.952L103.76,227.952z"/>
<g>
	<path style="fill:#999999;" d="M132.136,260.312c-4.096,0-7.424-3.304-7.424-7.376c0-4.072,3.32-7.376,7.424-7.376
		s7.424,3.304,7.424,7.376C139.56,257.008,136.232,260.312,132.136,260.312z M173.24,260.312c-4.096,0-7.424-3.304-7.424-7.376
		c0-4.072,3.32-7.376,7.424-7.376c4.096,0,7.424,3.304,7.424,7.376C180.664,257.008,177.336,260.312,173.24,260.312z"/>
	<path style="fill:#999999;" d="M429.736,408.456H306.632c-3.568,0-6.488-2.92-6.488-6.488v-39.72c0-3.568,2.92-6.488,6.488-6.488
		h123.096c3.568,0,6.488,2.92,6.488,6.488v39.72C436.216,405.536,433.304,408.456,429.736,408.456z"/>
</g>
<g>
	<path style="fill:#FFFFFF;" d="M342.584,369.768c1.264-0.256,3.568-0.456,5.816-0.456c2.952,0,4.776,0.36,6.264,1.4
		c1.368,0.816,2.272,2.232,2.272,4.088c0,2.016-1.264,3.864-3.632,4.744v0.064c2.304,0.584,4.416,2.408,4.416,5.432
		c0,1.944-0.84,3.472-2.112,4.504c-1.56,1.368-4.128,2.048-8.12,2.048c-2.208,0-3.896-0.168-4.904-0.288L342.584,369.768
		L342.584,369.768z M346.544,378.408h2.048c2.76,0,4.32-1.304,4.32-3.152c0-2.048-1.56-2.992-4.096-2.992
		c-1.168,0-1.848,0.064-2.272,0.168V378.408z M346.544,388.472c0.52,0.064,1.2,0.104,2.112,0.104c2.568,0,4.84-0.976,4.84-3.672
		c0-2.528-2.208-3.568-4.968-3.568h-1.984V388.472z"/>
	<path style="fill:#FFFFFF;" d="M375.248,386.616c0,1.88,0.072,3.448,0.136,4.744h-3.504l-0.192-2.408h-0.064
		c-0.68,1.144-2.24,2.768-5.064,2.768c-2.888,0-5.52-1.728-5.52-6.88v-9.288h3.992v8.6c0,2.632,0.84,4.32,2.952,4.32
		c1.592,0,2.632-1.136,3.056-2.144c0.136-0.36,0.224-0.784,0.224-1.232v-9.544h3.992v11.064H375.248z"/>
	<path style="fill:#FFFFFF;" d="M382.04,375.552l2.856,8.48c0.328,0.968,0.648,2.168,0.872,3.088h0.104
		c0.256-0.912,0.544-2.08,0.84-3.12l2.472-8.448h4.28l-3.96,10.784c-2.168,5.904-3.632,8.536-5.512,10.168
		c-1.56,1.392-3.184,1.912-4.184,2.048l-0.912-3.384c0.68-0.168,1.528-0.512,2.336-1.104c0.752-0.488,1.624-1.432,2.176-2.496
		c0.168-0.288,0.256-0.52,0.256-0.72c0-0.16-0.032-0.384-0.224-0.776l-5.784-14.512h4.384V375.552z"/>
</g>
<g>
	<rect x="286.808" y="243.8" style="fill:#999999;" width="164.944" height="4"/>
	<rect x="286.808" y="268.616" style="fill:#999999;" width="164.944" height="4"/>
	<rect x="286.808" y="293.432" style="fill:#999999;" width="164.944" height="4"/>
	<rect x="286.808" y="318.256" style="fill:#999999;" width="164.944" height="4"/>
</g>
<g>
</g>
<g>
</g>
<g>
</g>
<g>
</g>
<g>
</g>
<g>
</g>
<g>
</g>
<g>
</g>
<g>
</g>
<g>
</g>
<g>
</g>
<g>
</g>
<g>
</g>
<g>
</g>
<g>
</g>
</svg>
