<?xml version="1.0" encoding="iso-8859-1"?>
<!-- Generator: Adobe Illustrator 19.0.0, SVG Export Plug-In . SVG Version: 6.00 Build 0)  -->
<svg version="1.1" id="Capa_1" xmlns="http://www.w3.org/2000/svg" xmlns:xlink="http://www.w3.org/1999/xlink" x="0px" y="0px"
	 viewBox="0 0 512 512" style="enable-background:new 0 0 512 512;" xml:space="preserve">
<path style="fill:#87D2F3;" d="M405.333,96v341.333h-32H138.667h-32V96h32h234.667H405.333z"/>
<g>
	<path style="fill:#FFFFFF;" d="M405.333,437.333V480c-0.035,11.768-9.566,21.298-21.333,21.333H128
		c-11.767-0.035-21.298-9.566-21.333-21.333v-42.667H405.333z"/>
	<path style="fill:#FFFFFF;" d="M405.333,32v64H106.667V32c0.035-11.767,9.566-21.298,21.333-21.333h256
		C395.768,10.702,405.298,20.233,405.333,32z"/>
</g>
<g>
	<path style="fill:#87D2F3;" d="M245.333,213.333V256h-42.667c-5.891,0-10.667-4.776-10.667-10.667V224
		c0-5.891,4.776-10.667,10.667-10.667H245.333z"/>
	<circle style="fill:#87D2F3;" cx="96" cy="234.667" r="21.333"/>
	<path style="fill:#87D2F3;" d="M426.667,256H480v160c-0.035,11.768-9.566,21.298-21.333,21.333H309.333
		C297.566,437.298,288.035,427.768,288,416V256H426.667z"/>
</g>
<path style="fill:#FFFFFF;" d="M32,352V181.333c0-5.891,4.776-10.667,10.667-10.667h234.667c5.891,0,10.667,4.776,10.667,10.667
	v181.333H42.667C36.776,362.667,32,357.891,32,352z M245.333,256v-42.667h-42.667c-5.891,0-10.667,4.776-10.667,10.667v21.333
	c0,5.891,4.776,10.667,10.667,10.667H245.333z M117.333,234.667c0-11.782-9.551-21.333-21.333-21.333s-21.333,9.551-21.333,21.333
	S84.218,256,96,256C107.767,255.965,117.298,246.434,117.333,234.667z"/>
<g>
	<path style="fill:#2170A6;" d="M394.667,480c0,5.891-4.776,10.667-10.667,10.667H128c-5.891,0-10.667-4.776-10.667-10.667v-32
		h149.333v-21.333H117.333v-21.333H96V480c0,17.673,14.327,32,32,32h256c17.673,0,32-14.327,32-32v-10.667h-21.333V480z"/>
	<path style="fill:#2170A6;" d="M117.333,106.667h277.333v42.667H416V32c0-17.673-14.327-32-32-32H128c-17.673,0-32,14.327-32,32v96
		h21.333V106.667z M128,21.333h256c5.891,0,10.667,4.776,10.667,10.667v53.333H117.333V32C117.333,26.109,122.109,21.333,128,21.333
		z"/>
	<path style="fill:#2170A6;" d="M192,42.667h85.333V64H192V42.667z"/>
	<path style="fill:#2170A6;" d="M298.667,42.667H320V64h-21.333V42.667z"/>
	<path style="fill:#2170A6;" d="M96,202.667c-17.673,0-32,14.327-32,32s14.327,32,32,32s32-14.327,32-32S113.673,202.667,96,202.667
		z M96,245.333c-5.891,0-10.667-4.776-10.667-10.667S90.109,224,96,224c5.891,0,10.667,4.776,10.667,10.667
		S101.891,245.333,96,245.333z"/>
	<path style="fill:#2170A6;" d="M245.333,224v-21.333h-42.667c-11.782,0-21.333,9.551-21.333,21.333v21.333
		c0,11.782,9.551,21.333,21.333,21.333h42.667v-21.333h-42.667V224H245.333z"/>
	<path style="fill:#2170A6;" d="M64,298.667h21.333V320H64V298.667z"/>
	<path style="fill:#2170A6;" d="M106.667,298.667H128V320h-21.333V298.667z"/>
	<path style="fill:#2170A6;" d="M149.333,298.667h96V320h-96V298.667z"/>
	<path style="fill:#2170A6;" d="M480,245.333h-42.667v-42.667c0-11.782-9.551-21.333-21.333-21.333h-64
		c-11.782,0-21.333,9.551-21.333,21.333v42.667H288c-5.891,0-10.667,4.776-10.667,10.667v160c0,17.673,14.327,32,32,32h149.333
		c17.673,0,32-14.327,32-32V256C490.667,250.109,485.891,245.333,480,245.333z M352,202.667h64v42.667h-64V202.667z M469.333,416
		c0,5.891-4.776,10.667-10.667,10.667H309.333c-5.891,0-10.667-4.776-10.667-10.667V266.667h32v32H352v-32h64v32h21.333v-32h32V416z
		"/>
	<path style="fill:#2170A6;" d="M234.667,352h-192V181.333h234.667v32h21.333v-32c0-11.782-9.551-21.333-21.333-21.333H42.667
		c-11.782,0-21.333,9.551-21.333,21.333V352c0,11.782,9.551,21.333,21.333,21.333h192V352z"/>
</g>
<g>
</g>
<g>
</g>
<g>
</g>
<g>
</g>
<g>
</g>
<g>
</g>
<g>
</g>
<g>
</g>
<g>
</g>
<g>
</g>
<g>
</g>
<g>
</g>
<g>
</g>
<g>
</g>
<g>
</g>
</svg>
