<?xml version="1.0" encoding="iso-8859-1"?>
<!-- Generator: Adobe Illustrator 19.0.0, SVG Export Plug-In . SVG Version: 6.00 Build 0)  -->
<svg version="1.1" id="Capa_1" xmlns="http://www.w3.org/2000/svg" xmlns:xlink="http://www.w3.org/1999/xlink" x="0px" y="0px"
	 viewBox="0 0 511.699 511.699" style="enable-background:new 0 0 511.699 511.699;" xml:space="preserve">
<g>
	<g transform="translate(5 5)">
		<path style="fill:#A4C2F7;" d="M464.163,250.801c-0.043,117.803-95.53,213.291-213.333,213.333c-4.267,0-8.448-0.171-12.629-0.427
			c-0.03,0.04-0.078,0.063-0.128,0.063s-0.098-0.023-0.128-0.063C125.339,456.913,37.497,363.611,37.497,250.801
			S125.339,44.689,237.944,37.895c0.03-0.04,0.078-0.064,0.128-0.064c0.05,0,0.098,0.024,0.128,0.064
			c4.181-0.256,8.363-0.427,12.629-0.427C368.645,37.481,464.15,132.986,464.163,250.801z"/>
		<path style="fill:#E3E7F2;" d="M438.563,250.801c-0.037,112.763-87.809,206.031-200.363,212.907
			c-0.03,0.04-0.078,0.063-0.128,0.063s-0.098-0.023-0.128-0.063C125.339,456.913,37.497,363.611,37.497,250.801
			S125.339,44.689,237.944,37.895c0.03-0.04,0.078-0.064,0.128-0.064c0.05,0,0.098,0.024,0.128,0.064
			C350.767,44.742,438.555,138.026,438.563,250.801z"/>
		<path style="fill:#A4C2F7;" d="M353.229,319.068v42.667h-204.8v-42.667c0.014-4.707,3.826-8.52,8.533-8.533h187.733
			C349.403,310.548,353.216,314.361,353.229,319.068z"/>
		<path style="fill:#E3E7F2;" d="M327.629,319.068v42.667h-179.2v-42.667c0.014-4.707,3.826-8.52,8.533-8.533h162.133
			C323.803,310.548,327.616,314.361,327.629,319.068z"/>
		<path style="fill:#A4C2F7;" d="M353.229,174.001h-204.8l18.517-37.035c4.327-8.671,13.18-14.154,22.87-14.165h122.027
			c9.69,0.012,18.543,5.495,22.87,14.165L353.229,174.001z"/>
		<g>
			<path style="fill:#E3E7F2;" d="M327.629,174.001h-179.2l18.517-37.035c4.327-8.671,13.18-14.154,22.87-14.165h96.427
				c9.69,0.012,18.543,5.495,22.87,14.165L327.629,174.001z"/>
			<path style="fill:#E3E7F2;" d="M199.629,174.001h51.2v25.6c0,14.138-11.462,25.6-25.6,25.6c-14.138,0-25.6-11.462-25.6-25.6
				V174.001z"/>
		</g>
		<g>
			<path style="fill:#F4F4F4;" d="M250.829,174.001h51.2v25.6c0,14.138-11.462,25.6-25.6,25.6s-25.6-11.462-25.6-25.6V174.001z"/>
			<path style="fill:#F4F4F4;" d="M148.429,174.001h51.2v25.6c0,14.138-11.462,25.6-25.6,25.6s-25.6-11.462-25.6-25.6V174.001z"/>
		</g>
		<path style="fill:#A4C2F7;" d="M353.229,174.001v25.6c0,14.138-11.462,25.6-25.6,25.6s-25.6-11.462-25.6-25.6v-25.6H353.229z"/>
		<path style="fill:#E3E7F2;" d="M327.629,174.001l0,25.6c0.013,9.154-4.869,17.616-12.8,22.187
			c-7.931-4.571-12.813-13.033-12.8-22.187v-25.6H327.629z"/>
		<path style="fill:#FFFFFF;" d="M263.544,463.708C150.939,456.913,63.097,363.611,63.097,250.801S150.939,44.689,263.544,37.895
			c0.073-0.072,0.145-0.051,0.217,0c-4.281-0.256-8.585-0.427-12.931-0.427c-4.267,0-8.448,0.171-12.629,0.427
			c-0.03-0.04-0.078-0.064-0.128-0.064c-0.05,0-0.098,0.024-0.128,0.064C125.339,44.689,37.497,137.992,37.497,250.801
			s87.842,206.112,200.447,212.907c0.03,0.04,0.078,0.063,0.128,0.063s0.098-0.023,0.128-0.063
			c4.181,0.256,8.363,0.427,12.629,0.427c4.345,0,8.648-0.171,12.929-0.427C263.688,463.757,263.615,463.78,263.544,463.708z"/>
	</g>
	<g>
		<path style="fill:#FFFFFF;" d="M34.184,256.023c0.179-38.655,10.329-76.61,29.469-110.195l7.567-12.446
			c2.646-4.065,5.732-7.831,8.585-11.756c5.881-7.724,12.217-15.091,18.975-22.06l10.733-9.839l5.394-4.89l5.825-4.369l11.695-8.675
			l12.445-7.569c33.803-19.549,72.132-29.914,111.18-30.066v17.067c-26.953,0.298-53.614,5.619-78.617,15.691
			c-4.125,1.734-8.093,3.841-12.151,5.735c-4.103,1.805-8.062,3.922-11.842,6.332l-11.494,6.974l-10.789,8.022l-5.39,4.021
			l-4.97,4.529l-9.921,9.075c-6.234,6.442-12.081,13.248-17.51,20.381c-2.626,3.629-5.497,7.092-7.936,10.847l-6.977,11.493
			c-17.658,30.999-27.027,66.026-27.204,101.7H34.184z"/>
		<g>
			<path style="fill:#428DFF;" d="M48.208,195.519c0.4,0.375,0.855,0.687,1.349,0.926c0.516,0.249,1.049,0.462,1.595,0.637
				c2.147,0.587,4.436,0.352,6.42-0.657c0.922-0.563,1.749-1.268,2.451-2.09c2.271-2.438,2.825-6.013,1.399-9.024
				c-0.514-0.989-1.205-1.876-2.036-2.617c-0.814-0.765-1.766-1.368-2.806-1.776c-2.131-0.773-4.481-0.682-6.545,0.255
				c-2.069,1.083-3.666,2.889-4.489,5.075c-0.836,2.188-0.683,4.63,0.42,6.696l0.963,1.382
				C47.3,194.78,47.73,195.181,48.208,195.519z"/>
			<path style="fill:#428DFF;" d="M501.021,11.056c-31.272-31.288-111.371,10.75-158.928,40.468
				c-27.227-11.493-56.485-17.399-86.038-17.368l-0.006,0.001c-39.047,0.152-77.375,10.517-111.177,30.066l-12.445,7.569
				l-11.695,8.675l-5.825,4.369l-5.394,4.891l-10.733,9.839c-6.758,6.969-13.094,14.336-18.975,22.06
				c-2.852,3.925-5.939,7.691-8.585,11.756l-7.567,12.446c-1.612,2.481-3.047,5.073-4.292,7.757
				c-1.05,2.052-1.232,4.439-0.506,6.627s2.3,3.992,4.368,5.009c4.149,2.01,9.145,0.352,11.269-3.74
				c1.14-2.482,2.465-4.874,3.963-7.157l6.977-11.493c2.44-3.755,5.31-7.218,7.936-10.847c5.429-7.133,11.276-13.939,17.51-20.381
				l9.921-9.075l4.97-4.529l5.39-4.021l10.789-8.022l11.494-6.974c3.78-2.409,7.739-4.526,11.842-6.331
				c4.058-1.894,8.026-4.001,12.151-5.735c25.002-10.072,51.663-15.393,78.617-15.691v-0.002l0.003,0.001
				c79.023,0.075,150.97,45.553,184.941,116.901c-24.198,37.096-51.149,72.323-80.624,105.382c-3.123,3.53-2.793,8.923,0.737,12.046
				c3.53,3.123,8.923,2.793,12.046-0.737c27.374-30.889,52.664-63.564,75.702-97.809c26.712,74.554,8.035,157.826-47.958,213.831
				s-139.262,74.698-213.821,48.002c19.07-12.713,38.202-26.672,56.652-41.278c3.686-2.93,4.304-8.291,1.38-11.983
				c-2.924-3.691-8.284-4.318-11.98-1.401c-22.897,18.128-44.658,33.593-65.054,46.75C96.77,406.938,51.329,335.013,51.254,256.022
				l-0.002-0.012c0.191-10.92,1.142-21.814,2.848-32.601c0.524-4.621-2.578-8.874-7.138-9.786c-2.239-0.431-4.556,0.086-6.398,1.43
				c-1.842,1.343-3.043,3.392-3.316,5.655c-1.85,11.685-2.873,23.487-3.064,35.316h0.003c-0.031,29.553,5.876,58.811,17.369,86.038
				c-29.729,47.567-71.75,127.654-40.469,158.928c8.341,7.527,19.373,11.358,30.583,10.621c32.102,0,78.929-20.841,127.708-51.363
				c83.244,35.342,179.609,16.616,243.559-47.33s82.683-160.309,47.347-243.555C503.897,99.834,526.383,36.421,501.021,11.056z
				 M23.154,488.922c-15.506-15.502-0.916-65.242,37.172-128.554c20.694,38.622,52.288,70.306,90.851,91.11
				C85.376,491.118,37.35,503.121,23.154,488.922z M451.533,151.19c-20.802-38.583-52.496-70.194-91.133-90.896
				c63.304-38.079,113.042-52.681,128.554-37.172C503.733,37.907,490.158,87.018,451.533,151.19z"/>
			<path style="fill:#428DFF;" d="M153.429,307.001c-2.263-0.001-4.434,0.898-6.035,2.499c-1.6,1.6-2.499,3.771-2.499,6.035v42.667
				h-8.533c-4.713,0-8.533,3.821-8.533,8.533s3.821,8.533,8.533,8.533h238.933c4.713,0,8.533-3.82,8.533-8.533
				s-3.821-8.533-8.533-8.533h-8.533v-42.667c0.001-2.263-0.898-4.434-2.499-6.035c-1.6-1.6-3.771-2.499-6.035-2.499h-17.067
				v-69.478c15.031-3.869,25.554-17.4,25.6-32.922v-25.6c0-0.11-0.058-0.202-0.062-0.311c-0.036-0.897-0.214-1.783-0.529-2.624
				c-0.07-0.189-0.115-0.38-0.197-0.563c-0.047-0.104-0.06-0.217-0.111-0.319l-18.525-37.05
				c-5.749-11.595-17.591-18.913-30.533-18.867h-121.95c-12.942-0.046-24.784,7.271-30.533,18.867l-18.525,37.05
				c-0.052,0.103-0.065,0.216-0.112,0.32c-0.081,0.182-0.125,0.372-0.195,0.56c-0.315,0.841-0.494,1.727-0.53,2.625
				c-0.004,0.11-0.063,0.202-0.063,0.312v25.6c0.046,15.521,10.569,29.053,25.6,32.922v69.478H153.429z M349.696,358.201H161.963
				v-34.133h85.333v8.533c0,4.713,3.821,8.533,8.533,8.533c4.713,0,8.533-3.821,8.533-8.533v-8.533h85.333V358.201z
				 M349.696,204.601c0,9.426-7.641,17.067-17.067,17.067s-17.067-7.641-17.067-17.067v-17.067h34.133V204.601z M298.496,204.601
				c0,9.426-7.641,17.067-17.067,17.067s-17.067-7.641-17.067-17.067v-17.067h34.133V204.601z M247.296,204.601
				c0,9.426-7.641,17.067-17.067,17.067c-9.426,0-17.067-7.641-17.067-17.067v-17.067h34.133V204.601z M179.588,145.768
				c2.874-5.798,8.795-9.457,15.267-9.433h121.95c6.471-0.024,12.393,3.635,15.267,9.433l12.35,24.7H167.238L179.588,145.768z
				 M161.963,204.601v-17.067h34.133v17.067c0,9.426-7.641,17.067-17.067,17.067C169.604,221.668,161.963,214.027,161.963,204.601z
				 M187.563,237.523c6.625-1.728,12.574-5.417,17.067-10.583c6.399,7.485,15.753,11.795,25.6,11.795
				c9.847,0,19.201-4.31,25.6-11.795c6.399,7.485,15.753,11.795,25.6,11.795c9.847,0,19.201-4.31,25.6-11.795
				c4.493,5.167,10.441,8.855,17.067,10.583v69.478h-59.733v-22.067l2.5,2.5c3.338,3.296,8.711,3.279,12.029-0.038
				c3.317-3.317,3.334-8.691,0.038-12.029l-17.059-17.059c-3.341-3.325-8.741-3.325-12.081,0l-17.059,17.059
				c-3.281,3.341-3.256,8.701,0.054,12.012c3.311,3.311,8.671,3.335,12.012,0.054l2.5-2.5v22.067h-59.733V237.523z"/>
		</g>
	</g>
</g>
<g>
</g>
<g>
</g>
<g>
</g>
<g>
</g>
<g>
</g>
<g>
</g>
<g>
</g>
<g>
</g>
<g>
</g>
<g>
</g>
<g>
</g>
<g>
</g>
<g>
</g>
<g>
</g>
<g>
</g>
</svg>
