<?xml version="1.0" encoding="iso-8859-1"?>
<!-- Generator: Adobe Illustrator 19.0.0, SVG Export Plug-In . SVG Version: 6.00 Build 0)  -->
<svg version="1.1" id="Capa_1" xmlns="http://www.w3.org/2000/svg" xmlns:xlink="http://www.w3.org/1999/xlink" x="0px" y="0px"
	 viewBox="0 0 512 512" style="enable-background:new 0 0 512 512;" xml:space="preserve">
<path style="fill:#D9EEF7;" d="M501.333,96v362.667c0,23.564-19.103,42.667-42.667,42.667H53.333
	c-23.564,0-42.667-19.103-42.667-42.667V96H501.333z"/>
<path style="fill:#AAC4DA;" d="M501.333,53.333V96H10.667V53.333c0-23.564,19.103-42.667,42.667-42.667h405.333
	C482.231,10.667,501.333,29.769,501.333,53.333z"/>
<path style="fill:#FFE451;" d="M394.667,266.667V480c-0.035,11.768-9.566,21.298-21.333,21.333H138.667
	c-11.767-0.035-21.298-9.566-21.333-21.333V224h277.333V266.667z"/>
<g>
	<path style="fill:#4C5B66;" d="M458.667,0H53.333C23.893,0.035,0.035,23.893,0,53.333v405.333
		C0.035,488.107,23.893,511.965,53.333,512h32v-21.333h-32c-17.673,0-32-14.327-32-32V53.333c0-17.673,14.327-32,32-32h405.333
		c17.673,0,32,14.327,32,32v405.333c0,17.673-14.327,32-32,32h-32V512h32c29.441-0.035,53.298-23.893,53.333-53.333V53.333
		C511.965,23.893,488.107,0.035,458.667,0z"/>
	<path style="fill:#4C5B66;" d="M42.667,85.333h426.667v21.333H42.667V85.333z"/>
	<path style="fill:#4C5B66;" d="M53.333,42.667h21.333V64H53.333V42.667z"/>
	<path style="fill:#4C5B66;" d="M96,42.667h21.333V64H96V42.667z"/>
	<path style="fill:#4C5B66;" d="M437.333,42.667h21.333V64h-21.333V42.667z"/>
	<path style="fill:#4C5B66;" d="M373.333,490.667H138.667c-5.891,0-10.667-4.776-10.667-10.667V234.667h42.667v42.667H192v-42.667
		h128v42.667h21.333v-42.667H384v32h21.333V224c0-5.891-4.776-10.667-10.667-10.667h-53.333v-42.667c0-17.673-14.327-32-32-32
		H202.667c-17.673,0-32,14.327-32,32v42.667h-53.333c-5.891,0-10.667,4.776-10.667,10.667v256c0,17.673,14.327,32,32,32h234.667
		c17.673,0,32-14.327,32-32H384C384,485.891,379.224,490.667,373.333,490.667z M192,170.667c0-5.891,4.776-10.667,10.667-10.667
		h106.667c5.891,0,10.667,4.776,10.667,10.667v42.667H192V170.667z"/>
	<path style="fill:#4C5B66;" d="M384,320v-21.333H277.333c-11.538-0.244-21.089,8.911-21.333,20.449
		c-0.006,0.295-0.006,0.589,0,0.884v48.917l-24.459-24.459l-15.083,15.083l42.667,42.667c4.165,4.164,10.917,4.164,15.083,0
		l42.667-42.667l-15.083-15.083l-24.459,24.459V320H384z"/>
	<path style="fill:#4C5B66;" d="M426.667,377.749l24.459,24.459l15.083-15.083l-42.667-42.667c-4.165-4.164-10.917-4.164-15.083,0
		l-42.667,42.667l15.083,15.083l24.459-24.459v48.917H298.667V448h106.667c11.538,0.244,21.089-8.911,21.333-20.449
		c0.006-0.295,0.006-0.589,0-0.884V377.749z"/>
</g>
<g>
</g>
<g>
</g>
<g>
</g>
<g>
</g>
<g>
</g>
<g>
</g>
<g>
</g>
<g>
</g>
<g>
</g>
<g>
</g>
<g>
</g>
<g>
</g>
<g>
</g>
<g>
</g>
<g>
</g>
</svg>
