<svg width="399" height="341" viewBox="0 0 399 341" fill="none" xmlns="http://www.w3.org/2000/svg">
<g clip-path="url(#clip0_2863_19784)">
<path d="M21.1006 0V320.37L60.3005 314.79L182.392 297.41L350.102 273.54L350.532 150.68C334.672 154.98 317.857 154.125 302.515 148.239C287.174 142.353 274.101 131.741 265.188 117.937C256.274 104.133 251.981 87.8522 252.929 71.4478C253.877 55.0433 260.017 39.3655 270.462 26.6802L21.1006 0Z" fill="#E7E1FF"/>
<path d="M327.815 141.63C363.422 141.63 392.288 112.764 392.288 77.1566C392.288 41.5491 363.422 12.6836 327.815 12.6836C292.207 12.6836 263.342 41.5491 263.342 77.1566C263.342 112.764 292.207 141.63 327.815 141.63Z" fill="#E7E1FF"/>
<g clip-path="url(#clip1_2863_19784)">
<path d="M325.927 54.2192V104.236C325.927 105.357 325.019 106.264 323.899 106.264H289.419C288.299 106.264 287.392 105.357 287.392 104.236V54.2192C287.392 53.0986 288.299 52.1914 289.419 52.1914H323.899C325.019 52.1914 325.927 53.0986 325.927 54.2192Z" fill="#FCF5DF"/>
<path d="M306.488 104.236V54.2192C306.488 53.0986 307.396 52.1914 308.516 52.1914H289.419C288.299 52.1914 287.392 53.0986 287.392 54.2192V104.236C287.392 105.357 288.299 106.264 289.419 106.264H308.516C307.396 106.264 306.488 105.357 306.488 104.236Z" fill="#F3E7C6"/>
<path d="M356.181 64.1879V103.886C356.181 105.007 355.274 105.914 354.154 105.914H334.091C332.971 105.914 332.063 105.007 332.063 103.886V64.1879C332.063 63.0674 332.971 62.1602 334.091 62.1602H354.154C355.274 62.1602 356.181 63.0674 356.181 64.1879Z" fill="#FCF5DF"/>
<path d="M343.288 103.886V64.1879C343.288 63.0674 344.195 62.1602 345.315 62.1602H334.091C332.971 62.1602 332.063 63.0674 332.063 64.1879V103.886C332.063 105.007 332.971 105.914 334.091 105.914H345.315C344.195 105.914 343.288 105.007 343.288 103.886Z" fill="#F3E7C6"/>
<path d="M379.609 77.5453V104.292C379.609 105.411 378.7 106.32 377.581 106.32H363.589C362.469 106.32 361.562 105.411 361.562 104.292V77.5453C361.562 76.4248 362.469 75.5176 363.589 75.5176H377.581C378.7 75.5176 379.609 76.4248 379.609 77.5453Z" fill="#FCF5DF"/>
<path d="M370.858 104.292V77.5453C370.858 76.4248 371.765 75.5176 372.886 75.5176H363.589C362.469 75.5176 361.562 76.4248 361.562 77.5453V104.292C361.562 105.411 362.469 106.32 363.589 106.32H372.886C371.765 106.32 370.858 105.411 370.858 104.292Z" fill="#F3E7C6"/>
<path d="M321.117 57.3767V70.2816C321.117 70.7139 320.767 71.0645 320.334 71.0645H292.959C292.526 71.0645 292.176 70.7139 292.176 70.2816V57.3767C292.176 56.9444 292.526 56.5938 292.959 56.5938H320.334C320.767 56.5938 321.117 56.9444 321.117 57.3767Z" fill="#00B4BE"/>
<path d="M321.117 95.4136V100.89C321.117 101.324 320.765 101.677 320.331 101.677H292.962C292.528 101.677 292.176 101.324 292.176 100.89V95.4136C292.176 94.9795 292.528 94.627 292.962 94.627H320.331C320.765 94.627 321.117 94.9795 321.117 95.4136Z" fill="#F3D064"/>
<path d="M308.316 76.4953V89.0107C308.316 89.5505 307.878 89.9884 307.339 89.9884H293.153C292.614 89.9884 292.176 89.5505 292.176 89.0107V76.4953C292.176 75.9554 292.614 75.5176 293.153 75.5176H307.339C307.878 75.5176 308.316 75.9554 308.316 76.4953Z" fill="#7CA1D8"/>
<path d="M321.118 76.2485V89.2574C321.118 89.6618 320.792 89.9884 320.387 89.9884H313.315C312.911 89.9884 312.584 89.6618 312.584 89.2574V76.2485C312.584 75.8441 312.911 75.5176 313.315 75.5176H320.387C320.792 75.5176 321.118 75.8441 321.118 76.2485Z" fill="#FF395E"/>
<path d="M351.729 67.1123V72.4182C351.729 72.5926 351.588 72.7336 351.414 72.7336H336.832C336.658 72.7336 336.517 72.5926 336.517 72.4182V67.1123C336.517 66.9379 336.658 66.7969 336.832 66.7969H351.414C351.588 66.7969 351.729 66.9379 351.729 67.1123Z" fill="#7CA1D8"/>
<path d="M351.729 77.5493V101.315C351.729 101.515 351.568 101.677 351.368 101.677H336.878C336.678 101.677 336.517 101.515 336.517 101.315V77.5493C336.517 77.3489 336.678 77.1875 336.878 77.1875H351.368C351.568 77.1875 351.729 77.3489 351.729 77.5493Z" fill="#FF395E"/>
<path d="M375.105 80.4772V88.1838C375.105 88.3601 374.961 88.5048 374.784 88.5048H366.521C366.345 88.5048 366.2 88.3601 366.2 88.1838V80.4772C366.2 80.301 366.345 80.1562 366.521 80.1562H374.784C374.961 80.1562 375.105 80.301 375.105 80.4772Z" fill="#00B4BE"/>
<path d="M375.105 93.8124V101.378C375.105 101.543 374.972 101.677 374.807 101.677H366.499C366.334 101.677 366.2 101.543 366.2 101.378V93.8124C366.2 93.6473 366.334 93.5137 366.499 93.5137H374.807C374.972 93.5137 375.105 93.6473 375.105 93.8124Z" fill="#C5D65C"/>
<path d="M323.899 50.8008H289.419C287.534 50.8008 286 52.3347 286 54.2198V104.238C286 106.123 287.534 107.657 289.419 107.657H323.899C325.784 107.657 327.318 106.123 327.318 104.238V54.2198C327.318 52.3347 325.784 50.8008 323.899 50.8008ZM324.535 104.238C324.535 104.589 324.249 104.874 323.899 104.874H289.419C289.068 104.874 288.783 104.589 288.783 104.238V54.2198C288.783 53.869 289.068 53.5836 289.419 53.5836H323.899C324.249 53.5836 324.535 53.869 324.535 54.2198V104.238Z" fill="#000100"/>
<path d="M354.154 60.7695H334.091C332.206 60.7695 330.672 62.3034 330.672 64.1887V103.887C330.672 105.772 332.206 107.306 334.091 107.306H354.154C356.039 107.306 357.573 105.772 357.573 103.887V64.1885C357.573 62.3032 356.039 60.7695 354.154 60.7695ZM354.79 103.887C354.79 104.238 354.504 104.523 354.154 104.523H334.091C333.74 104.523 333.455 104.238 333.455 103.887V64.1885C333.455 63.8375 333.74 63.5522 334.091 63.5522H354.154C354.505 63.5522 354.79 63.8375 354.79 64.1885V103.887H354.79Z" fill="#000100"/>
<path d="M377.581 74.127H363.589C361.704 74.127 360.17 75.6609 360.17 77.5461V104.293C360.17 106.178 361.704 107.712 363.589 107.712H377.581C379.466 107.712 381 106.178 381 104.293V77.546C381 75.6607 379.466 74.127 377.581 74.127ZM378.217 104.292C378.217 104.643 377.932 104.929 377.581 104.929H363.589C363.238 104.929 362.953 104.643 362.953 104.292V77.546C362.953 77.1949 363.238 76.9096 363.589 76.9096H377.581C377.932 76.9096 378.217 77.1949 378.217 77.546V104.292Z" fill="#000100"/>
<path d="M314.624 49.8231C315.392 49.8231 316.015 49.2003 316.015 48.4317V44.6283C316.015 44.3216 316.265 44.0719 316.572 44.0719H336.237C336.544 44.0719 336.794 44.3216 336.794 44.6283V52.8646L335.273 51.3439C334.73 50.8006 333.849 50.8006 333.305 51.3439C332.762 51.8874 332.762 52.7683 333.305 53.3117L337.201 57.2077C337.235 57.2411 337.27 57.2726 337.306 57.3019C337.341 57.3303 337.377 57.3567 337.413 57.3811C337.414 57.3819 337.416 57.3828 337.417 57.3836C337.608 57.5105 337.823 57.585 338.043 57.6075C338.046 57.6077 338.048 57.6082 338.05 57.6086C338.095 57.6129 338.14 57.6151 338.185 57.6151C338.185 57.6151 338.185 57.6151 338.185 57.6151C338.185 57.6151 338.186 57.6151 338.185 57.6151C338.191 57.6151 338.197 57.6143 338.203 57.6143C338.242 57.6138 338.281 57.6125 338.32 57.6086C338.327 57.6078 338.335 57.6062 338.343 57.6053C338.38 57.601 338.417 57.5962 338.454 57.5889C338.458 57.5882 338.462 57.5867 338.466 57.586C338.507 57.5776 338.547 57.5678 338.587 57.5559C338.588 57.5557 338.589 57.5552 338.59 57.555C338.633 57.5418 338.676 57.5266 338.718 57.5093H338.718C338.718 57.5093 338.718 57.5092 338.718 57.5092C338.776 57.4854 338.832 57.4565 338.886 57.4246C338.897 57.4184 338.907 57.4125 338.917 57.406C338.969 57.3737 339.02 57.3387 339.069 57.299C339.073 57.2951 339.077 57.2906 339.082 57.2867C339.112 57.2617 339.141 57.2359 339.169 57.2079L342.88 53.4974C343.423 52.9538 343.423 52.073 342.88 51.5296C342.336 50.9863 341.455 50.9863 340.912 51.5296L339.577 52.8648V44.6283C339.577 42.787 338.079 41.2891 336.238 41.2891H316.572C314.73 41.2891 313.232 42.787 313.232 44.6283V48.4317C313.232 49.2001 313.855 49.8231 314.624 49.8231Z" fill="#000100"/>
<path d="M348.389 59.2856C349.158 59.2856 349.781 58.6628 349.781 57.8942V54.0908C349.781 53.7841 350.03 53.5344 350.337 53.5344H366.849C367.156 53.5344 367.405 53.7841 367.405 54.0908V67.1507L365.885 65.63C365.341 65.0868 364.46 65.0868 363.917 65.63C363.374 66.1735 363.374 67.0544 363.917 67.5978L367.813 71.4938C367.846 71.5272 367.881 71.5587 367.917 71.588C367.952 71.6164 367.988 71.6428 368.025 71.6673C368.026 71.668 368.027 71.6689 368.028 71.6697C368.219 71.7966 368.435 71.8711 368.655 71.8936C368.657 71.8938 368.66 71.8943 368.662 71.8947C368.707 71.899 368.752 71.9012 368.797 71.9012C368.797 71.9012 368.797 71.9012 368.797 71.9012C368.797 71.9012 368.797 71.9012 368.797 71.9012C368.803 71.9012 368.809 71.9005 368.814 71.9005C368.853 71.8999 368.892 71.8986 368.931 71.8947C368.939 71.894 368.947 71.8923 368.955 71.8914C368.992 71.8871 369.029 71.8823 369.065 71.875C369.069 71.8743 369.073 71.8728 369.078 71.8721C369.118 71.8637 369.159 71.8539 369.199 71.842C369.2 71.8418 369.2 71.8413 369.201 71.8411C369.244 71.8279 369.287 71.8127 369.329 71.7955H369.329C369.33 71.7955 369.33 71.7953 369.33 71.7953C369.388 71.7715 369.443 71.7426 369.498 71.7107C369.508 71.7045 369.519 71.6986 369.529 71.6921C369.581 71.6598 369.632 71.6248 369.68 71.5851C369.685 71.5812 369.689 71.5767 369.694 71.5728C369.723 71.5478 369.753 71.522 369.781 71.494L373.491 67.7835C374.035 67.2399 374.035 66.3591 373.491 65.8157C372.948 65.2725 372.067 65.2725 371.524 65.8157L370.188 67.1509V54.0912C370.188 52.2499 368.691 50.752 366.849 50.752H350.337C348.496 50.752 346.998 52.2499 346.998 54.0912V57.8946C346.998 58.6627 347.621 59.2856 348.389 59.2856Z" fill="#000100"/>
<path d="M321.117 55.2031H292.176C291.407 55.2031 290.784 55.8259 290.784 56.5945V71.0653C290.784 71.834 291.407 72.4568 292.176 72.4568H309.012C309.78 72.4568 310.403 71.834 310.403 71.0653C310.403 70.2967 309.78 69.6739 309.012 69.6739H293.567V57.986H319.726V69.6739H314.577C313.809 69.6739 313.186 70.2967 313.186 71.0653C313.186 71.834 313.809 72.4568 314.577 72.4568H321.117C321.886 72.4568 322.509 71.834 322.509 71.0653V56.5945C322.509 55.8259 321.886 55.2031 321.117 55.2031Z" fill="#000100"/>
<path d="M321.117 93.2363H292.176C291.407 93.2363 290.784 93.8591 290.784 94.6278V101.678C290.784 102.446 291.407 103.069 292.176 103.069H321.117C321.886 103.069 322.509 102.446 322.509 101.678V94.6278C322.509 93.8591 321.886 93.2363 321.117 93.2363ZM319.726 100.286H293.567V96.0192H319.726V100.286Z" fill="#000100"/>
<path d="M292.176 91.3806H308.316C309.085 91.3806 309.708 90.7578 309.708 89.9892V75.5184C309.708 74.7498 309.085 74.127 308.316 74.127H292.176C291.407 74.127 290.784 74.7498 290.784 75.5184V89.9892C290.784 90.7576 291.407 91.3806 292.176 91.3806ZM293.567 76.9098H306.925V88.5977H293.567V76.9098Z" fill="#000100"/>
<path d="M321.118 74.127H312.584C311.815 74.127 311.192 74.7498 311.192 75.5184V89.9892C311.192 90.7578 311.815 91.3806 312.584 91.3806H321.118C321.886 91.3806 322.509 90.7578 322.509 89.9892V75.5184C322.509 74.7498 321.886 74.127 321.118 74.127ZM319.726 88.5977H313.975V76.9098H319.726V88.5977Z" fill="#000100"/>
<path d="M350.882 65.4062H337.363C336.129 65.4062 335.125 66.4103 335.125 67.6446V71.8873C335.125 73.1216 336.129 74.1256 337.363 74.1256H350.882C352.116 74.1256 353.121 73.1216 353.121 71.8873V67.6446C353.121 66.4103 352.116 65.4062 350.882 65.4062ZM350.338 71.343H337.908V68.1891H350.338V71.343Z" fill="#000100"/>
<path d="M350.71 75.7969H337.534C336.205 75.7969 335.124 76.8781 335.124 78.207V82.0119C335.124 82.7805 335.747 83.4033 336.515 83.4033C337.284 83.4033 337.907 82.7805 337.907 82.0119V78.5797H350.337V100.286H337.907V87.5776C337.907 86.809 337.284 86.1862 336.515 86.1862C335.747 86.1862 335.124 86.809 335.124 87.5776V100.659C335.124 101.988 336.205 103.069 337.534 103.069H350.71C352.039 103.069 353.12 101.988 353.12 100.659V78.207C353.12 76.8781 352.039 75.7969 350.71 75.7969Z" fill="#000100"/>
<path d="M373.726 78.7656H367.578C366.05 78.7656 364.808 80.0083 364.808 81.5359V87.127C364.808 88.6544 366.05 89.8972 367.578 89.8972H373.726C375.253 89.8972 376.496 88.6546 376.496 87.127V81.5359C376.496 80.0083 375.253 78.7656 373.726 78.7656ZM373.713 87.1142H367.591V81.5485H373.713V87.1142Z" fill="#000100"/>
<path d="M373.726 92.123H367.578C366.05 92.123 364.808 93.3657 364.808 94.8933V100.299C364.808 101.826 366.05 103.069 367.578 103.069H373.726C375.253 103.069 376.496 101.826 376.496 100.299V94.8933C376.496 93.3657 375.253 92.123 373.726 92.123ZM373.713 100.286H367.591V94.9059H373.713V100.286Z" fill="#000100"/>
</g>
<path d="M332.813 139.964C368.42 139.964 397.286 111.098 397.286 75.4906C397.286 39.8831 368.42 11.0176 332.813 11.0176C297.205 11.0176 268.34 39.8831 268.34 75.4906C268.34 111.098 297.205 139.964 332.813 139.964Z" stroke="#594A96" stroke-width="2.95" stroke-miterlimit="10"/>
<path d="M178.861 297.254C178.854 297.276 130.122 306.089 125.214 305.118C123.457 304.777 118.614 294.102 118.203 289.788C117.202 280.117 117.252 270.366 118.352 260.705C118.418 260.205 118.493 259.696 118.574 259.199C118.722 258.236 118.893 257.287 119.086 256.36C119.642 253.654 120.339 251.089 120.998 248.66C126.581 228.154 91.5517 193.18 102.776 182.416C103.639 181.565 104.614 180.837 105.676 180.251C108.976 178.486 115.736 178.943 120.117 181.315C123.972 183.398 131.007 187.854 135.496 193.884C157.921 224.008 159.096 230.251 162.98 237.884C170.152 251.986 178.155 287.767 178.861 297.254Z" fill="url(#paint0_linear_2863_19784)"/>
<path d="M31.8398 135.788C40.1308 159.747 66.2819 162.643 71.5159 155.165C75.4669 149.521 81.2798 149.959 85.9158 144.858C88.5528 141.953 91.0349 138.869 94.0979 136.416C98.6689 132.754 104.282 130.692 109.376 127.804C122.788 120.204 136.558 115.293 137.934 90.8522C138.101 87.8922 136.005 85.2523 135.054 82.4423C134.162 80.1841 132.837 78.1221 131.154 76.3722C124.373 68.6293 116.021 62.4186 106.654 58.1532C102.308 56.112 97.7013 54.6808 92.9639 53.9003C75.8089 51.3073 58.0999 60.4462 48.0579 74.6002C42.8371 82.1278 39.3339 90.7106 37.7959 99.7414C36.9801 104.313 36.5807 108.949 36.6028 113.593C36.6158 117.903 37.845 122.517 37.386 126.742C37.123 129.054 36.6188 134.837 31.8398 135.788Z" fill="url(#paint1_linear_2863_19784)"/>
<path d="M100.06 153.391L104.226 187.464C104.226 187.464 69.3804 186.584 63.5674 187.45C65.0854 171.843 66.2114 156.765 67.0764 148.559C72.3384 153.368 96.3953 153.995 100.06 153.391Z" fill="#FA997B"/>
<path d="M66.3994 155.646C77.4457 162.857 89.5616 168.277 102.299 171.707L100.89 160.186C100.89 160.186 80.8794 160.822 66.3994 155.646Z" fill="#EF5D23"/>
<path d="M50.0915 284.609C50.1915 285.655 50.2517 286.703 50.2917 287.767L146.681 277.73C141.837 261.077 141.374 241.83 130.462 218.606C125.068 207.126 116.262 184.552 106.134 181.99C99.9475 180.424 98.3876 187.353 88.3796 186.244C78.1086 185.107 63.5625 168.01 56.2795 173.999C36.2265 190.503 45.3185 232.554 50.0915 284.609Z" fill="url(#paint2_linear_2863_19784)"/>
<path d="M1.23797 299.654C2.14658 307.136 4.34907 314.404 7.747 321.132C7.756 321.159 36.04 336.415 41.913 335.253C44.013 334.845 46.2642 337.253 47.8342 331.353C48.3842 329.304 48.908 327.053 49.413 324.628C49.786 322.818 50.15 320.911 50.487 318.928C51.268 314.359 51.9331 309.381 52.4211 304.218C53.6186 292.645 53.5592 280.977 52.2441 269.418C52.1641 268.818 52.075 268.211 51.977 267.618C51.8 266.464 51.5962 265.329 51.3652 264.218C50.7002 260.979 49.8651 257.91 49.0761 255C42.3961 230.46 80.2171 188.4 66.7851 175.515C65.7523 174.497 64.5852 173.625 63.3161 172.924C59.3681 170.813 55.375 171.567 50.132 174.406C45.519 176.899 40.5512 179.754 32.9792 187.472C14.0342 206.781 8.21415 221.072 3.44915 235.421C-0.62385 247.682 -0.714032 270.57 1.23797 299.654Z" fill="url(#paint3_linear_2863_19784)"/>
<path opacity="0.1" d="M38.0133 228.188C45.2133 221.836 47.7194 234.833 42.3964 242.348C37.0734 249.863 50.5402 271.306 50.5402 271.306L51.9772 267.606C51.8002 266.452 51.5964 265.317 51.3654 264.206C50.7004 260.967 49.8653 257.898 49.0763 254.988C42.3963 230.448 80.2173 188.388 66.7853 175.503C65.7525 174.485 64.5854 173.613 63.3163 172.912C59.3683 170.801 55.3752 171.555 50.1322 174.394C50.1322 174.394 67.5574 176.894 62.0214 187.862C56.4854 198.83 45.6782 205.233 36.9132 213.067C28.1482 220.901 30.8133 234.532 38.0133 228.188Z" fill="#231F20"/>
<path d="M4.03623 310.997C4.11523 319.911 11.1173 327.843 20.7643 333.197C21.0773 333.371 21.3921 333.538 21.7071 333.705C22.0751 333.91 22.4542 334.105 22.8402 334.3H22.8531C30.5631 338.207 38.6462 340.608 43.5882 340.925C60.0762 341.992 105.409 325.808 123.15 320.967C140.891 316.126 158.167 307.329 164.507 296.702C167.758 291.249 170.034 288.016 172.36 285.784C172.541 285.612 172.719 285.448 172.895 285.29H172.902C173.444 284.8 174.018 284.348 174.621 283.935C176.321 282.804 178.137 281.859 180.039 281.115C182.073 280.342 184.024 279.368 185.864 278.207C188.164 276.619 189.285 274.694 187.9 271.962C187.21 270.928 186.464 269.934 185.664 268.983C185.278 268.576 184.891 268.169 184.518 267.766C181.73 264.766 176.591 263.271 176.591 263.271C175.044 262.562 173.367 262.177 171.665 262.139C171.202 262.13 170.733 262.139 170.249 262.177C167.265 262.491 164.368 263.374 161.715 264.777L161.695 264.771L161.686 264.776C161.029 264.723 160.42 264.649 159.853 264.558C155.247 263.791 152.98 261.659 148.082 258.597C142.572 255.141 131.732 249.182 112.518 262.097C93.3232 274.991 85.2403 279.597 78.3753 278.93C75.4623 278.657 64.5443 279.772 51.9093 282.642C50.7883 282.893 49.6473 283.16 48.5033 283.442C32.9443 287.291 15.6842 293.75 7.81015 303.473C7.70015 303.6 7.39427 304.023 7.00327 304.609L6.96518 304.663C5.84018 306.354 4.02123 309.381 4.03623 310.997Z" fill="url(#paint4_linear_2863_19784)"/>
<path opacity="0.1" d="M4.03623 310.998C4.11523 319.912 11.1173 327.844 20.7643 333.198C21.0773 333.372 21.3921 333.539 21.7071 333.706C22.0751 333.911 22.4542 334.106 22.8402 334.301H22.8531C30.5631 338.208 38.6462 340.609 43.5882 340.926C60.0762 341.993 105.409 325.809 123.15 320.968C140.891 316.127 158.167 307.33 164.507 296.703C167.758 291.25 170.569 287.524 172.895 285.291C170.909 281.269 165.621 282.081 165.621 282.081C165.621 282.081 147.232 291.604 136.766 302.224C122.217 316.994 83.3663 320.49 68.0113 313.311C58.8193 309.017 47.0852 305.311 39.4862 306.188C35.2572 306.672 33.0141 308.937 34.6241 313.804C35.0241 315.036 38.4523 323.047 35.4413 326.198C30.7823 331.067 22.4093 326.816 16.4583 322.015C9.43334 316.355 6.98511 311.889 7.09311 304.498L7.00327 304.608L6.96518 304.662C5.84018 306.355 4.02123 309.382 4.03623 310.998Z" fill="#231F20"/>
<path d="M173.144 256.881C173.144 256.881 180.073 249.737 182.352 243.098C184.631 236.459 187.504 231.009 190.279 229.126C193.054 227.243 198.305 221.298 198.206 215.254C198.107 209.21 203.359 210.597 204.548 215.254C205.737 219.911 205.836 225.554 200.485 232.595C195.134 239.636 201.674 240.72 207.52 239.333C213.366 237.946 220.798 235.666 220.997 243.99C221.196 252.314 221.497 263.907 219.312 269.357C217.127 274.807 207.421 279.757 197.712 278.671C188.003 277.585 183.74 277.878 183.74 277.878L173.144 256.881Z" fill="#FA997B"/>
<path d="M172.735 285.241H172.742C173.292 284.757 173.871 284.307 174.475 283.893C176.053 282.808 178.33 282.5 180.486 281.617C186.019 279.354 191.579 279.212 189.221 274.617C189.113 274.398 186.98 270.558 186.871 270.426C186.511 269.949 176.457 256.343 176.071 255.934C173.239 252.96 169.09 257.925 161.346 264.665C160.673 264.613 161.058 266.87 161.072 267.983C161.369 271.371 161.073 285.178 172.735 285.241Z" fill="#40847D"/>
<path d="M142.455 255.701C142.455 255.701 129.88 248.69 111.008 262.765C92.5196 276.553 86.0077 279.651 77.3887 279.428C71.5072 279.395 65.6395 280.001 59.8887 281.234C59.8887 281.234 72.4656 280.57 76.7996 281.489C81.1336 282.408 96.6177 278.611 113.471 264.724C120.897 258.76 138.724 253.893 142.455 255.701Z" fill="#40847D"/>
<path d="M35.8677 101.05C35.6827 86.8706 39.5517 72.5896 47.4897 61.6646C55.1267 51.1546 66.8537 44.9427 80.7707 44.5567C94.6877 44.1707 105.471 48.5566 114.09 56.9566C123.59 66.2136 128.251 79.9725 127.134 93.1885C126.644 98.9885 125.122 104.669 124.834 110.479C124.306 120.99 127.774 131.905 124.308 141.841C121.318 150.411 113.427 156.664 104.757 159.35C96.0866 162.036 86.7196 161.55 77.8086 159.815C65.1846 157.364 54.6856 148.393 47.2576 138.068C39.8416 127.771 36.0427 114.455 35.8677 101.05Z" fill="#FA997B"/>
<path d="M96.6853 139.731C93.7537 140.034 90.7911 139.738 87.9778 138.859C85.1644 137.981 82.5591 136.54 80.3203 134.623C80.3226 136.643 80.9645 138.609 82.1541 140.241C83.3436 141.873 85.0196 143.087 86.9414 143.707C93.8014 146.029 96.6853 139.731 96.6853 139.731Z" fill="white"/>
<path d="M89.8311 147.294C87.8266 147.353 85.8551 146.775 84.2002 145.643" stroke="#D26665" stroke-linecap="round" stroke-linejoin="round"/>
<path d="M76.3208 90.7386C82.2548 88.5926 86.4449 91.9386 86.9419 95.2256C83.9077 94.4367 80.7392 94.3104 77.6519 94.8555C74.1178 95.4286 70.6936 96.5442 67.5 98.1626C69.5389 94.781 72.6407 92.1702 76.3208 90.7386Z" fill="#1A1A1A"/>
<path d="M111.779 90.7386C105.845 88.5926 101.655 91.9386 101.158 95.2256C104.192 94.4366 107.361 94.3103 110.448 94.8555C113.982 95.4286 117.407 96.5442 120.6 98.1626C118.561 94.781 115.459 92.1702 111.779 90.7386Z" fill="#1A1A1A"/>
<path d="M120.755 127.155C131.72 127.155 140.608 118.267 140.608 107.302C140.608 96.3377 131.72 87.4492 120.755 87.4492C109.791 87.4492 100.902 96.3377 100.902 107.302C100.902 118.267 109.791 127.155 120.755 127.155Z" fill="white" fill-opacity="0.2" stroke="#D0D2D3" stroke-miterlimit="10"/>
<path opacity="0.3" d="M106.556 94.4531L127.792 125.323C128.733 124.986 129.638 124.554 130.492 124.032C132.358 122.886 134.044 121.467 135.492 119.823L114.223 88.873C111.252 90.0834 108.621 91.9986 106.556 94.4531Z" fill="url(#paint5_linear_2863_19784)"/>
<path opacity="0.3" d="M102.269 102.353L117.884 126.412C119.108 126.61 120.351 126.674 121.59 126.603C122.09 126.603 123.596 126.403 123.606 126.396L104.319 97.1641C103.969 97.7927 103.656 98.4403 103.379 99.104C102.893 100.144 102.521 101.233 102.269 102.353Z" fill="url(#paint6_linear_2863_19784)"/>
<path d="M151.871 76.0193C144.871 84.0893 140.001 92.5793 129.241 94.2593C104.221 98.1593 73.7014 76.1994 69.4514 67.3694C66.1114 98.7294 47.7014 97.0093 41.9614 107.519C39.6514 111.749 34.9913 114.529 33.5813 119.089C28.1313 108.649 23.3114 97.7295 21.5314 86.1695C19.7514 74.6095 19.3713 60.5193 29.1613 49.9693C38.9513 39.4193 52.7912 41.9693 52.7912 41.9693C52.7912 41.9693 71.1214 26.8694 88.5014 25.6194C107.601 24.2394 116.631 26.2495 128.951 42.9495C135.211 51.4395 144.031 76.9293 151.851 76.0193H151.871Z" fill="url(#paint7_linear_2863_19784)"/>
<path d="M51.2901 102.326H32.3311" stroke="#D0D2D3" stroke-miterlimit="10"/>
<path d="M27.9123 117.333C31.4763 126.92 40.2123 132.649 44.5973 130.518C47.9973 128.864 48.5354 122.48 46.5544 114.818C44.5734 107.156 38.8544 97.4181 33.0754 98.8721C27.2964 100.326 24.3433 107.746 27.9123 117.333Z" fill="#FA997B"/>
<path d="M41.1128 113.013C42.6658 115.513 42.759 118.278 41.313 119.178C39.867 120.078 37.429 118.778 35.866 116.269C34.321 113.763 34.2318 111 35.6748 110.104C37.1178 109.208 39.5598 110.502 41.1128 113.013Z" fill="#EF5D23"/>
<path d="M103.987 110.429C103.987 110.429 103.079 103.68 107.387 101.321C111.695 98.9617 117.059 102.081 115.545 106.271L103.987 110.429Z" fill="#1A1A1A"/>
<path d="M104.213 111.253C105.043 113.744 113.444 113.825 115.577 108.971C117.71 104.117 113.377 99.9203 109.353 101.147C108.334 101.446 107.387 101.95 106.57 102.628C105.753 103.306 105.084 104.144 104.602 105.091C104.121 106.037 103.838 107.072 103.771 108.132C103.704 109.192 103.855 110.254 104.213 111.253Z" fill="white"/>
<path d="M108.496 107.47C108.451 107.27 108.418 107.067 108.396 106.862C108.197 106.053 108.282 105.2 108.637 104.446C108.781 104.09 108.975 103.757 109.214 103.457C110.43 101.957 112.235 102.101 113.746 102.993C114.182 103.267 114.55 103.635 114.823 104.071C115.096 104.506 115.266 104.998 115.322 105.509C115.459 105.898 115.533 106.307 115.542 106.719C115.595 107.569 115.317 108.405 114.765 109.054C114.214 109.702 113.432 110.111 112.585 110.194C111.692 110.293 110.793 110.074 110.045 109.576C109.298 109.078 108.749 108.332 108.496 107.47Z" fill="#1A1A1A"/>
<path d="M83.2135 110.429C83.2135 110.429 84.1216 103.68 79.8136 101.321C75.5056 98.9617 70.0806 102.081 71.5956 106.271L83.2135 110.429Z" fill="#1A1A1A"/>
<path d="M82.9803 111.253C82.1513 113.744 73.7493 113.825 71.6173 108.971C69.4853 104.117 73.8172 99.9203 77.8402 101.147C78.8592 101.446 79.8062 101.95 80.6234 102.628C81.4405 103.306 82.1105 104.144 82.5919 105.091C83.0733 106.037 83.3559 107.072 83.4227 108.132C83.4895 109.191 83.339 110.254 82.9803 111.253Z" fill="white"/>
<path d="M75.6934 108.617C75.6208 108.425 75.5586 108.229 75.5074 108.03C75.1918 107.259 75.1515 106.403 75.3933 105.605C75.4825 105.232 75.626 104.874 75.8194 104.542C76.8034 102.884 78.6094 102.759 80.2354 103.42C80.7058 103.628 81.1233 103.938 81.4568 104.329C81.7903 104.721 82.0311 105.182 82.1614 105.679C82.3554 106.044 82.4903 106.437 82.5613 106.844C82.7377 107.677 82.5843 108.546 82.1331 109.267C81.6819 109.989 80.9682 110.508 80.1424 110.714C79.2726 110.944 78.3499 110.859 77.5362 110.476C76.7224 110.092 76.0699 109.434 75.6934 108.617Z" fill="#1A1A1A"/>
<path d="M113.313 104.819C113.313 105.013 113.39 105.199 113.527 105.336C113.664 105.473 113.85 105.55 114.044 105.55C114.238 105.55 114.423 105.473 114.56 105.336C114.697 105.199 114.774 105.013 114.774 104.819C114.767 104.599 114.684 104.388 114.54 104.221C114.396 104.054 114.199 103.942 113.982 103.902C113.579 103.902 113.313 104.415 113.313 104.819Z" fill="white"/>
<path d="M80.1753 105.643C80.1717 105.741 80.1881 105.839 80.2232 105.93C80.2582 106.022 80.3112 106.106 80.3794 106.177C80.4476 106.248 80.5294 106.304 80.6199 106.342C80.7103 106.381 80.8075 106.401 80.9058 106.401C81.004 106.401 81.1015 106.381 81.1919 106.342C81.2823 106.304 81.3639 106.248 81.4321 106.177C81.5003 106.106 81.5536 106.022 81.5886 105.93C81.6237 105.839 81.6401 105.741 81.6365 105.643C81.6286 105.422 81.5456 105.212 81.4014 105.045C81.2571 104.878 81.0601 104.766 80.8433 104.727C80.4403 104.727 80.1753 105.24 80.1753 105.643Z" fill="white"/>
<path d="M96.1968 113.988C96.1968 113.988 95.604 118.495 96.511 120.098C97.418 121.701 100.185 122.998 99.0679 126.328C97.7529 130.243 94.043 128.566 94.043 128.566" stroke="#D26665" stroke-linecap="round" stroke-linejoin="round"/>
<path d="M90.4658 107.944C90.4658 107.944 95.6189 102.915 100.648 107.944" stroke="#D0D2D3" stroke-linecap="round" stroke-linejoin="round"/>
<path d="M115.045 189.129C115.045 189.129 123.177 203.666 131.91 222.06C132.567 206.766 121.443 197.455 115.045 189.129Z" fill="#40847D"/>
<path d="M50.7637 107.299C50.7575 109.908 51.2665 112.493 52.2618 114.904C53.257 117.316 54.7189 119.507 56.5633 121.353C58.4076 123.198 60.5982 124.661 63.0093 125.657C65.4205 126.654 68.0046 127.164 70.6136 127.159C71.2636 127.159 71.9138 127.129 72.5538 127.069C72.5679 127.071 72.5821 127.067 72.5938 127.059C74.0955 126.914 75.5753 126.595 77.0037 126.109C77.9416 125.784 78.8541 125.389 79.7337 124.929C83.685 122.886 86.8355 119.574 88.6795 115.526C90.5235 111.478 90.9541 106.928 89.9024 102.605C88.8507 98.283 86.3775 94.4392 82.8797 91.6907C79.3819 88.9423 75.062 87.4488 70.6136 87.4493C68.0371 87.4424 65.485 87.9454 63.1038 88.9293C60.1322 90.1392 57.4995 92.0542 55.4336 94.5091C54.5991 95.5025 53.8624 96.5743 53.2337 97.7093C52.2749 99.4385 51.5837 101.303 51.1836 103.239C50.92 104.472 50.7828 105.728 50.7737 106.989C50.7637 107.089 50.7637 107.199 50.7637 107.299Z" fill="white" fill-opacity="0.2" stroke="#D0D2D3" stroke-miterlimit="10"/>
<path opacity="0.3" d="M55.6484 94.9685L76.7283 125.649C77.6662 125.323 78.579 124.929 79.4585 124.469C81.4196 123.458 83.1973 122.127 84.7183 120.529L63.3184 89.3887C60.3467 90.5986 57.7143 92.5136 55.6484 94.9685Z" fill="url(#paint8_linear_2863_19784)"/>
<path opacity="0.3" d="M51.6777 103.443L66.5176 126.219C67.8158 126.498 69.138 126.649 70.4656 126.672C71.1156 126.672 72.4356 126.582 72.4456 126.572L53.7275 97.9141C52.7688 99.6429 52.0778 101.507 51.6777 103.443Z" fill="url(#paint9_linear_2863_19784)"/>
<path d="M29.6338 49.4768C29.6338 49.4768 37.364 37.0769 47.427 39.7859C53.137 41.3239 52.979 42.2649 52.979 42.2649C52.979 42.2649 51.7479 37.9818 60.7139 35.5288C68.7999 33.3168 61.9449 28.7368 76.5549 26.7378C82.1549 24.4698 80.4478 27.0859 86.4548 25.8299" stroke="#707070" stroke-width="1.097" stroke-linecap="round" stroke-linejoin="round"/>
<path d="M151.871 76.019C144.871 84.089 140.001 92.579 129.241 94.259C104.221 98.159 73.7012 76.1991 69.4512 67.3691C69.4512 67.3691 113.831 95.469 135.491 85.769C145.951 81.209 149.151 77.349 151.851 76.019H151.871Z" fill="url(#paint10_linear_2863_19784)"/>
</g>
<defs>
<linearGradient id="paint0_linear_2863_19784" x1="125.291" y1="242.186" x2="203.609" y2="242.186" gradientUnits="userSpaceOnUse">
<stop stop-color="#479387"/>
<stop offset="1" stop-color="#2FD4E5"/>
</linearGradient>
<linearGradient id="paint1_linear_2863_19784" x1="31.8398" y1="106.136" x2="137.943" y2="106.136" gradientUnits="userSpaceOnUse">
<stop stop-color="#A9453E"/>
<stop offset="0.235" stop-color="#A64339"/>
<stop offset="0.512" stop-color="#9D3F2A"/>
<stop offset="0.809" stop-color="#8F3913"/>
<stop offset="1" stop-color="#843400"/>
</linearGradient>
<linearGradient id="paint2_linear_2863_19784" x1="-5849.99" y1="230.249" x2="-5747.15" y2="230.249" gradientUnits="userSpaceOnUse">
<stop stop-color="#479387"/>
<stop offset="1" stop-color="#2FD4E5"/>
</linearGradient>
<linearGradient id="paint3_linear_2863_19784" x1="-5773.17" y1="253.56" x2="-5703.48" y2="253.56" gradientUnits="userSpaceOnUse">
<stop stop-color="#479387"/>
<stop offset="1" stop-color="#2FD4E5"/>
</linearGradient>
<linearGradient id="paint4_linear_2863_19784" x1="-5089.54" y1="-459.685" x2="-5137.76" y2="-601.067" gradientUnits="userSpaceOnUse">
<stop stop-color="#479387"/>
<stop offset="1" stop-color="#2FD4E5"/>
</linearGradient>
<linearGradient id="paint5_linear_2863_19784" x1="-5757.53" y1="107.098" x2="-5728.6" y2="107.098" gradientUnits="userSpaceOnUse">
<stop stop-color="white" stop-opacity="0"/>
<stop offset="1" stop-color="white"/>
</linearGradient>
<linearGradient id="paint6_linear_2863_19784" x1="-5746.25" y1="111.898" x2="-5724.91" y2="111.898" gradientUnits="userSpaceOnUse">
<stop stop-color="white" stop-opacity="0"/>
<stop offset="1" stop-color="white"/>
</linearGradient>
<linearGradient id="paint7_linear_2863_19784" x1="20.54" y1="72.1765" x2="151.871" y2="72.1765" gradientUnits="userSpaceOnUse">
<stop stop-color="#A9453E"/>
<stop offset="0.235" stop-color="#A64339"/>
<stop offset="0.512" stop-color="#9D3F2A"/>
<stop offset="0.809" stop-color="#8F3913"/>
<stop offset="1" stop-color="#843400"/>
</linearGradient>
<linearGradient id="paint8_linear_2863_19784" x1="-5707.36" y1="107.519" x2="-5678.29" y2="107.519" gradientUnits="userSpaceOnUse">
<stop stop-color="white" stop-opacity="0"/>
<stop offset="1" stop-color="white"/>
</linearGradient>
<linearGradient id="paint9_linear_2863_19784" x1="-5695.09" y1="112.293" x2="-5674.32" y2="112.293" gradientUnits="userSpaceOnUse">
<stop stop-color="white" stop-opacity="0"/>
<stop offset="1" stop-color="white"/>
</linearGradient>
<linearGradient id="paint10_linear_2863_19784" x1="69.1215" y1="80.3054" x2="147.493" y2="99.6334" gradientUnits="userSpaceOnUse">
<stop stop-color="#843400"/>
<stop offset="0.191" stop-color="#8F3913"/>
<stop offset="0.488" stop-color="#9D3F2A"/>
<stop offset="0.765" stop-color="#A64339"/>
<stop offset="1" stop-color="#A9453E"/>
</linearGradient>
<clipPath id="clip0_2863_19784">
<rect width="398.762" height="340.979" fill="white"/>
</clipPath>
<clipPath id="clip1_2863_19784">
<rect width="95" height="95" fill="white" transform="translate(286 27)"/>
</clipPath>
</defs>
</svg>
