<svg width="410" height="370" viewBox="0 0 410 370" fill="none" xmlns="http://www.w3.org/2000/svg">
<path d="M377.66 0V320.37L338.46 314.79L216.37 297.41L48.6604 273.54L48.2305 150.68C64.0896 154.979 80.9049 154.124 96.246 148.238C111.587 142.352 124.659 131.74 133.573 117.936C142.486 104.132 146.779 87.8517 145.831 71.4475C144.884 55.0434 138.744 39.3656 128.3 26.6802L377.66 0Z" fill="#D8F6F8"/>
<path d="M380.7 308.03C360.82 320.62 359.11 300.02 359.11 300.02C359.11 300.02 354.63 281.33 349.8 257.89C315.87 266.57 260.75 271.3 260.75 271.3C260.75 271.3 204.33 252.95 199.11 249.65C168.52 230.36 205.794 218.49 197.224 192.48C190.044 170.67 200.51 117.29 210.39 93.9403C220.27 70.5903 228.484 65.7533 274.31 47.0643C330.148 24.2933 365.75 52.9162 358.55 96.9962C357.63 102.666 356.35 107.552 356.18 111.896C355.192 136.563 377.51 130.276 379.14 153.196C380.63 174.006 411.93 193.527 409.459 241.177C408.782 254.24 400.87 260.71 405.81 282.24C407.8 290.92 394.17 312.1 380.7 308.03Z" fill="url(#paint0_linear_2863_19590)"/>
<path d="M359.225 133.595C353.144 142.82 317.131 127.201 317.131 127.201L267.225 71.3929L277.095 33.4139C277.095 33.4139 282.195 39.7138 292.901 36.9708C296.801 35.9708 301.561 32.7809 307.201 29.7809L307.211 29.7708C318.751 23.6308 333.961 18.301 352.991 34.181C362.701 42.291 366.191 53.5409 366.561 65.1209C367.021 79.2909 362.831 93.941 359.721 103.911C354.071 122.031 363.275 127.451 359.225 133.595Z" fill="url(#paint1_linear_2863_19590)"/>
<path opacity="0.5" d="M267.225 61.359C267.225 61.359 268.769 26.064 277.095 33.413C291.572 52.413 281.635 63.826 329.12 80.113C359.343 90.478 340.99 136.513 343.791 151.542C348.744 178.116 411.439 205.802 392.291 255.675C390.891 259.331 296.52 212.593 296.52 212.593L270.982 217.655L267.225 61.359Z" fill="#161616"/>
<path opacity="0.5" d="M226.401 236.006C226.401 236.006 213.746 218.995 222.165 199.535C228.401 185.123 223.255 162.594 224.636 145.435C227.695 107.421 239.577 105.744 239.577 105.744L264.989 161.186C264.989 161.186 281.089 174.602 280.449 192.481C279.809 210.36 241.93 255.535 226.401 236.006Z" fill="#161616"/>
<path d="M280.469 171.242L279.709 211.596C279.709 211.596 315.003 187.596 325.592 194.89C316.415 173.714 312.755 151.169 309.931 138.934C302.872 147.172 286.116 171.48 280.469 171.242Z" fill="#FA997B"/>
<path d="M280.28 181.223C280.28 181.223 305.212 168.289 312.247 149.723C299.077 160.096 280.468 173.278 280.468 173.278L280.28 181.223Z" fill="#EF5D23"/>
<path d="M338.69 311.23C338.58 312.41 338.51 313.59 338.46 314.79L229.816 303.476C235.276 284.706 235.798 263.011 248.098 236.835C254.177 223.896 264.106 198.453 275.518 195.564C282.491 193.8 284.249 201.609 295.53 200.364C307.106 199.082 319.804 178.564 325.274 181.517C351.034 195.433 344.07 252.56 338.69 311.23Z" fill="url(#paint2_linear_2863_19590)"/>
<path d="M262.807 63.9883C262.807 63.9883 253.317 84.5175 246.345 87.6165C239.373 90.7155 227.945 102.528 230.077 123.057C232.209 143.586 244.01 173.068 267.161 175.268C290.401 177.476 308.561 158.295 321.73 135.829C332.188 116.075 317.421 91.1022 304.446 86.6472C293.356 82.8422 265.131 74.8343 262.807 63.9883Z" fill="#FA997B"/>
<path d="M241.774 97.4171C241.774 97.4171 247.597 90.5021 253.517 97.4171" stroke="#1A1A1A" stroke-width="1.918" stroke-linecap="round" stroke-linejoin="round"/>
<path d="M391.26 325.01C390.237 333.443 387.755 341.635 383.924 349.218C383.914 349.248 352.034 366.444 345.414 365.134C343.044 364.674 340.514 367.39 338.74 360.74C338.12 358.43 337.53 355.89 336.96 353.16C336.54 351.12 336.13 348.97 335.75 346.73C334.87 341.58 334.12 335.97 333.57 330.15C332.36 317.26 332.15 303.32 333.77 290.92C333.86 290.24 333.96 289.56 334.07 288.89C334.27 287.59 334.5 286.31 334.76 285.06C335.51 281.41 336.45 277.95 337.34 274.67C344.87 247.01 302.24 199.6 317.38 185.08C318.544 183.932 319.86 182.95 321.29 182.16C325.74 179.78 330.24 180.63 336.15 183.83C341.35 186.64 347.64 191.28 355.93 197.12C381.81 215.38 383.17 223.37 389.5 240.49C394.547 254.16 393.46 292.23 391.26 325.01Z" fill="url(#paint3_linear_2863_19590)"/>
<path style="mix-blend-mode:overlay" opacity="0.5" d="M349.81 244.46C341.69 237.3 338.87 251.95 344.87 260.42C350.87 268.89 335.69 293.06 335.69 293.06L334.07 288.89C334.27 287.59 334.5 286.31 334.76 285.06C335.51 281.41 336.45 277.95 337.34 274.67C344.87 247.01 302.24 199.6 317.38 185.08C318.544 183.932 319.86 182.95 321.29 182.16C325.74 179.78 330.24 180.63 336.15 183.83C336.15 183.83 316.51 186.65 322.75 199.01C328.99 211.37 341.17 218.59 351.05 227.42C360.93 236.25 357.93 251.61 349.81 244.46Z" fill="url(#paint4_linear_2863_19590)"/>
<path d="M180.118 208.585L157.829 226.415C157.829 226.415 155.894 225.578 153.238 224.165C147.302 221.002 137.769 214.987 138.348 209.144C139.192 200.697 137.421 196.215 139.994 190.588C141.924 186.341 139.551 184.576 136.008 181.237C132.929 178.33 122.333 171.994 122.526 166.669C122.552 165.816 122.861 164.996 123.403 164.337C126.503 160.389 136.729 167.646 144.254 175.755C151.779 183.864 161.516 187.563 163.716 188.022C165.916 188.481 172.36 192.039 176.216 196.167C177.735 197.825 178.871 199.797 179.546 201.942C180.22 204.088 180.415 206.355 180.118 208.585Z" fill="#FA997B"/>
<path opacity="0.06" d="M158.448 227.223C144.948 219.635 137.773 214.988 138.348 209.145C139.192 200.698 137.421 196.216 139.994 190.589C141.924 186.342 139.551 184.577 136.008 181.238C132.929 178.331 122.333 171.995 122.526 166.67C123.583 171.536 133.87 178.018 137.681 180.791C141.832 183.812 143.397 187.564 141.938 191.183C140.479 194.802 140.097 201.635 140.868 207.545C141.639 213.455 156.915 223.312 156.915 223.312C157.048 223.843 158.419 226.775 158.448 227.223Z" fill="black"/>
<path d="M70.9457 141.63C106.553 141.63 135.419 112.764 135.419 77.1566C135.419 41.5491 106.553 12.6836 70.9457 12.6836C35.3382 12.6836 6.47266 41.5491 6.47266 77.1566C6.47266 112.764 35.3382 141.63 70.9457 141.63Z" fill="#D8F6F8"/>
<path d="M106.079 45.9531H25.9229V89.5329H106.079V45.9531Z" fill="#E6E9ED"/>
<path d="M106.079 43.127H25.9229V45.9524H106.079V43.127Z" fill="#A0D468"/>
<path d="M101.859 50.1719H30.1406V61.4218H101.859V50.1719Z" fill="#48CFAD"/>
<path d="M66 96.5645C67.1673 96.5645 68.1092 97.5065 68.1092 98.6738C68.1092 99.8411 67.1673 100.783 66 100.783C64.8327 100.783 63.8906 99.8411 63.8906 98.6738C63.8906 97.5065 64.8327 96.5645 66 96.5645Z" fill="#48CFAD"/>
<path d="M110.297 99.4043V102.189C110.297 104.565 108.454 106.408 106.078 106.408C105.079 106.408 91.1296 106.408 75.1266 106.408C69.1366 106.408 62.8639 106.408 56.8731 106.408C40.8701 106.408 26.9202 106.408 25.9218 106.408C23.5454 106.408 21.7031 104.565 21.7031 102.189V99.4043C21.7031 101.725 23.6017 103.623 25.9218 103.623H65.9997H106.078C108.399 103.623 110.297 101.725 110.297 99.4043Z" fill="#CCD1D9"/>
<path d="M75.1266 106.408L77.9391 119.064H54.0605L56.873 106.408C62.8641 106.408 69.1366 106.408 75.1266 106.408Z" fill="#CCD1D9"/>
<g opacity="0.5">
<path d="M56.2489 109.221L54.0605 119.064H56.873L59.0613 109.221H56.2489Z" fill="white"/>
</g>
<g opacity="0.1">
<path d="M75.75 109.221L77.9388 119.064H75.1263L72.9375 109.221H75.75Z" fill="black"/>
</g>
<g opacity="0.5">
<path d="M26.178 103.623H25.9219C23.6017 103.623 21.7031 101.725 21.7031 99.4043V102.189C21.7031 104.565 23.5454 106.408 25.9219 106.408C26.226 106.408 27.7429 106.408 30.1406 106.408C28.2737 106.408 26.7514 105.262 26.178 103.623Z" fill="white"/>
</g>
<g opacity="0.1">
<path d="M105.823 103.623H106.078C108.399 103.623 110.297 101.725 110.297 99.4043V102.189C110.297 104.565 108.454 106.408 106.078 106.408C105.773 106.408 104.257 106.408 101.859 106.408C103.727 106.408 105.249 105.262 105.823 103.623Z" fill="black"/>
</g>
<path d="M110.297 93.752V99.4043C110.297 101.725 108.399 103.623 106.078 103.623H66V100.783C67.1673 100.783 68.1092 99.8411 68.1092 98.6738C68.1092 97.5065 67.1673 96.5644 66 96.5644V93.752H110.297Z" fill="#F5F7FA"/>
<path d="M65.9999 100.783V103.623H25.9219C23.6017 103.623 21.7031 101.725 21.7031 99.4042V99.3767V93.752H65.9999V96.5644C64.8326 96.5644 63.8906 97.5065 63.8906 98.6738C63.8906 99.8411 64.8326 100.783 65.9999 100.783Z" fill="#F5F7FA"/>
<path d="M25.9219 99.4043V99.3769V93.752H21.7031V99.3769V99.4043C21.7031 101.725 23.6017 103.623 25.9219 103.623H30.1406C27.8204 103.623 25.9219 101.725 25.9219 99.4043Z" fill="white"/>
<path d="M110.297 43.1543V93.7512H65.9999H21.7031V43.1543C21.7031 40.8343 23.6017 38.9355 25.9219 38.9355H106.078C108.399 38.9355 110.297 40.8343 110.297 43.1543ZM106.078 89.5325V45.9388V43.1261H103.265H100.453H96.2341H93.4216H90.6092H87.7967H84.9842H54.0469H48.4219H42.7969H37.172H31.5468H25.9219V45.9386V89.5323L106.078 89.5325Z" fill="#00B4BE"/>
<g opacity="0.2">
<path d="M25.9218 45.9388V43.1543V43.1261H25.9247C25.9405 40.8192 27.8301 38.9355 30.1408 38.9355H25.9218C23.6017 38.9355 21.7031 40.8343 21.7031 43.1543V93.7512H25.9218V89.5325V45.9388Z" fill="white"/>
</g>
<g opacity="0.3">
<path d="M106.078 45.9388V43.1543V43.1261H106.075C106.059 40.8192 104.17 38.9355 101.859 38.9355H106.078C108.399 38.9355 110.297 40.8343 110.297 43.1543V93.7512H106.078V89.5325V45.9388H106.078Z" fill="black"/>
</g>
<g opacity="0.1">
<path d="M75.7515 109.221L75.1265 106.408C69.1365 106.408 62.8638 106.408 56.8729 106.408L56.248 109.221H75.7515Z" fill="black"/>
</g>
<path d="M106.078 119.078C103.702 119.078 92.9854 119.078 90.6093 119.078C88.2336 119.078 86.3906 117.235 86.3906 114.859V112.047C86.4043 114.354 88.3024 116.238 90.6093 116.238H106.078C108.386 116.238 110.269 114.368 110.297 112.074V114.859C110.297 117.235 108.454 119.078 106.078 119.078Z" fill="#5D9CEC"/>
<g opacity="0.3">
<path d="M89.3803 116.032C87.6692 115.502 86.4017 113.923 86.3906 112.047V114.859C86.3906 117.235 88.2336 119.078 90.6094 119.078C91.1616 119.078 92.1777 119.078 93.4218 119.078C91.4582 119.078 89.8762 117.811 89.3803 116.032Z" fill="white"/>
</g>
<g opacity="0.2">
<path d="M107.307 116.032C109.018 115.502 110.286 113.923 110.297 112.047V114.859C110.297 117.235 108.454 119.078 106.078 119.078C105.526 119.078 104.51 119.078 103.266 119.078C105.229 119.078 106.811 117.811 107.307 116.032Z" fill="black"/>
</g>
<path d="M94.8691 97.9844C94.8691 98.7575 94.2376 99.3906 93.4629 99.3906C92.6912 99.3906 92.0566 98.7575 92.0566 97.9844C92.0566 97.2113 92.6912 96.5781 93.4629 96.5781C94.2377 96.5783 94.8691 97.2111 94.8691 97.9844Z" fill="#FFCE54"/>
<path d="M97.6406 99.3633L99.709 102.498L99.0469 103.61H94.8281L97.6406 99.3633Z" fill="#E6E9ED"/>
<path d="M103.266 96.5508L107.484 103.61H99.0469L99.709 102.498L103.266 96.5508Z" fill="#F5F7FA"/>
<path d="M98.3848 112.047C99.1591 112.047 99.791 112.68 99.791 113.453C99.791 114.226 99.1591 114.859 98.3848 114.859C97.6127 114.859 96.9785 114.226 96.9785 113.453C96.9785 112.68 97.6129 112.047 98.3848 112.047Z" fill="#5D9CEC"/>
<path d="M107.484 93.7663H89.2031V103.61H94.8281H99.0468H107.484V93.7663ZM107.484 82.5162H89.2031V90.9537H107.484V82.5162H107.484ZM90.6094 76.8633H106.078C108.399 76.8633 110.297 78.7618 110.297 81.0827V112.02C110.297 112.034 110.297 112.061 110.297 112.075C110.269 114.369 108.386 116.239 106.078 116.239H90.6094C88.3024 116.239 86.4043 114.355 86.3906 112.048C86.3906 112.034 86.3906 112.034 86.3906 112.02V81.0827C86.3906 78.7618 88.2887 76.8633 90.6094 76.8633ZM99.7914 113.454C99.7914 112.681 99.1595 112.047 98.3852 112.047C97.6131 112.047 96.9789 112.681 96.9789 113.454C96.9789 114.227 97.6131 114.86 98.3852 114.86C99.1595 114.86 99.7914 114.227 99.7914 113.454Z" fill="#656D78"/>
<g opacity="0.2">
<path d="M89.2031 112.047C89.2031 112.034 89.2031 112.034 89.2031 112.02V103.61V93.7663V90.9538V82.5164V81.0827C89.2031 78.7618 91.1011 76.8633 93.4218 76.8633H90.6094C88.2887 76.8633 86.3906 78.7618 86.3906 81.0827V112.02C86.3906 112.034 86.3906 112.034 86.3906 112.048C86.4043 114.355 88.3024 116.239 90.6094 116.239H93.4218C91.1148 116.239 89.2168 114.354 89.2031 112.047Z" fill="white"/>
</g>
<g opacity="0.3">
<path d="M107.484 112.047C107.484 112.034 107.484 112.034 107.484 112.02V103.61V93.7663V90.9538V82.5164V81.0827C107.484 78.7618 105.587 76.8633 103.266 76.8633H106.078C108.399 76.8633 110.297 78.7618 110.297 81.0827V112.02C110.297 112.034 110.297 112.034 110.297 112.048C110.283 114.355 108.385 116.239 106.078 116.239H103.266C105.573 116.239 107.471 114.354 107.484 112.047Z" fill="black"/>
</g>
<path d="M93.463 99.3906C94.2377 99.3906 94.8692 98.7575 94.8692 97.9844C94.8692 97.2113 94.2377 96.5781 93.463 96.5781C92.6913 96.5781 92.0568 97.2113 92.0568 97.9844C92.0568 98.7575 92.6915 99.3906 93.463 99.3906ZM97.6406 99.3632L94.8281 103.609H89.2031V93.7656H107.484V103.609L103.266 96.5507L99.709 102.498L97.6406 99.3632Z" fill="#5D9CEC"/>
<path d="M107.484 82.5156H89.2031V90.9531H107.484V82.5156Z" fill="#48CFAD"/>
<path d="M37.172 69.8595C35.6112 69.8595 34.3595 71.1112 34.3595 72.672C34.3595 74.2328 35.6112 75.4845 37.172 75.4845C38.7328 75.4845 39.9845 74.2328 39.9845 72.672C39.9845 71.1112 38.7326 69.8595 37.172 69.8595ZM30.1406 65.6406H63.8906V85.3284H62.4844L53.3438 71.2659L46.9739 81.0534L44.2032 76.9046L38.5783 85.3284H30.1406V65.6406Z" fill="#5D9CEC"/>
<path d="M37.1719 69.8594C38.7326 69.8594 39.9843 71.1111 39.9843 72.6719C39.9843 74.2327 38.7326 75.4843 37.1719 75.4843C35.6111 75.4843 34.3594 74.2327 34.3594 72.6719C34.3594 71.1111 35.6111 69.8594 37.1719 69.8594Z" fill="#FFCE54"/>
<path d="M46.9737 81.0532L44.2031 85.328H38.5781L44.2031 76.9043L46.9737 81.0532Z" fill="#E6E9ED"/>
<path d="M53.3437 71.2656L62.4843 85.3279H44.2031L46.9738 81.0531L53.3437 71.2656Z" fill="#F5F7FA"/>
<g opacity="0.3">
<path d="M90.6094 82.5156H89.2031V90.9531H90.6094V82.5156Z" fill="white"/>
</g>
<g opacity="0.2">
<path d="M107.483 82.5156H106.077V90.9531H107.483V82.5156Z" fill="black"/>
</g>
<g opacity="0.3">
<path d="M90.6094 93.7656H89.2031V103.536H90.6094V93.7656Z" fill="white"/>
</g>
<g opacity="0.2">
<path d="M107.483 93.7656H106.077V103.536H107.483V93.7656Z" fill="black"/>
</g>
<g opacity="0.3">
<path d="M32.9531 65.6406H30.1406V85.3277H32.9531V65.6406Z" fill="white"/>
</g>
<g opacity="0.2">
<path d="M63.8906 65.6406H61.0781V85.3277H63.8906V65.6406Z" fill="black"/>
</g>
<g opacity="0.2">
<path d="M101.858 50.1719H99.0459V61.4218H101.858V50.1719Z" fill="black"/>
</g>
<g opacity="0.3">
<path d="M32.9531 50.1719H30.1406V61.4218H32.9531V50.1719Z" fill="white"/>
</g>
<path d="M28.7764 45.25C28.3883 45.25 28.0664 44.9356 28.0664 44.5469C28.0664 44.1583 28.3741 43.8438 28.7627 43.8438H28.7764C29.165 43.8438 29.4795 44.1583 29.4795 44.5469C29.4795 44.9356 29.1648 45.25 28.7764 45.25Z" fill="#3A3847"/>
<path d="M31.5889 45.25C31.2008 45.25 30.8789 44.9356 30.8789 44.5469C30.8789 44.1583 31.1866 43.8438 31.5752 43.8438H31.5889C31.9775 43.8438 32.292 44.1583 32.292 44.5469C32.292 44.9356 31.9775 45.25 31.5889 45.25Z" fill="#3A3847"/>
<path d="M34.4014 45.25C34.0133 45.25 33.6914 44.9356 33.6914 44.5469C33.6914 44.1583 33.9991 43.8438 34.3877 43.8438H34.4014C34.79 43.8438 35.1045 44.1583 35.1045 44.5469C35.1045 44.9356 34.79 45.25 34.4014 45.25Z" fill="#3A3847"/>
<path d="M84.9842 94.4414H21.7031C21.3145 94.4414 21 94.1254 21 93.7383C21 93.3483 21.3145 93.0352 21.7031 93.0352H84.9842C85.3729 93.0352 85.6875 93.3483 85.6875 93.7383C85.6875 94.1254 85.3729 94.4414 84.9842 94.4414Z" fill="#3A3847"/>
<path d="M66 101.473C64.4489 101.473 63.1875 100.211 63.1875 98.6601C63.1875 97.1083 64.4489 95.8477 66 95.8477C67.5518 95.8477 68.8125 97.1083 68.8125 98.6601C68.8125 100.211 67.5518 101.473 66 101.473ZM66 97.2537C65.2248 97.2537 64.5937 97.8841 64.5937 98.66C64.5937 99.4345 65.2248 100.066 66 100.066C66.775 100.066 67.4062 99.4345 67.4062 98.66C67.4062 97.8842 66.775 97.2537 66 97.2537Z" fill="#3A3847"/>
<path d="M54.0615 119.754C54.0107 119.754 53.9592 119.749 53.9077 119.737C53.5286 119.652 53.2904 119.276 53.3742 118.897L56.1834 106.287C56.2458 105.961 56.5308 105.705 56.8735 105.705C57.262 105.705 57.5766 106.005 57.5766 106.394V106.422C57.5766 106.474 57.5711 106.525 57.5601 106.576L54.7474 119.203C54.6741 119.531 54.3835 119.754 54.0615 119.754Z" fill="#3A3847"/>
<path d="M77.9393 119.754C77.6168 119.754 77.327 119.531 77.2528 119.203L74.4404 106.576C74.4295 106.525 74.4238 106.474 74.4238 106.422C74.4238 106.033 74.7384 105.705 75.1268 105.705C75.495 105.705 75.797 105.974 75.8273 106.333L78.626 118.897C78.7099 119.276 78.4722 119.652 78.0931 119.737C78.0409 119.749 77.9888 119.754 77.9393 119.754Z" fill="#3A3847"/>
<path d="M80.0623 119.754H51.9375C51.5488 119.754 51.2344 119.438 51.2344 119.051C51.2344 118.661 51.5488 118.348 51.9375 118.348H80.0623C80.4511 118.348 80.7653 118.661 80.7653 119.051C80.7655 119.438 80.4511 119.754 80.0623 119.754Z" fill="#3A3847"/>
<path d="M106.078 116.942H90.6092C87.912 116.942 85.704 114.747 85.6875 112.052V81.0827C85.6875 78.3683 87.8957 76.1602 90.6092 76.1602H106.078C108.792 76.1602 111 78.3685 111 81.0827V112.02C110.967 114.763 108.759 116.942 106.078 116.942ZM90.6093 77.5662C88.6705 77.5662 87.0939 79.1435 87.0939 81.0825V112.02C87.1048 113.969 88.6828 115.536 90.6093 115.536H106.078C107.993 115.536 109.571 113.978 109.594 112.067V81.0827C109.594 79.1437 108.017 77.5664 106.078 77.5664L90.6093 77.5662Z" fill="#3A3847"/>
<path d="M107.484 91.6562H89.2029C88.8145 91.6562 88.5 91.3416 88.5 90.9531V82.5156C88.5 82.127 88.8145 81.8125 89.2029 81.8125H107.484C107.873 81.8125 108.188 82.127 108.188 82.5156V90.9531C108.187 91.3416 107.873 91.6562 107.484 91.6562ZM89.9062 90.2501H106.781V83.2189H89.9062V90.2501Z" fill="#3A3847"/>
<path d="M107.484 104.312H89.2029C88.8145 104.312 88.5 103.998 88.5 103.609V93.7656C88.5 93.377 88.8145 93.0625 89.2029 93.0625H107.484C107.873 93.0625 108.188 93.377 108.188 93.7656V103.609C108.187 103.998 107.873 104.312 107.484 104.312ZM89.9062 102.906H106.781V94.4689H89.9062V102.906Z" fill="#3A3847"/>
<path d="M100.453 80.4062H96.2342C95.8458 80.4062 95.5312 80.0917 95.5312 79.7031C95.5312 79.3146 95.8458 79 96.2342 79H100.453C100.842 79 101.156 79.3146 101.156 79.7031C101.156 80.0917 100.842 80.4062 100.453 80.4062Z" fill="#3A3847"/>
<path d="M104.713 86.0312H92.0565C91.6695 86.0312 91.3535 85.7167 91.3535 85.3281C91.3535 84.9396 91.6695 84.625 92.0565 84.625H104.713C105.103 84.625 105.416 84.9396 105.416 85.3281C105.416 85.7167 105.103 86.0312 104.713 86.0312Z" fill="#3A3847"/>
<path d="M101.859 88.8437H94.9129C94.5231 88.8437 94.21 88.5292 94.21 88.1406C94.21 87.7521 94.5231 87.4375 94.9129 87.4375H101.859C102.248 87.4375 102.562 87.7521 102.562 88.1406C102.562 88.5292 102.248 88.8437 101.859 88.8437Z" fill="#3A3847"/>
<path d="M98.3849 115.562C97.2233 115.562 96.2754 114.616 96.2754 113.453C96.2754 112.29 97.2233 111.344 98.3849 111.344C99.5494 111.344 100.494 112.29 100.494 113.453C100.494 114.616 99.5494 115.562 98.3849 115.562ZM98.3849 112.75C97.9976 112.75 97.6816 113.066 97.6816 113.453C97.6816 113.84 97.9976 114.156 98.3849 114.156C98.7737 114.156 99.0879 113.84 99.0879 113.453C99.0881 113.066 98.7737 112.75 98.3849 112.75Z" fill="#3A3847"/>
<path d="M107.484 107.125H89.2029C88.8145 107.125 88.5 106.81 88.5 106.422C88.5 106.033 88.8145 105.719 89.2029 105.719H107.484C107.873 105.719 108.188 106.033 108.188 106.422C108.187 106.81 107.873 107.125 107.484 107.125Z" fill="#3A3847"/>
<path d="M107.484 109.937H89.2029C88.8145 109.937 88.5 109.623 88.5 109.234C88.5 108.846 88.8145 108.531 89.2029 108.531H107.484C107.873 108.531 108.188 108.846 108.188 109.234C108.187 109.623 107.873 109.937 107.484 109.937Z" fill="#3A3847"/>
<path d="M99.0466 104.313C98.923 104.313 98.7994 104.281 98.687 104.214C98.3533 104.016 98.2446 103.583 98.4424 103.25L102.661 96.1884C102.789 95.9769 103.018 95.8477 103.265 95.8477C103.512 95.8477 103.742 95.9767 103.87 96.1896L108.088 103.25C108.286 103.582 108.179 104.013 107.844 104.214C107.511 104.41 107.08 104.301 106.88 103.969L103.265 97.9212L99.6509 103.969C99.5192 104.189 99.2855 104.313 99.0466 104.313Z" fill="#3A3847"/>
<path d="M94.8279 104.313C94.6932 104.313 94.559 104.274 94.4409 104.196C94.1167 103.981 94.0274 103.545 94.2417 103.222L97.0542 98.9747C97.1846 98.7783 97.4041 98.6602 97.6404 98.6602C97.8767 98.6602 98.0979 98.7783 98.2283 98.9761L100.295 102.111C100.508 102.437 100.42 102.872 100.096 103.085C99.7705 103.299 99.3351 103.209 99.1208 102.886L97.639 100.638L95.4144 103.997C95.2783 104.203 95.0559 104.313 94.8279 104.313Z" fill="#3A3847"/>
<path d="M44.2025 86.0312C44.0713 86.0312 43.9388 85.9955 43.8206 85.9185C43.4951 85.7069 43.4018 85.2716 43.6133 84.9463L52.7546 70.8818C52.8843 70.6826 53.1062 70.5625 53.3438 70.5625C53.5818 70.5625 53.8037 70.6828 53.9335 70.8825L63.074 84.9449C63.2856 85.2704 63.1927 85.7055 62.8673 85.9185C62.5425 86.13 62.1065 86.0366 61.8943 85.711L53.3429 72.5549L44.7927 85.7096C44.6584 85.9188 44.4332 86.0312 44.2025 86.0312Z" fill="#3A3847"/>
<path d="M38.5777 86.0309C38.4437 86.0309 38.3078 85.9924 38.1877 85.9127C37.8651 85.697 37.7777 85.2604 37.9934 84.9378L43.6184 76.5133C43.8791 76.1232 44.5274 76.1232 44.7883 76.5133L47.559 80.6614C47.7747 80.9854 47.6873 81.422 47.3647 81.6377C47.0399 81.8506 46.6039 81.7655 46.389 81.444L44.2033 78.1701L39.1633 85.7177C39.0273 85.921 38.8048 86.0309 38.5777 86.0309Z" fill="#3A3847"/>
<path d="M93.4627 100.094C92.301 100.094 91.3535 99.1474 91.3535 97.9844C91.3535 96.8211 92.301 95.875 93.4627 95.875C94.6272 95.875 95.5722 96.8211 95.5722 97.9844C95.5722 99.1473 94.6272 100.094 93.4627 100.094ZM93.4627 97.2812C93.0757 97.2812 92.7598 97.5972 92.7598 97.9844C92.7598 98.3715 93.0757 98.6875 93.4627 98.6875C93.8515 98.6875 94.166 98.3715 94.166 97.9844C94.166 97.5972 93.8515 97.2812 93.4627 97.2812Z" fill="#3A3847"/>
<path d="M37.1719 76.1875C35.2336 76.1875 33.6562 74.6101 33.6562 72.6719C33.6562 70.7336 35.2336 69.1562 37.1719 69.1562C39.1101 69.1562 40.6875 70.7336 40.6875 72.6719C40.6875 74.6101 39.1101 76.1875 37.1719 76.1875ZM37.1719 70.5625C36.0086 70.5625 35.0625 71.5088 35.0625 72.6719C35.0625 73.8349 36.0086 74.7812 37.1719 74.7812C38.3349 74.7812 39.2812 73.8349 39.2812 72.6719C39.2812 71.5088 38.3349 70.5625 37.1719 70.5625Z" fill="#3A3847"/>
<path d="M106.078 46.6562H25.9219C25.5333 46.6562 25.2188 46.3419 25.2188 45.9531C25.2188 45.5645 25.5333 45.25 25.9219 45.25H106.078C106.467 45.25 106.781 45.5645 106.781 45.9531C106.781 46.342 106.467 46.6562 106.078 46.6562Z" fill="#3A3847"/>
<path d="M101.859 62.1248H30.1406C29.752 62.1248 29.4375 61.8104 29.4375 61.4216V50.1719C29.4375 49.7833 29.752 49.4688 30.1406 49.4688H101.859C102.248 49.4688 102.562 49.7833 102.562 50.1719V61.4218C102.562 61.8106 102.248 62.1248 101.859 62.1248ZM30.8437 60.7185H101.156V50.875H30.8437V60.7185Z" fill="#3A3847"/>
<path d="M63.8906 86.0311H30.1406C29.752 86.0311 29.4375 85.7166 29.4375 85.328V65.6406C29.4375 65.252 29.752 64.9375 30.1406 64.9375H63.8906C64.2792 64.9375 64.5937 65.252 64.5937 65.6406V85.3284C64.5937 85.7166 64.2792 86.0311 63.8906 86.0311ZM30.8437 84.6251H63.1875V66.3439H30.8437V84.6251Z" fill="#3A3847"/>
<path d="M101.859 71.9687H68.1092C67.7208 71.9687 67.4062 71.6542 67.4062 71.2656C67.4062 70.877 67.7208 70.5625 68.1092 70.5625H101.859C102.248 70.5625 102.562 70.877 102.562 71.2656C102.562 71.6542 102.248 71.9687 101.859 71.9687Z" fill="#3A3847"/>
<path d="M101.859 67.75H68.1092C67.7208 67.75 67.4062 67.4356 67.4062 67.0469C67.4062 66.6583 67.7208 66.3438 68.1092 66.3438H101.859C102.248 66.3438 102.562 66.6583 102.562 67.0469C102.562 67.4354 102.248 67.75 101.859 67.75Z" fill="#3A3847"/>
<path d="M84.9843 76.1875H68.1092C67.7208 76.1875 67.4062 75.8729 67.4062 75.4844C67.4062 75.0958 67.7208 74.7812 68.1092 74.7812H84.9843C85.373 74.7812 85.6876 75.0958 85.6876 75.4844C85.6876 75.8729 85.373 76.1875 84.9843 76.1875Z" fill="#3A3847"/>
<path d="M83.578 80.4062H68.1092C67.7208 80.4062 67.4062 80.0917 67.4062 79.7031C67.4062 79.3146 67.7208 79 68.1092 79H83.578C83.9668 79 84.2813 79.3146 84.2813 79.7031C84.2813 80.0917 83.9668 80.4062 83.578 80.4062Z" fill="#3A3847"/>
<path d="M83.578 84.625H68.1092C67.7208 84.625 67.4062 84.3104 67.4062 83.9219C67.4062 83.5333 67.7208 83.2188 68.1092 83.2188H83.578C83.9668 83.2188 84.2813 83.5333 84.2813 83.9219C84.2813 84.3104 83.9668 84.625 83.578 84.625Z" fill="#3A3847"/>
<path d="M110.297 43.8437C109.908 43.8437 109.594 43.5293 109.594 43.1406C109.594 41.1364 108.083 39.625 106.078 39.625H25.9218C23.9176 39.625 22.4062 41.1364 22.4062 43.1406C22.4062 43.5293 22.0917 43.8437 21.7031 43.8437C21.3145 43.8437 21 43.5295 21 43.1406C21 40.381 23.1623 38.2188 25.9218 38.2188H106.078C108.838 38.2188 111 40.381 111 43.1406C111 43.5293 110.685 43.8437 110.297 43.8437Z" fill="#3A3847"/>
<path d="M84.9842 107.125H25.9218C23.1623 107.125 21 104.963 21 102.203V99.3906C21 99.002 21.3145 98.6875 21.7031 98.6875C22.0917 98.6875 22.4062 99.002 22.4062 99.3906V102.203C22.4062 104.208 23.9176 105.719 25.9218 105.719H84.9842C85.3729 105.719 85.6875 106.033 85.6875 106.422C85.6875 106.81 85.3729 107.125 84.9842 107.125Z" fill="#3A3847"/>
<path d="M84.9842 104.299H25.9218C23.1781 104.299 21.0158 102.146 21 99.3949V96.5645C21 96.1759 21.3145 95.8613 21.7031 95.8613C22.0917 95.8613 22.4062 96.1759 22.4062 96.5645V99.3769C22.4178 101.385 23.9292 102.893 25.9218 102.893H84.9842C85.3729 102.893 85.6875 103.207 85.6875 103.596C85.6875 103.984 85.3729 104.299 84.9842 104.299Z" fill="#3A3847"/>
<path d="M21.7031 97.2674C21.3145 97.2674 21 96.9528 21 96.5643V43.1406C21 42.752 21.3145 42.4375 21.7031 42.4375C22.0917 42.4375 22.4062 42.752 22.4062 43.1406V96.5644C22.4062 96.9528 22.0917 97.2674 21.7031 97.2674Z" fill="#3A3847"/>
<path d="M110.297 77.5937C109.908 77.5937 109.594 77.2792 109.594 76.8906V43.1406C109.594 42.752 109.908 42.4375 110.297 42.4375C110.685 42.4375 111 42.752 111 43.1406V76.8906C111 77.2792 110.685 77.5937 110.297 77.5937Z" fill="#3A3847"/>
<path d="M106.078 43.8437H25.9219C25.5333 43.8437 25.2188 43.5294 25.2188 43.1406C25.2188 42.752 25.5333 42.4375 25.9219 42.4375H106.078C106.467 42.4375 106.781 42.752 106.781 43.1406C106.781 43.5294 106.467 43.8437 106.078 43.8437Z" fill="#3A3847"/>
<path d="M84.9842 90.25H25.9219C25.5333 90.25 25.2188 89.9354 25.2188 89.5469C25.2188 89.1583 25.5333 88.8438 25.9219 88.8438H84.9842C85.373 88.8438 85.6875 89.1583 85.6875 89.5469C85.6875 89.9354 85.373 90.25 84.9842 90.25Z" fill="#3A3847"/>
<path d="M25.9219 90.2501C25.5333 90.2501 25.2188 89.9355 25.2188 89.5469V43.1406C25.2188 42.752 25.5333 42.4375 25.9219 42.4375C26.3104 42.4375 26.625 42.752 26.625 43.1406V89.5469C26.625 89.9355 26.3106 90.2501 25.9219 90.2501Z" fill="#3A3847"/>
<path d="M106.078 76.1875C105.69 76.1875 105.375 75.8729 105.375 75.4844V43.1406C105.375 42.752 105.69 42.4375 106.078 42.4375C106.467 42.4375 106.781 42.752 106.781 43.1406V75.4844C106.781 75.8729 106.467 76.1875 106.078 76.1875Z" fill="#3A3847"/>
<path d="M106.078 119.781H90.6092C87.8489 119.781 85.6875 117.62 85.6875 114.859V112.047C85.6875 111.658 86.0021 111.344 86.3904 111.344C86.7792 111.344 87.0937 111.658 87.0937 112.047V114.859C87.0937 116.864 88.6044 118.375 90.6092 118.375H106.078C108.083 118.375 109.594 116.864 109.594 114.859V112.074C109.594 111.687 109.908 111.371 110.297 111.371C110.685 111.371 111 111.687 111 112.074V114.859C111 117.62 108.838 119.781 106.078 119.781Z" fill="#3A3847"/>
<path d="M96.2342 56.5H35.7656C35.377 56.5 35.0625 56.1856 35.0625 55.7969C35.0625 55.4083 35.377 55.0938 35.7656 55.0938H96.2342C96.6229 55.0938 96.9375 55.4083 96.9375 55.7969C96.9375 56.1854 96.6229 56.5 96.2342 56.5Z" fill="#3A3847"/>
<path d="M65.9476 139.964C101.555 139.964 130.421 111.098 130.421 75.4906C130.421 39.8831 101.555 11.0176 65.9476 11.0176C30.3402 11.0176 1.47461 39.8831 1.47461 75.4906C1.47461 111.098 30.3402 139.964 65.9476 139.964Z" stroke="#00B4BE" stroke-width="2.95" stroke-miterlimit="10"/>
<path d="M254.557 113.848C254.557 113.848 255.58 106.241 250.724 103.582C245.868 100.923 239.536 102.433 241.243 107.156L254.557 113.848Z" fill="#1A1A1A"/>
<path d="M254.297 114.777C253.362 117.585 243.892 117.677 241.489 112.205C239.086 106.733 243.973 102.005 248.503 103.387C249.652 103.724 250.719 104.292 251.641 105.056C252.562 105.82 253.317 106.764 253.859 107.831C254.402 108.898 254.721 110.064 254.796 111.259C254.871 112.453 254.702 113.651 254.297 114.777Z" fill="white"/>
<path d="M249.474 110.514C249.524 110.288 249.561 110.059 249.585 109.828C249.809 108.916 249.713 107.955 249.313 107.105C249.151 106.704 248.932 106.328 248.663 105.99C247.292 104.304 245.263 104.462 243.554 105.467C243.063 105.775 242.649 106.191 242.341 106.682C242.033 107.173 241.841 107.727 241.778 108.303C241.624 108.742 241.54 109.202 241.53 109.667C241.469 110.625 241.783 111.568 242.405 112.299C243.027 113.03 243.909 113.49 244.864 113.583C245.87 113.695 246.884 113.449 247.727 112.887C248.57 112.326 249.189 111.486 249.474 110.514Z" fill="#1A1A1A"/>
<path d="M277.974 113.848C277.974 113.848 276.951 106.241 281.807 103.582C286.663 100.923 292.995 102.433 291.288 107.156L277.974 113.848Z" fill="#1A1A1A"/>
<path d="M278.234 114.777C279.169 117.585 288.639 117.677 291.042 112.205C293.445 106.733 288.558 102.005 284.028 103.387C282.879 103.724 281.812 104.292 280.891 105.056C279.97 105.82 279.215 106.765 278.672 107.831C278.129 108.898 277.811 110.065 277.735 111.259C277.66 112.454 277.829 113.651 278.234 114.777Z" fill="white"/>
<path d="M286.448 111.808C286.53 111.591 286.6 111.37 286.657 111.146C287.013 110.277 287.058 109.311 286.786 108.413C286.685 107.992 286.523 107.587 286.306 107.213C285.197 105.345 283.161 105.203 281.329 105.949C280.798 106.182 280.328 106.532 279.951 106.973C279.575 107.414 279.304 107.934 279.157 108.495C278.941 108.906 278.791 109.349 278.712 109.808C278.512 110.746 278.685 111.726 279.193 112.539C279.702 113.353 280.507 113.937 281.438 114.169C282.417 114.426 283.456 114.331 284.372 113.9C285.288 113.468 286.023 112.727 286.448 111.808Z" fill="#1A1A1A"/>
<path d="M244.048 107.525C244.048 107.744 243.962 107.953 243.807 108.108C243.652 108.262 243.443 108.349 243.224 108.349C243.006 108.349 242.796 108.262 242.642 108.108C242.487 107.953 242.4 107.744 242.4 107.525C242.409 107.277 242.503 107.039 242.665 106.851C242.828 106.663 243.05 106.537 243.294 106.492C243.748 106.492 244.048 107.07 244.048 107.525Z" fill="white"/>
<path d="M281.396 108.453C281.396 108.671 281.309 108.881 281.155 109.035C281 109.19 280.791 109.276 280.573 109.276C280.354 109.276 280.145 109.19 279.99 109.035C279.836 108.881 279.749 108.671 279.749 108.453C279.758 108.205 279.851 107.967 280.014 107.779C280.177 107.591 280.399 107.464 280.643 107.42C281.098 107.42 281.396 107.998 281.396 108.453Z" fill="white"/>
<path style="mix-blend-mode:overlay" d="M366.56 65.1209C364.64 57.7109 360.55 46.9109 352.11 39.0509C337.99 25.9209 307.2 29.7809 307.2 29.7809L307.21 29.7708C318.75 23.6308 333.96 18.301 352.99 34.181C362.7 42.291 366.19 53.5429 366.56 65.1209Z" fill="url(#paint5_linear_2863_19590)"/>
<path d="M278.147 97.3175C278.147 97.3175 283.97 90.4025 289.89 97.3175" stroke="#1A1A1A" stroke-width="1.918" stroke-linecap="round" stroke-linejoin="round"/>
<path d="M261.457 116.664C261.457 116.664 262.051 121.171 261.144 122.774C260.237 124.377 257.469 125.674 258.587 129.004C259.902 132.918 263.612 131.242 263.612 131.242" stroke="#D26665" stroke-linecap="round" stroke-linejoin="round"/>
<path d="M276.148 148.101C276.148 148.101 262.578 150.211 253.478 147.941C253.478 147.941 256.328 144.501 257.878 143.051L257.888 143.041C258.078 142.871 258.238 142.731 258.378 142.621C258.933 142.272 259.603 142.152 260.245 142.289C260.888 142.425 261.452 142.806 261.818 143.351C262.268 144.101 264.988 144.511 265.978 142.761C266.968 141.011 269.717 142.131 270.427 143.641C271.218 144.698 272.206 145.591 273.338 146.271C274.761 147.281 276.148 148.101 276.148 148.101Z" fill="#D26665"/>
<path d="M276.148 148.101C275.018 148.691 273.038 151.191 270.778 153.021C270.732 153.051 270.688 153.085 270.648 153.121C270.52 153.228 270.386 153.329 270.248 153.421C269.34 154.161 268.277 154.688 267.138 154.961C263.518 155.641 258.158 154.221 257.078 152.331C256.036 150.745 254.83 149.273 253.478 147.941C254.243 148.121 255.017 148.257 255.797 148.351C262.1 149.421 271.048 148.661 276.148 148.101Z" fill="#D26665"/>
<path d="M254.255 148.115C254.255 148.115 255.893 148.299 257.913 148.499C260.124 148.718 262.793 148.956 264.269 148.993C267.093 149.064 272.916 148.113 275.012 148.115" stroke="#BC5B5B" stroke-width="0.733" stroke-miterlimit="10"/>
<path d="M386.334 344.199C382.663 355.879 370.173 363.536 355.194 366.758C354.708 366.858 354.221 366.958 353.735 367.058C353.163 367.182 352.581 367.287 351.99 367.392H351.971C340.148 369.48 328.43 369.442 321.727 367.907C299.359 362.796 245.508 323.628 223.836 310.26C202.164 296.892 182.694 278.51 178.508 262.044C176.363 253.596 174.627 248.444 172.425 244.595C172.253 244.3 172.081 244.014 171.91 243.737H171.901C171.375 242.879 170.792 242.057 170.156 241.277C168.343 239.117 166.304 237.158 164.073 235.433C161.679 233.616 159.472 231.565 157.484 229.311C155.062 226.318 154.338 223.343 157.274 220.301C158.607 219.215 159.998 218.203 161.441 217.269C162.118 216.888 162.795 216.507 163.453 216.125C168.363 213.284 175.8 213.35 175.8 213.35C178.143 213.029 180.527 213.185 182.808 213.808C183.428 213.98 184.048 214.18 184.677 214.418C188.515 216.005 192.016 218.309 194.993 221.207H195.022L195.032 221.217C195.932 221.407 196.767 221.55 197.558 221.655C203.994 222.466 207.865 220.555 215.607 218.47C224.322 216.106 241.131 212.559 261.535 237.111C281.92 261.634 290.835 270.873 300.235 272.711C304.221 273.502 318.303 279.28 333.969 288.043C335.361 288.815 336.769 289.616 338.183 290.436C357.348 301.636 377.733 316.942 384.321 332.827C384.416 333.036 384.655 333.713 384.941 334.638L384.97 334.724C385.79 337.392 387.001 342.083 386.334 344.199Z" fill="url(#paint6_linear_2863_19590)"/>
<path style="mix-blend-mode:overlay" opacity="0.5" d="M386.334 344.198C382.663 355.878 370.173 363.535 355.194 366.757C354.708 366.857 354.221 366.957 353.735 367.057C353.163 367.181 352.581 367.286 351.99 367.391H351.971C340.148 369.479 328.43 369.441 321.727 367.906C299.359 362.795 245.508 323.627 223.836 310.259C202.164 296.891 182.694 278.509 178.508 262.043C176.363 253.595 174.627 248.443 172.425 244.594C176.677 240.094 182.875 242.394 182.875 242.394C182.875 242.394 203.536 262.169 213.214 280.256C226.667 305.408 276.962 325.345 300.275 321.979C314.224 319.968 331.319 319.739 341.083 323.886C346.517 326.194 348.596 330.056 344.506 335.815C343.476 337.274 335.715 346.445 338.461 351.775C342.713 360.013 355.556 357.734 365.396 353.775C377.009 349.113 382.053 344.212 384.866 334.458C384.885 334.506 384.913 334.572 384.942 334.639L384.971 334.725C385.79 337.391 387.001 342.082 386.334 344.198Z" fill="url(#paint7_linear_2863_19590)"/>
<path d="M171.931 243.729H171.922C171.39 242.876 170.807 242.055 170.177 241.273C168.365 239.111 166.325 237.152 164.092 235.43C157.717 230.271 152.383 225.398 157.292 220.298C157.521 220.054 159.011 218.819 159.206 218.689C159.867 218.204 174.678 208.052 175.342 207.666C180.242 204.877 187.501 209.286 195.013 221.2C195.918 221.4 194.52 224.211 194.063 225.668C192.343 229.995 187.278 248.253 171.931 243.729Z" fill="#242F5B"/>
<g style="mix-blend-mode:multiply">
<path d="M223.793 216.91C223.793 216.91 242.603 212.788 262.061 237.74C281.519 262.692 288.828 269.596 300.233 272.706C307.975 274.986 315.447 278.099 322.516 281.993C322.516 281.993 306.254 276.152 300.196 275.647C294.138 275.142 275.296 264.037 258.637 239.135C251.233 228.367 229.409 216.008 223.793 216.91Z" fill="#1B2544"/>
</g>
<path d="M366.18 75.2188C365.872 87.2998 357.071 102.319 366.56 119.719C376.049 137.119 386.989 127.158 384.311 153.662C383.24 164.269 398.554 188.053 405.601 209.03" stroke="#707070" stroke-width="3" stroke-miterlimit="10"/>
<g style="mix-blend-mode:multiply">
<path d="M264.891 204.401C264.891 204.401 272.946 191.867 280.013 195.475C287.08 199.083 293.843 202.175 303.077 197.285C295.343 205.536 285.198 201.465 281.049 198.712C276.112 195.437 268.969 200.737 264.891 204.401Z" fill="#1B2544"/>
</g>
<g style="mix-blend-mode:multiply">
<path d="M337.641 260.67C337.641 260.67 335.241 246.89 326.293 228.86C322.514 220.56 318.298 210.693 318.298 210.693C318.298 210.693 321.049 222.653 324.49 229.893C327.931 237.133 334.38 249.834 337.641 261.04" fill="#1B2544"/>
</g>
<path d="M364.355 312.391C364.355 312.391 379.342 321.891 386.408 344.068C388.098 330.128 371.236 314.543 364.355 312.391Z" fill="#1B2544"/>
<path d="M193.401 216.942C193.401 216.942 199.491 209.449 194.518 194.184C193.029 189.612 186.896 176.698 190.989 157.177C194.048 142.589 199.645 125.241 201.643 118.53C207.93 97.413 209.224 95.7751 213.682 86.7871" stroke="#707070" stroke-width="3" stroke-miterlimit="10"/>
<path style="mix-blend-mode:overlay" d="M345.641 127.154C345.641 127.154 336.401 145.434 344.754 162.3C349.81 172.509 377.661 193.123 389.893 213.5C386.755 194.153 357.342 164.251 352.636 158.333C347.93 152.415 345.121 141.174 345.641 127.154Z" fill="url(#paint8_linear_2863_19590)"/>
<path style="mix-blend-mode:overlay" d="M277.548 33.9414C278.808 35.9124 283.348 39.9934 281.286 49.0024C280.026 54.5184 275.568 62.2614 268.502 71.3884C286.225 67.4164 291.696 45.5934 277.548 33.9414Z" fill="url(#paint9_linear_2863_19590)"/>
<path d="M270.248 153.419C269.34 154.16 268.277 154.686 267.138 154.959C263.518 155.639 258.158 154.219 257.078 152.329C256.036 150.743 254.83 149.271 253.478 147.939C254.707 148.734 255.8 149.719 256.718 150.859C257.518 152.149 259.868 153.799 263.108 154.359C265.526 154.859 268.041 154.527 270.248 153.419Z" fill="#BC5B5B"/>
<path d="M274.866 147.301C273.104 146.44 271.534 145.232 270.251 143.749C270.026 143.333 269.691 142.987 269.281 142.752C268.871 142.516 268.403 142.399 267.931 142.415C267.31 142.399 265.838 143.67 265.118 144.1C264.613 144.284 264.077 144.364 263.541 144.337C263.005 144.309 262.48 144.174 261.998 143.94C261.401 143.347 260.696 142.876 259.921 142.551C259.567 142.495 259.205 142.51 258.857 142.594C258.509 142.678 258.18 142.83 257.891 143.041C258.081 142.871 258.241 142.731 258.381 142.621C258.936 142.272 259.606 142.152 260.249 142.289C260.891 142.425 261.455 142.806 261.821 143.351C262.271 144.101 264.991 144.511 265.981 142.761C266.971 141.011 269.721 142.131 270.431 143.641C270.771 144.351 274.876 147.301 274.866 147.301Z" fill="#BC5B5B"/>
<path d="M267.802 111.542C267.802 111.542 262.649 106.513 257.62 111.542" stroke="#F1F1F2" stroke-linecap="round" stroke-linejoin="round"/>
<path d="M307.509 111.781H326.468" stroke="#F1F1F2" stroke-miterlimit="10"/>
<path d="M320.669 113.108C320.669 113.108 323.608 115.007 324.856 110.37C326.104 105.733 332.793 103.143 336.15 106.605C339.85 110.421 336.171 126.952 327.175 127.15C318.179 127.348 321.79 121.985 321.79 121.985L320.669 113.108Z" fill="#FA997B"/>
<path d="M327.762 114.067C326.41 116.246 326.329 118.649 327.588 119.432C328.847 120.215 330.968 119.085 332.328 116.9C333.672 114.72 333.749 112.315 332.494 111.536C331.239 110.757 329.114 111.883 327.762 114.067Z" fill="#EF5D23"/>
<path d="M237.513 130.759C248.478 130.759 257.366 121.87 257.366 110.906C257.366 99.9412 248.478 91.0527 237.513 91.0527C226.549 91.0527 217.66 99.9412 217.66 110.906C217.66 121.87 226.549 130.759 237.513 130.759Z" fill="white" fill-opacity="0.2" stroke="#F1F1F2" stroke-miterlimit="10"/>
<path d="M307.505 110.903C307.511 113.512 307.002 116.096 306.007 118.508C305.012 120.92 303.55 123.111 301.706 124.956C299.861 126.802 297.671 128.264 295.26 129.261C292.848 130.257 290.264 130.768 287.655 130.763C287.005 130.763 286.355 130.733 285.715 130.673C285.701 130.674 285.687 130.671 285.675 130.663C284.173 130.517 282.694 130.199 281.265 129.713C280.327 129.388 279.415 128.993 278.535 128.533C274.584 126.489 271.433 123.178 269.589 119.13C267.745 115.081 267.315 110.531 268.366 106.209C269.418 101.887 271.891 98.0429 275.389 95.2945C278.887 92.5461 283.207 91.0523 287.655 91.0528C290.232 91.046 292.784 91.5489 295.165 92.5328C298.137 93.7429 300.769 95.6581 302.835 98.1129C303.67 99.1063 304.406 100.178 305.035 101.313C305.994 103.042 306.685 104.907 307.085 106.843C307.349 108.076 307.486 109.332 307.495 110.593C307.505 110.693 307.505 110.803 307.505 110.903Z" fill="white" fill-opacity="0.2" stroke="#F1F1F2" stroke-miterlimit="10"/>
<path opacity="0.3" d="M302.621 98.5703L281.541 129.25C280.603 128.925 279.69 128.531 278.811 128.071C276.85 127.06 275.072 125.728 273.551 124.13L294.951 92.9902C297.922 94.2003 300.555 96.1155 302.621 98.5703Z" fill="url(#paint10_linear_2863_19590)"/>
<path opacity="0.3" d="M306.591 107.043L291.751 129.819C290.453 130.098 289.131 130.249 287.803 130.272C287.153 130.272 285.833 130.183 285.823 130.173L304.541 101.514C305.5 103.243 306.191 105.107 306.591 107.043Z" fill="url(#paint11_linear_2863_19590)"/>
<path opacity="0.3" d="M251.713 98.0586L230.477 128.928C229.536 128.591 228.631 128.159 227.777 127.639C225.911 126.492 224.226 125.072 222.777 123.428L244.046 92.4785C247.017 93.6889 249.648 95.6041 251.713 98.0586Z" fill="url(#paint12_linear_2863_19590)"/>
<path opacity="0.3" d="M256 105.958L240.385 130.018C239.162 130.215 237.922 130.279 236.685 130.208C236.185 130.208 234.678 130.008 234.668 130.001L253.955 100.77C254.304 101.398 254.618 102.046 254.895 102.709C255.379 103.75 255.749 104.839 256 105.958Z" fill="url(#paint13_linear_2863_19590)"/>
<path d="M280.758 50.8583C277.021 61.0413 261.317 84.5832 249.107 87.3732C236.897 90.1632 233.607 103.148 231.82 110.232C230.033 117.316 220.208 121.901 220.208 121.901C222.333 113.286 222.908 108.05 217.495 96.9193C213.108 87.9063 208.171 73.7192 219.844 57.5683C231.517 41.4173 238.591 28.8062 259.524 27.1532C263.418 26.7683 267.346 27.3776 270.94 28.9242C280.121 33.0552 283.555 43.2723 280.758 50.8583Z" fill="url(#paint14_linear_2863_19590)"/>
<path style="mix-blend-mode:overlay" d="M270.94 28.9259C270.94 28.9259 254.614 30.2 243.818 36.733C239.07 39.606 234.874 44.143 231.078 49.452C227.282 54.761 221.919 66.7519 220.511 71.0639C219.103 75.3759 218.002 85.351 222.511 92.536C227.02 99.721 229.318 112.867 220.211 121.903C222.336 113.288 222.911 108.052 217.498 96.921C213.111 87.908 208.174 73.721 219.847 57.57C231.52 41.419 238.594 28.8079 259.527 27.1549C263.42 26.7705 267.347 27.3798 270.94 28.9259Z" fill="url(#paint15_linear_2863_19590)"/>
<defs>
<linearGradient id="paint0_linear_2863_19590" x1="186.832" y1="175.579" x2="409.598" y2="175.579" gradientUnits="userSpaceOnUse">
<stop stop-color="#404041"/>
<stop offset="0.084" stop-color="#383838"/>
<stop offset="0.46" stop-color="#191919"/>
<stop offset="0.779" stop-color="#060606"/>
<stop offset="1"/>
</linearGradient>
<linearGradient id="paint1_linear_2863_19590" x1="267.225" y1="80.1124" x2="366.596" y2="80.1124" gradientUnits="userSpaceOnUse">
<stop stop-color="#404041"/>
<stop offset="0.084" stop-color="#383838"/>
<stop offset="0.46" stop-color="#191919"/>
<stop offset="0.779" stop-color="#060606"/>
<stop offset="1"/>
</linearGradient>
<linearGradient id="paint2_linear_2863_19590" x1="229.816" y1="248.008" x2="343.79" y2="248.008" gradientUnits="userSpaceOnUse">
<stop stop-color="#5164C4"/>
<stop offset="1" stop-color="#1D2459"/>
</linearGradient>
<linearGradient id="paint3_linear_2863_19590" x1="314.102" y1="273.051" x2="393.104" y2="273.051" gradientUnits="userSpaceOnUse">
<stop stop-color="#5164C4"/>
<stop offset="1" stop-color="#1D2459"/>
</linearGradient>
<linearGradient id="paint4_linear_2863_19590" x1="314.102" y1="236.928" x2="357.273" y2="236.928" gradientUnits="userSpaceOnUse">
<stop stop-color="#3D4595"/>
<stop offset="1" stop-color="#1D2459"/>
</linearGradient>
<linearGradient id="paint5_linear_2863_19590" x1="307.2" y1="44.4179" x2="366.56" y2="44.4179" gradientUnits="userSpaceOnUse">
<stop stop-color="#606162"/>
<stop offset="0.063" stop-color="#757677"/>
<stop offset="0.182" stop-color="#98999A"/>
<stop offset="0.308" stop-color="#B4B5B6"/>
<stop offset="0.443" stop-color="#CACBCC"/>
<stop offset="0.59" stop-color="#D9DADB"/>
<stop offset="0.76" stop-color="#E3E4E5"/>
<stop offset="1" stop-color="#E6E7E8"/>
</linearGradient>
<linearGradient id="paint6_linear_2863_19590" x1="377.511" y1="359.353" x2="239.109" y2="161.417" gradientUnits="userSpaceOnUse">
<stop stop-color="#1D2459"/>
<stop offset="1" stop-color="#5164C4"/>
</linearGradient>
<linearGradient id="paint7_linear_2863_19590" x1="172.425" y1="305.41" x2="386.527" y2="305.41" gradientUnits="userSpaceOnUse">
<stop stop-color="#3D4595"/>
<stop offset="1" stop-color="#1D2459"/>
</linearGradient>
<linearGradient id="paint8_linear_2863_19590" x1="341.259" y1="170.327" x2="389.893" y2="170.327" gradientUnits="userSpaceOnUse">
<stop stop-color="#BBBDBF"/>
<stop offset="0.174" stop-color="#B4B6B8"/>
<stop offset="0.425" stop-color="#A1A3A5"/>
<stop offset="0.72" stop-color="#838486"/>
<stop offset="1" stop-color="#606162"/>
</linearGradient>
<linearGradient id="paint9_linear_2863_19590" x1="268.502" y1="52.6649" x2="285.586" y2="52.6649" gradientUnits="userSpaceOnUse">
<stop stop-color="#BBBDBF"/>
<stop offset="0.174" stop-color="#B4B6B8"/>
<stop offset="0.425" stop-color="#A1A3A5"/>
<stop offset="0.72" stop-color="#838486"/>
<stop offset="1" stop-color="#606162"/>
</linearGradient>
<linearGradient id="paint10_linear_2863_19590" x1="273.551" y1="111.12" x2="302.621" y2="111.12" gradientUnits="userSpaceOnUse">
<stop stop-color="white" stop-opacity="0"/>
<stop offset="1" stop-color="white"/>
</linearGradient>
<linearGradient id="paint11_linear_2863_19590" x1="285.823" y1="115.893" x2="306.591" y2="115.893" gradientUnits="userSpaceOnUse">
<stop stop-color="white" stop-opacity="0"/>
<stop offset="1" stop-color="white"/>
</linearGradient>
<linearGradient id="paint12_linear_2863_19590" x1="222.777" y1="110.703" x2="251.713" y2="110.703" gradientUnits="userSpaceOnUse">
<stop stop-color="white" stop-opacity="0"/>
<stop offset="1" stop-color="white"/>
</linearGradient>
<linearGradient id="paint13_linear_2863_19590" x1="234.668" y1="115.503" x2="256" y2="115.503" gradientUnits="userSpaceOnUse">
<stop stop-color="white" stop-opacity="0"/>
<stop offset="1" stop-color="white"/>
</linearGradient>
<linearGradient id="paint14_linear_2863_19590" x1="213.715" y1="76.7478" x2="281.913" y2="76.7478" gradientUnits="userSpaceOnUse">
<stop stop-color="#404041"/>
<stop offset="0.084" stop-color="#383838"/>
<stop offset="0.46" stop-color="#191919"/>
<stop offset="0.779" stop-color="#060606"/>
<stop offset="1"/>
</linearGradient>
<linearGradient id="paint15_linear_2863_19590" x1="213.721" y1="76.7496" x2="270.707" y2="76.7496" gradientUnits="userSpaceOnUse">
<stop stop-color="#BBBDBF"/>
<stop offset="0.174" stop-color="#B4B6B8"/>
<stop offset="0.425" stop-color="#A1A3A5"/>
<stop offset="0.72" stop-color="#838486"/>
<stop offset="1" stop-color="#606162"/>
</linearGradient>
</defs>
</svg>
