<svg width="420" height="340" viewBox="0 0 420 340" fill="none" xmlns="http://www.w3.org/2000/svg">
<path d="M85.2776 67.5555V118.662C79.3667 120.98 72.9283 122.253 66.1935 122.253C59.4587 122.253 53.0225 120.98 47.1094 118.662V67.5555L59.5332 60.3809V111.464L66.1935 115.311L72.8538 111.464V60.3809L85.2776 67.5555Z" fill="#F36306"/>
<path d="M110.862 52.7849V97.1692C107.807 102.175 103.933 106.626 99.4287 110.336C98.9613 110.72 98.4873 111.098 98.007 111.465V60.2071L66.1938 41.8403L34.3805 60.2071V111.467C29.2658 107.544 24.8983 102.694 21.5254 97.1713V52.7849L66.1938 27L110.862 52.7849Z" fill="#F36306"/>
<path d="M378.186 0V320.37L338.986 314.79L216.896 297.41L49.1858 273.54L48.7559 150.68C64.615 154.979 81.4303 154.124 96.7714 148.238C112.112 142.352 125.184 131.74 134.098 117.936C143.011 104.132 147.305 87.8517 146.357 71.4475C145.409 55.0434 139.27 39.3656 128.826 26.6802L378.186 0Z" fill="#D8F6F8"/>
<path d="M71.471 141.63C107.079 141.63 135.944 112.764 135.944 77.1566C135.944 41.5491 107.079 12.6836 71.471 12.6836C35.8636 12.6836 6.99805 41.5491 6.99805 77.1566C6.99805 112.764 35.8636 141.63 71.471 141.63Z" fill="#D8F6F8"/>
<path d="M103.699 57.271V108.972C103.694 112.006 101.235 114.465 98.2006 114.471H33.7985C30.7641 114.465 28.3052 112.006 28.2998 108.972V57.271L33.4997 55.9707H98.4993L103.699 57.271Z" fill="#9E9E9E"/>
<path d="M99.7996 57.271V108.972C99.7936 112.006 97.3353 114.465 94.3003 114.471H33.7985C30.7641 114.465 28.3052 112.006 28.2998 108.972V57.271L33.4997 55.9707H94.5997L99.7996 57.271Z" fill="#F4F4F4"/>
<path d="M103.699 47.1705V57.2716H28.2998V47.1705C28.3052 44.1362 30.7641 41.6772 33.7985 41.6719H98.2006C101.235 41.6772 103.694 44.1362 103.699 47.1705Z" fill="#6A1B9A"/>
<path d="M99.7996 47.1705V57.2716H28.2998V47.1705C28.3052 44.1362 30.7641 41.6772 33.7985 41.6719H94.3003C97.3353 41.6772 99.7936 44.1362 99.7996 47.1705Z" fill="#00B4BE"/>
<path d="M38.6999 49.4711C38.6999 50.907 37.5359 52.071 36.1 52.071C34.664 52.071 33.5 50.907 33.5 49.4711C33.5 48.0351 34.664 46.8711 36.1 46.8711C37.5359 46.8711 38.6999 48.0351 38.6999 49.4711Z" fill="#E91E63"/>
<path d="M49.1003 49.4711C49.1003 50.907 47.9363 52.071 46.5004 52.071C45.0644 52.071 43.9004 50.907 43.9004 49.4711C43.9004 48.0351 45.0644 46.8711 46.5004 46.8711C47.9363 46.8711 49.1003 48.0351 49.1003 49.4711Z" fill="#FF9801"/>
<path d="M59.4997 49.4711C59.4997 50.907 58.3357 52.071 56.8998 52.071C55.4638 52.071 54.2998 50.907 54.2998 49.4711C54.2998 48.0351 55.4638 46.8711 56.8998 46.8711C58.3357 46.8711 59.4997 48.0351 59.4997 49.4711Z" fill="#8BC34A"/>
<path d="M93.2997 46.8711H95.8996C96.6179 46.8711 97.1999 47.4531 97.1999 48.1708V50.7707C97.1999 51.489 96.6179 52.071 95.8996 52.071H93.2997C92.582 52.071 92 51.489 92 50.7707V48.1708C92 47.4531 92.582 46.8711 93.2997 46.8711Z" fill="#6A1B9A"/>
<path d="M36.1001 63.7715H62.0997C62.818 63.7715 63.4 64.3535 63.4 65.0712V68.9714C63.4 69.6891 62.818 70.2711 62.0997 70.2711H36.1001C35.3818 70.2711 34.7998 69.6891 34.7998 68.9714V65.0712C34.7998 64.3535 35.3818 63.7715 36.1001 63.7715Z" fill="#4E342E"/>
<path d="M60.7996 70.2715V78.0714C60.7996 82.3792 57.3076 85.8718 52.9998 85.8718H45.1993C40.892 85.8718 37.3994 82.3792 37.3994 78.0714V70.2715H60.7996Z" fill="#0377BC"/>
<path d="M36.1001 101.471H62.0997C62.818 101.471 63.4 102.053 63.4 102.771V106.671C63.4 107.389 62.818 107.971 62.0997 107.971H36.1001C35.3818 107.971 34.7998 107.389 34.7998 106.671V102.771C34.7998 102.053 35.3818 101.471 36.1001 101.471Z" fill="#4E342E"/>
<path d="M60.7996 93.671V101.471H37.3994V93.671C37.3994 89.3631 40.892 85.8711 45.1993 85.8711H52.9998C57.3076 85.8711 60.7996 89.3631 60.7996 93.671Z" fill="#0377BC"/>
<path d="M36.1001 63.7715H58.2C58.9177 63.7715 59.4997 64.3535 59.4997 65.0712V68.9714C59.4997 69.6891 58.9177 70.2711 58.2 70.2711H36.1001C35.3818 70.2711 34.7998 69.6891 34.7998 68.9714V65.0712C34.7998 64.3535 35.3818 63.7715 36.1001 63.7715Z" fill="#795548"/>
<path d="M56.8994 70.2715V78.0714C56.8994 82.3792 53.4074 85.8718 49.0995 85.8718H45.1993C40.892 85.8718 37.3994 82.3792 37.3994 78.0714V70.2715H56.8994Z" fill="#02A9F4"/>
<path d="M36.1001 101.471H58.2C58.9177 101.471 59.4997 102.053 59.4997 102.771V106.671C59.4997 107.389 58.9177 107.971 58.2 107.971H36.1001C35.3818 107.971 34.7998 107.389 34.7998 106.671V102.771C34.7998 102.053 35.3818 101.471 36.1001 101.471Z" fill="#795548"/>
<path d="M56.8994 93.671V101.471H37.3994V93.671C37.3994 89.3631 40.892 85.8711 45.1993 85.8711H49.0995C53.4074 85.8711 56.8994 89.3631 56.8994 93.671Z" fill="#02A9F4"/>
<path d="M85.5002 72.8718V76.5899C85.5007 76.9833 85.3442 77.3606 85.0663 77.6385C84.7884 77.9164 84.4111 78.0723 84.0184 78.0717H71.3822C70.9888 78.0723 70.6121 77.9164 70.3336 77.6385C70.0557 77.3606 69.8998 76.9833 69.9004 76.5899V72.8718L72.1879 70.7658L74.1511 68.9722L74.9051 69.6738L76.2703 70.9348L76.2834 70.9223L79.8319 67.6719L81.5999 69.2971L85.5002 72.8718Z" fill="#558B30"/>
<path d="M81.5999 69.2971V76.5899C81.6005 76.9833 81.4446 77.3606 81.1667 77.6385C80.8882 77.9164 80.5115 78.0723 80.1181 78.0717H71.3822C70.9888 78.0723 70.6121 77.9164 70.3336 77.6385C70.0557 77.3606 69.8998 76.9833 69.9004 76.5899V72.8718L72.1879 70.7658L72.37 70.9348L72.3831 70.9223L74.9051 69.6738L76.2703 70.9348L76.2834 70.9223L79.8319 67.6719L81.5999 69.2971Z" fill="#8BC34A"/>
<path d="M85.5002 63.9525V72.8705L79.8319 67.6706L76.2834 70.921L76.2703 70.9335L74.1511 68.9709L69.9004 72.8705V63.9525C69.8998 63.5597 70.0557 63.1824 70.3336 62.9045C70.6121 62.6266 70.9888 62.4701 71.3822 62.4707H84.0184C84.4111 62.4701 84.7884 62.6266 85.0663 62.9045C85.3442 63.1824 85.5007 63.5597 85.5002 63.9525Z" fill="#02A9F4"/>
<path d="M73.1502 101.471H93.9499C95.7453 101.471 97.2003 102.926 97.2003 104.721C97.2003 106.516 95.7453 107.971 93.9499 107.971H73.1502C71.3554 107.971 69.9004 106.516 69.9004 104.721C69.9004 102.926 71.3554 101.471 73.1502 101.471Z" fill="#0377BC"/>
<path d="M73.1502 101.471H90.0502C91.845 101.471 93.3 102.926 93.3 104.721C93.3 106.516 91.845 107.971 90.0502 107.971H73.1502C71.3554 107.971 69.9004 106.516 69.9004 104.721C69.9004 102.926 71.3554 101.471 73.1502 101.471Z" fill="#02A9F4"/>
<path d="M55.6 75.4707V78.0707C55.6 79.5066 54.436 80.6712 53 80.6712H45.1996C43.7636 80.6712 42.5996 79.5066 42.5996 78.0707V75.4707H55.6Z" fill="#FF9801"/>
<path d="M85.5002 63.9525V72.8705L81.5999 69.2958V63.9525C81.6005 63.5597 81.4446 63.1824 81.1667 62.9045C80.8882 62.6266 80.5115 62.4701 80.1182 62.4707H84.0184C84.4112 62.4701 84.7885 62.6266 85.0664 62.9045C85.3443 63.1824 85.5008 63.5597 85.5002 63.9525Z" fill="#0377BC"/>
<path d="M98.1969 40.3711H33.8031C30.0481 40.3759 27.0048 43.4192 27 47.1742V108.968C27.0048 112.723 30.0481 115.766 33.8031 115.771H98.1969C101.952 115.766 104.995 112.723 105 108.968V47.1742C104.995 43.4192 101.952 40.3759 98.1969 40.3711ZM33.8031 42.9711H98.1969C100.517 42.974 102.397 44.8539 102.4 47.1742V55.9709H29.6V47.1742C29.6035 44.8545 31.4834 42.9746 33.8031 42.9711ZM98.1969 113.171H33.8031C31.4834 113.168 29.6035 111.288 29.6 108.968V58.5708H102.4V108.968C102.397 111.288 100.517 113.168 98.1969 113.171Z" fill="black"/>
<path d="M36.1004 53.3702C38.2541 53.3702 40.0001 51.6242 40.0001 49.4706C40.0001 47.3163 38.2541 45.5703 36.1004 45.5703C33.9462 45.5703 32.2002 47.3163 32.2002 49.4706C32.2002 51.6242 33.9462 53.3702 36.1004 53.3702ZM36.1004 48.1703C36.8181 48.1703 37.4001 48.7523 37.4001 49.4706C37.4001 50.1882 36.8181 50.7702 36.1004 50.7702C35.3822 50.7702 34.8002 50.1882 34.8002 49.4706C34.8002 48.7523 35.3822 48.1703 36.1004 48.1703Z" fill="black"/>
<path d="M46.4998 53.3702C48.6535 53.3702 50.4001 51.6242 50.4001 49.4706C50.4001 47.3163 48.6535 45.5703 46.4998 45.5703C44.3462 45.5703 42.5996 47.3163 42.5996 49.4706C42.5996 51.6242 44.3462 53.3702 46.4998 53.3702ZM46.4998 48.1703C47.2175 48.1703 47.8001 48.7523 47.8001 49.4706C47.8001 50.1882 47.2175 50.7702 46.4998 50.7702C45.7822 50.7702 45.1996 50.1882 45.1996 49.4706C45.1996 48.7523 45.7822 48.1703 46.4998 48.1703Z" fill="black"/>
<path d="M56.8996 53.3702C59.0539 53.3702 60.7999 51.6242 60.7999 49.4706C60.7999 47.3163 59.0539 45.5703 56.8996 45.5703C54.746 45.5703 53 47.3163 53 49.4706C53 51.6242 54.746 53.3702 56.8996 53.3702ZM56.8996 48.1703C57.6179 48.1703 58.1999 48.7523 58.1999 49.4706C58.1999 50.1882 57.6179 50.7702 56.8996 50.7702C56.182 50.7702 55.6 50.1882 55.6 49.4706C55.6 48.7523 56.182 48.1703 56.8996 48.1703Z" fill="black"/>
<path d="M93.3002 53.3702H95.9001C97.3361 53.3702 98.5001 52.2062 98.5001 50.7702V48.1703C98.5001 46.7343 97.3361 45.5703 95.9001 45.5703H93.3002C91.8642 45.5703 90.7002 46.7343 90.7002 48.1703V50.7702C90.7002 52.2062 91.8642 53.3702 93.3002 53.3702ZM93.3002 48.1703H95.9001V50.7702H93.3002V48.1703Z" fill="black"/>
<path d="M62.0996 62.4707H36.1C34.664 62.4707 33.5 63.6347 33.5 65.0707V68.9709C33.5 70.4069 34.664 71.5709 36.1 71.5709V78.0705C36.1047 81.2697 37.7894 84.2315 40.537 85.8709C37.7894 87.5098 36.1047 90.4716 36.1 93.6708V100.171C34.664 100.171 33.5 101.335 33.5 102.771V106.671C33.5 108.107 34.664 109.271 36.1 109.271H62.0996C63.5355 109.271 64.6995 108.107 64.6995 106.671V102.771C64.6995 101.335 63.5355 100.171 62.0996 100.171V93.6708C62.0948 90.4716 60.4101 87.5098 57.6631 85.8709C60.4101 84.2315 62.0948 81.2697 62.0996 78.0705V71.5709C63.5355 71.5709 64.6995 70.4069 64.6995 68.9709V65.0707C64.6995 63.6347 63.5355 62.4707 62.0996 62.4707ZM62.0996 106.671H36.1V102.771H62.0996V106.671ZM59.4996 93.6708V100.171H38.6999V93.6708C38.7041 90.0824 41.6117 87.1748 45.1995 87.1706H47.8001V89.7706C47.8001 90.4889 48.3821 91.0709 49.0998 91.0709C49.818 91.0709 50.4 90.4889 50.4 89.7706V87.1706H53C56.5878 87.1748 59.4954 90.0824 59.4996 93.6708ZM59.4996 78.0705C59.4954 81.6589 56.5878 84.5665 53 84.5707H50.4V81.9707H53C55.1536 81.9707 56.8996 80.2247 56.8996 78.0705V75.4705C56.8996 74.7528 56.3176 74.1708 55.6 74.1708H42.5996C41.8819 74.1708 41.2999 74.7528 41.2999 75.4705V78.0705C41.2999 80.2247 43.0459 81.9707 45.1995 81.9707H47.8001V84.5707H45.1995C41.6117 84.5665 38.7041 81.6589 38.6999 78.0705V71.5709H59.4996V78.0705ZM45.1995 79.3707C44.4818 79.3707 43.8998 78.7887 43.8998 78.0705V76.7708H54.2997V78.0705C54.2997 78.7887 53.7177 79.3707 53 79.3707H45.1995ZM60.7999 68.9709H36.1V65.0707H62.0996V68.9709H60.7999Z" fill="black"/>
<path d="M49.0995 93.6719C48.3818 93.6719 47.7998 94.2539 47.7998 94.9716V96.2718C47.7998 96.9895 48.3818 97.5715 49.0995 97.5715C49.8178 97.5715 50.3998 96.9895 50.3998 96.2718V94.9716C50.3998 94.2539 49.8178 93.6719 49.0995 93.6719Z" fill="black"/>
<path d="M71.387 79.3716H84.0125C85.5508 79.3692 86.7975 78.1231 86.7999 76.5842V63.9587C86.7975 62.4204 85.5508 61.1737 84.0125 61.1719H71.387C69.8487 61.1737 68.602 62.4204 68.5996 63.9587V76.5842C68.602 78.1231 69.8487 79.3692 71.387 79.3716ZM84.0125 76.7716H71.387C71.337 76.7722 71.2894 76.7526 71.2543 76.7169C71.2192 76.6818 71.1996 76.6342 71.1996 76.5842V73.4439L74.1548 70.7344L77.5343 73.8295C77.8747 74.1562 78.3651 74.2728 78.8162 74.1348C79.2666 73.9961 79.6076 73.6248 79.7058 73.1636C79.8046 72.7024 79.6457 72.2239 79.291 71.9133L78.2068 70.9219L79.8314 69.433L84.1994 73.4439V76.5842C84.2 76.6342 84.1803 76.6818 84.1452 76.7169C84.1101 76.7526 84.0625 76.7722 84.0125 76.7716ZM71.387 63.7718H84.0125C84.0625 63.7712 84.1101 63.7909 84.1452 63.826C84.1803 63.8611 84.2 63.9093 84.1994 63.9587V69.9144L80.7103 66.7134C80.2134 66.2581 79.4511 66.2581 78.9542 66.7134L76.2829 69.1586L75.0332 68.0137C74.5363 67.5572 73.7728 67.5572 73.2758 68.0137L71.1996 69.9168V63.9587C71.1996 63.9093 71.2192 63.8611 71.2543 63.826C71.2894 63.7909 71.337 63.7712 71.387 63.7718Z" fill="black"/>
<path d="M97.2003 62.4707H90.7001C89.9824 62.4707 89.4004 63.0527 89.4004 63.771C89.4004 64.4887 89.9824 65.0707 90.7001 65.0707H97.2003C97.918 65.0707 98.5 64.4887 98.5 63.771C98.5 63.0527 97.918 62.4707 97.2003 62.4707Z" fill="black"/>
<path d="M97.2003 67.6719H90.7001C89.9824 67.6719 89.4004 68.2539 89.4004 68.9722C89.4004 69.6898 89.9824 70.2718 90.7001 70.2718H97.2003C97.918 70.2718 98.5 69.6898 98.5 68.9722C98.5 68.2539 97.918 67.6719 97.2003 67.6719Z" fill="black"/>
<path d="M97.2003 72.8711H90.7001C89.9824 72.8711 89.4004 73.4531 89.4004 74.1714C89.4004 74.8891 89.9824 75.4711 90.7001 75.4711H97.2003C97.918 75.4711 98.5 74.8891 98.5 74.1714C98.5 73.4531 97.918 72.8711 97.2003 72.8711Z" fill="black"/>
<path d="M69.8999 85.8714H80.2997C81.0174 85.8714 81.5994 85.2894 81.5994 84.5712C81.5994 83.8535 81.0174 83.2715 80.2997 83.2715H69.8999C69.1816 83.2715 68.5996 83.8535 68.5996 84.5712C68.5996 85.2894 69.1816 85.8714 69.8999 85.8714Z" fill="black"/>
<path d="M97.2001 83.2715H86.8003C86.082 83.2715 85.5 83.8535 85.5 84.5712C85.5 85.2894 86.082 85.8714 86.8003 85.8714H97.2001C97.9178 85.8714 98.4998 85.2894 98.4998 84.5712C98.4998 83.8535 97.9178 83.2715 97.2001 83.2715Z" fill="black"/>
<path d="M69.8999 96.2718H80.2997C81.0174 96.2718 81.5994 95.6898 81.5994 94.9716C81.5994 94.2539 81.0174 93.6719 80.2997 93.6719H69.8999C69.1816 93.6719 68.5996 94.2539 68.5996 94.9716C68.5996 95.6898 69.1816 96.2718 69.8999 96.2718Z" fill="black"/>
<path d="M97.2001 93.6719H86.8003C86.082 93.6719 85.5 94.2539 85.5 94.9716C85.5 95.6898 86.082 96.2718 86.8003 96.2718H97.2001C97.9178 96.2718 98.4998 95.6898 98.4998 94.9716C98.4998 94.2539 97.9178 93.6719 97.2001 93.6719Z" fill="black"/>
<path d="M69.8999 91.0707H75.0998C75.8175 91.0707 76.3995 90.4887 76.3995 89.7704C76.3995 89.0527 75.8175 88.4707 75.0998 88.4707H69.8999C69.1816 88.4707 68.5996 89.0527 68.5996 89.7704C68.5996 90.4887 69.1816 91.0707 69.8999 91.0707Z" fill="black"/>
<path d="M97.2003 88.4707H80.3003C79.582 88.4707 79 89.0527 79 89.7704C79 90.4887 79.582 91.0707 80.3003 91.0707H97.2003C97.918 91.0707 98.5 90.4887 98.5 89.7704C98.5 89.0527 97.918 88.4707 97.2003 88.4707Z" fill="black"/>
<path d="M93.9494 100.172H73.1497C70.6366 100.172 68.5996 102.209 68.5996 104.721C68.5996 107.234 70.6366 109.271 73.1497 109.271H93.9494C96.4624 109.271 98.4994 107.234 98.4994 104.721C98.4994 102.209 96.4624 100.172 93.9494 100.172ZM93.9494 106.671H73.1497C72.0726 106.671 71.1996 105.798 71.1996 104.721C71.1996 103.645 72.0726 102.772 73.1497 102.772H93.9494C95.0265 102.772 95.8995 103.645 95.8995 104.721C95.8995 105.798 95.0265 106.671 93.9494 106.671Z" fill="black"/>
<path d="M66.473 139.964C102.08 139.964 130.946 111.098 130.946 75.4906C130.946 39.8831 102.08 11.0176 66.473 11.0176C30.8655 11.0176 2 39.8831 2 75.4906C2 111.098 30.8655 139.964 66.473 139.964Z" stroke="#00B4BE" stroke-width="2.95" stroke-miterlimit="10"/>
<path d="M147.434 194.984L128.236 173.112C123.011 167.948 121.249 165.458 122.282 164.546C123.68 163.331 123.072 163.696 133.886 171.837C133.886 171.837 118.576 160.111 123.862 160.05C124.773 160.05 127.385 161.569 130.18 163.392C126.413 160.172 125.32 157.985 126.049 156.952C127.264 155.129 136.681 161.63 140.994 164.789C137.47 162.116 130.727 157.074 129.573 155.433C127.932 153.246 131.213 153.428 133.886 154.34C136.863 155.372 153.449 163.817 158.37 166.004C161.772 167.523 162.926 164.485 162.926 164.485C164.749 156.891 170.216 151.91 172.343 151.302C174.469 150.634 176.049 153.307 174.53 155.251C173.315 156.831 172.1 160.05 171.31 162.481C170.642 164.485 170.277 166.612 170.338 168.677C170.399 171.168 170.52 173.234 170.642 174.996L188.26 199.115L158.856 216.187L147.434 194.984Z" fill="#B78876"/>
<path d="M140.507 175.173C140.325 175.416 136.922 173.108 132.913 169.888C128.903 166.729 125.805 163.934 126.048 163.691C126.23 163.448 129.693 165.817 133.642 168.916C137.651 172.075 140.75 174.87 140.507 175.173Z" fill="#AA6550"/>
<path d="M144.27 171.348C144.088 171.591 140.321 169.283 135.825 166.184C131.39 163.086 127.866 160.291 128.11 160.048C128.292 159.745 132.058 162.053 136.554 165.152C140.989 168.311 144.452 171.045 144.27 171.348Z" fill="#AA6550"/>
<path d="M147.006 167.219C146.824 167.522 143.179 165.396 138.926 162.541C134.673 159.625 131.332 157.073 131.514 156.769C131.757 156.465 135.341 158.592 139.594 161.508C143.908 164.363 147.188 166.976 147.006 167.219Z" fill="#AA6550"/>
<path d="M172.279 178.34L242.388 267.161L226.349 304.524C226.349 304.524 207.09 300.272 201.258 292.191C195.426 284.111 147.431 194.986 147.431 194.986L172.279 178.34Z" fill="#B78876"/>
<path d="M350.227 53.9707C355.269 58.3449 355.209 65.9999 354.662 72.6827C354.054 79.3048 353.629 86.899 358.246 91.6985C362.013 95.7082 368.939 97.47 369.789 102.877C370.215 105.429 368.878 108.163 366.63 109.378C364.382 110.593 361.345 110.289 359.461 108.527C360.92 112.841 359.887 118.187 356.181 120.799C352.475 123.412 346.217 121.771 345.063 117.397C345.792 120.313 343.666 123.594 340.749 124.141C337.772 124.627 334.674 122.318 334.31 119.402" fill="#263238"/>
<path d="M277.988 98.8065C276.713 102.087 272.521 103.91 269.24 102.573C265.959 101.176 264.319 96.9231 265.777 93.7032C266.931 91.1516 269.665 89.329 269.908 86.5951C270.212 83.2537 266.81 80.8235 263.772 79.3655C260.734 77.9074 257.211 76.024 256.907 72.6826C256.543 69.4627 259.459 66.911 261.889 64.7847C264.319 62.5976 266.688 59.2561 265.169 56.34C264.44 54.8819 262.861 54.0313 261.828 52.7555C259.519 49.8394 260.734 45.2221 263.651 42.9742C266.506 40.7264 270.516 40.3619 274.161 41.0301C277.806 41.6984 281.208 43.1565 284.732 44.2501C296.336 47.713 309.398 46.0119 319.726 39.6328" fill="#263238"/>
<path d="M299.494 177.187C312.556 179.799 325.314 171.476 328.17 158.475L345.424 79.4347C349.919 60.1759 337.708 40.9779 318.328 37.0289L316.566 36.7252C298.34 34.052 281.147 45.8381 277.015 63.7604C273.188 80.4675 269.117 98.9365 267.902 107.989C265.412 126.822 283.759 132.472 283.759 132.472L280.478 148.329C277.684 161.512 286.25 174.514 299.494 177.187Z" fill="#B78876"/>
<path d="M280.357 76.1453C280.114 77.5427 281.086 78.94 282.544 79.2438C284.002 79.5475 285.399 78.6362 285.703 77.2389C285.946 75.8416 284.974 74.4443 283.516 74.1405C282.058 73.8367 280.66 74.748 280.357 76.1453Z" fill="#263238"/>
<path d="M279.69 73.5126C279.993 73.9378 282.241 72.7228 285.097 73.148C288.013 73.5126 289.896 75.3352 290.261 75.0314C290.443 74.8491 290.2 74.1808 289.349 73.391C288.56 72.6013 287.101 71.69 285.279 71.4469C283.517 71.2039 281.877 71.6292 280.905 72.176C279.933 72.7228 279.568 73.3303 279.69 73.5126Z" fill="#263238"/>
<path d="M308.544 80.8348C308.301 82.2321 309.273 83.6295 310.731 83.9332C312.189 84.237 313.587 83.3257 313.83 81.9284C314.133 80.4703 313.161 79.1337 311.642 78.83C310.184 78.5262 308.787 79.4375 308.544 80.8348Z" fill="#263238"/>
<path d="M307.931 78.1981C308.235 78.6234 310.482 77.4083 313.338 77.8336C316.254 78.1981 318.137 80.0207 318.502 79.7169C318.684 79.5954 318.441 78.8664 317.591 78.0766C316.801 77.2868 315.343 76.4363 313.52 76.1325C311.758 75.8895 310.118 76.3148 309.146 76.8615C308.174 77.4083 307.809 78.0158 307.931 78.1981Z" fill="#263238"/>
<path d="M294.333 98.0772C294.394 97.8949 292.632 97.3481 289.777 96.5583C289.048 96.3761 288.379 96.0723 288.379 95.5863C288.258 95.0395 288.683 94.2497 289.169 93.4599C290.101 91.7993 291.093 90.0375 292.146 88.1744C296.338 80.641 299.497 74.3834 299.193 74.2619C298.89 74.0796 295.244 80.0335 291.053 87.5669C290.04 89.43 289.068 91.2121 288.136 92.9131C287.711 93.7029 287.104 94.6142 287.347 95.7686C287.468 96.3153 287.954 96.8014 288.379 96.9836C288.865 97.2266 289.23 97.2874 289.594 97.3481C292.511 97.9557 294.333 98.1987 294.333 98.0772Z" fill="#263238"/>
<path d="M308.854 66.7941C309.036 67.6447 311.953 67.7054 315.294 68.6167C318.635 69.4065 321.187 70.8039 321.734 70.1963C321.977 69.8926 321.612 69.042 320.64 68.1307C319.668 67.2194 318.028 66.2474 316.023 65.7613C314.018 65.2146 312.135 65.2753 310.798 65.5791C309.522 65.8828 308.793 66.4296 308.854 66.7941Z" fill="#263238"/>
<path d="M281.995 65.3207C282.359 66.0497 284.486 65.6852 286.855 65.989C289.285 66.232 291.229 67.0825 291.776 66.475C292.019 66.1712 291.776 65.4422 290.986 64.7131C290.257 63.9841 288.86 63.2551 287.22 63.0728C285.579 62.8905 284.06 63.2551 283.088 63.8018C282.177 64.3486 281.813 64.9562 281.995 65.3207Z" fill="#263238"/>
<path d="M328.047 55.8593C328.087 55.8998 328.128 55.92 328.168 55.92C330.781 58.7147 332.239 62.4206 332.239 66.3088C332.239 66.4303 332.239 66.5518 332.239 66.6733C332.178 72.1411 331.267 77.5482 331.267 83.016C331.267 88.4838 332.3 94.1946 335.702 98.4473C337.099 100.209 339.833 101.667 341.413 100.088C342.081 99.4801 342.263 98.5688 342.445 97.7183C345.362 84.9601 350.586 74.0245 352.53 60.4765C353.077 56.8313 351.801 53.1254 349.128 50.513C346.637 48.0829 343.478 45.4705 340.137 46.5033C336.735 47.5361 331.814 52.8216 329.019 54.948" fill="#263238"/>
<path d="M337.826 86.961C338.191 86.8395 351.313 85.0169 349.005 97.7751C346.696 110.533 334.363 105.612 334.424 105.248C334.424 104.883 337.826 86.961 337.826 86.961Z" fill="#B78876"/>
<path d="M339.163 101.118C339.224 101.118 339.345 101.301 339.71 101.544C340.074 101.787 340.682 102.03 341.35 101.908C342.808 101.665 344.327 99.7209 344.813 97.4123C345.056 96.258 344.995 95.1037 344.752 94.1317C344.509 93.0988 344.023 92.3698 343.355 92.1268C342.747 91.823 342.2 92.1268 341.957 92.4913C341.714 92.7951 341.775 93.0988 341.714 93.0988C341.654 93.0988 341.471 92.8558 341.654 92.3091C341.775 92.066 341.957 91.823 342.322 91.6408C342.626 91.3978 343.112 91.3978 343.598 91.5193C344.57 91.7623 345.299 92.7951 345.542 93.8886C345.906 94.9822 345.967 96.3188 345.663 97.5946C345.117 100.146 343.415 102.333 341.471 102.516C340.499 102.576 339.831 102.212 339.467 101.847C339.163 101.422 339.102 101.118 339.163 101.118Z" fill="#AA6550"/>
<path d="M340.263 48.5742C344.151 43.8962 336.618 35.2693 330.542 32.3531C324.528 29.437 315.719 31.2596 309.157 32.4746C304.965 33.2037 300.712 34.4795 296.581 33.6897C293.787 33.1429 291.235 31.7456 288.744 30.409C286.253 29.0724 283.641 27.7966 280.785 27.5536C277.93 27.3713 274.832 28.4042 273.434 30.895C271.976 33.3252 272.948 37.0919 275.682 37.8817C272.401 35.4515 266.934 37.2134 265.779 41.1623C264.564 45.1113 268.209 49.6071 272.28 49.3033C270.7 47.6629 267.541 49.5463 267.42 51.8549C267.359 54.1635 269.182 56.1076 271.126 57.3227C276.107 60.4819 282.486 60.6641 288.258 59.5706C294.09 58.5378 299.619 56.4114 305.451 55.1963C311.223 53.9813 320.943 51.7334 326.168 54.5281C329.996 56.5329 332.122 61.8185 334.552 61.0894C336.921 60.3604 338.623 58.234 339.473 55.9254C340.263 53.556 340.263 51.0651 340.263 48.5742Z" fill="#263238"/>
<path d="M365.231 107.799C365.231 107.799 365.534 107.799 365.899 107.556C366.324 107.252 366.871 106.766 367.296 105.976C367.722 105.125 367.965 103.971 367.722 102.635C367.539 101.359 366.689 99.9615 365.413 98.9287C364.198 97.7743 362.558 96.9846 360.856 96.1948C359.095 95.4657 357.151 94.7974 355.449 93.6431C353.748 92.4888 352.351 90.6662 351.561 88.5398C350.711 86.4742 350.346 84.0441 350.407 81.6747C350.528 76.7537 351.865 72.258 352.23 67.9445C352.655 63.6918 351.987 59.6213 350.164 56.8267C348.402 54.032 345.85 52.6954 344.089 52.2702C343.238 52.0879 342.509 52.0879 342.023 52.0879C341.537 52.1284 341.294 52.1689 341.294 52.2094C341.294 52.2702 342.327 52.0271 344.028 52.5132C345.729 52.9992 348.098 54.3965 349.799 57.0697C351.5 59.8036 352.047 63.6918 351.622 67.8837C351.257 72.0757 349.921 76.6322 349.739 81.614C349.739 84.1049 350.042 86.5958 350.954 88.7829C351.804 90.97 353.262 92.9141 355.146 94.1292C356.968 95.3442 358.912 96.0125 360.613 96.7415C362.375 97.4098 363.955 98.1996 365.109 99.2324C366.324 100.265 367.114 101.48 367.357 102.695C367.6 103.91 367.418 105.065 367.053 105.855C366.324 107.495 365.17 107.738 365.231 107.799Z" fill="#455A64"/>
<path d="M275.255 37.6286C275.295 37.5881 275.113 37.4869 274.708 37.3249C274.546 37.2034 274.323 37.1021 274.039 37.0211C273.715 36.9401 273.371 36.8591 273.007 36.7781C271.427 36.4743 268.815 36.7173 266.567 38.7222L266.506 38.7829C264.987 40.5448 263.954 43.2787 264.258 46.3771C264.44 49.4148 266.142 52.6955 268.936 55.0041C271.731 57.3735 275.498 58.8923 279.568 59.3176C283.638 59.7428 287.891 59.3176 292.144 58.5278C299.131 57.1912 305.51 54.518 310.734 51.3589C313.408 49.7793 315.898 48.3212 318.45 47.3492C320.941 46.3771 323.432 45.8911 325.741 45.8911C330.358 45.7696 333.942 47.1669 336.19 48.3212C338.499 49.5363 339.531 50.5691 339.592 50.5083C339.592 50.5083 338.62 49.4148 336.312 48.1389C334.064 46.8631 330.419 45.405 325.741 45.405C323.371 45.405 320.819 45.8303 318.207 46.8631C315.655 47.8352 313.104 49.2933 310.491 50.8121C305.206 53.9713 298.948 56.5837 292.022 57.8595C287.83 58.71 283.578 59.0745 279.629 58.6493C275.68 58.2848 271.974 56.8267 269.301 54.5788C266.567 52.3309 264.926 49.2325 264.744 46.3163C264.44 43.4002 265.352 40.727 266.81 39.026C268.936 37.0211 271.427 36.7173 272.946 36.9603C274.526 37.2034 275.255 37.6894 275.255 37.6286Z" fill="#455A64"/>
<path d="M282.363 27C282.363 27 282.242 28.0328 282.849 29.8554C283.457 31.6173 284.976 34.1081 287.892 35.9307C289.289 36.842 290.99 37.6318 292.935 37.9963C294.939 38.4216 297.066 38.5431 299.253 38.3609C303.749 37.9963 308.427 36.4775 313.287 35.2017C318.208 33.9259 323.068 33.3183 327.321 34.4119C331.574 35.5055 334.793 38.0571 336.859 40.6087C338.925 43.1604 340.018 45.712 340.504 47.4739C340.99 49.2357 341.051 50.2685 341.112 50.2685C341.152 50.2685 341.152 50.0255 341.112 49.5395C341.051 49.0534 340.93 48.3244 340.747 47.4131C340.322 45.5905 339.289 42.9781 337.224 40.305C335.158 37.6926 331.817 35.0194 327.442 33.8651C323.068 32.65 318.086 33.3183 313.165 34.5942C308.184 35.87 303.566 37.3888 299.253 37.7533C297.066 37.9356 294.939 37.8748 293.056 37.5103C291.173 37.1458 289.532 36.4168 288.135 35.5055C285.28 33.8044 283.7 31.4957 283.092 29.7947C282.424 28.0328 282.485 27 282.363 27Z" fill="#455A64"/>
<path d="M288.62 107.622C288.803 108.837 289.046 110.112 289.592 111.267C290.139 112.421 291.111 113.393 292.326 113.697C293.602 114.061 295.06 113.515 295.972 112.603C296.944 111.631 297.49 110.355 297.733 109.019C297.916 107.804 297.673 106.285 296.518 105.92C296.032 105.738 295.485 105.86 294.999 105.92C292.772 106.326 290.524 106.731 288.256 107.136" fill="#AA6550"/>
<path d="M289.774 112.72C289.896 112.538 291.05 113.51 293.116 113.327C294.148 113.267 295.363 112.902 296.275 111.93C297.186 110.958 297.733 109.5 297.611 107.981C297.611 107.617 297.49 107.252 297.368 106.948C297.186 106.584 297.247 106.645 297.004 106.584C296.7 106.584 296.275 106.645 295.91 106.645C295.505 106.685 295.12 106.705 294.756 106.705C293.298 106.827 292.022 106.948 290.868 107.009C288.681 107.07 287.283 107.07 287.283 106.888C287.283 106.766 288.62 106.462 290.807 106.159C291.9 106.037 293.237 105.855 294.695 105.672C295.06 105.632 295.424 105.591 295.789 105.551C296.214 105.551 296.518 105.49 297.064 105.49C297.307 105.49 297.672 105.551 297.915 105.794C298.219 106.037 298.34 106.28 298.401 106.523C298.583 106.948 298.705 107.434 298.766 107.86C298.948 109.743 298.158 111.505 297.004 112.659C295.849 113.813 294.331 114.178 293.176 114.178C291.961 114.117 291.05 113.753 290.503 113.388C289.956 113.084 289.713 112.781 289.774 112.72Z" fill="#263238"/>
<path d="M283.76 132.469C283.76 132.469 295.971 137.086 307.94 133.745C307.94 133.745 298.948 141.278 282.545 138.362L283.76 132.469Z" fill="#AA6550"/>
<path d="M302.411 306.649C302.411 306.71 301.804 306.224 300.771 305.373C300.224 304.948 299.617 304.462 298.827 303.854C298.037 303.308 297.186 302.639 296.154 301.971C295.121 301.303 294.027 300.574 292.751 299.905C291.597 299.176 290.2 298.508 288.802 297.779C285.886 296.382 282.666 295.045 279.143 293.952C275.558 292.919 272.095 292.25 268.936 291.825C267.357 291.643 265.838 291.461 264.44 291.4C262.982 291.339 261.707 291.339 260.491 291.339C259.276 291.278 258.183 291.4 257.211 291.461C256.239 291.461 255.449 291.582 254.72 291.643C253.383 291.764 252.654 291.825 252.654 291.764C252.654 291.764 253.383 291.582 254.72 291.4C255.388 291.278 256.239 291.157 257.211 291.096C258.122 291.035 259.216 290.914 260.491 290.914C261.707 290.853 263.043 290.792 264.44 290.914C265.899 290.914 267.417 291.096 268.997 291.218C272.217 291.643 275.741 292.311 279.325 293.344C282.849 294.438 286.129 295.774 289.046 297.232C290.443 297.961 291.84 298.69 293.055 299.48C294.27 300.148 295.364 300.938 296.397 301.606C297.429 302.275 298.28 303.004 299.009 303.611C299.799 304.158 300.406 304.766 300.892 305.191C301.925 306.102 302.472 306.649 302.411 306.649Z" fill="#FAFAFA"/>
<path d="M231.026 244.249L240.99 201.115C244.817 184.833 249.313 169.28 256.907 167.396V172.439L253.687 295.768C253.687 295.768 233.335 318.915 207.454 306.035C199.374 302.026 184.611 273.775 184.611 273.775C184.611 273.775 150.285 212.475 151.743 209.681C153.141 206.947 174.161 179.851 176.288 178.514L231.026 244.249Z" fill="#E8505B"/>
<path d="M333.579 155.242C353.384 159.009 375.681 170.552 385.948 200.139C389.654 210.953 416.932 290.722 416.932 290.722L370.456 289.75L362.862 273.286L366.568 299.957L369.727 337.988L252.291 339.993L253.081 282.642L254.235 168.669C254.235 168.669 255.572 166.968 275.802 155.789C288.378 148.863 333.579 155.242 333.579 155.242Z" fill="#E8505B"/>
<g opacity="0.2">
<path d="M345.242 231.436C347.186 255.494 349.434 262.906 351.318 286.964C351.5 289.273 351.743 291.581 352.593 293.647C353.505 295.773 355.206 297.657 357.454 298.082C360.917 298.811 365.351 301.241 366.324 297.9L363.043 274.753C363.043 274.753 362.314 270.378 359.823 264.971C352.654 248.932 349.981 248.021 345.242 231.436Z" fill="black"/>
</g>
<path d="M275.803 168.127L276.167 165.636L279.934 141.639C280.177 140.181 281.453 139.148 282.911 139.269L329.144 143.158C332.06 143.401 334.247 145.892 334.004 148.808L332.972 162.781L318.573 181.614L297.795 184.834" fill="#E8505B"/>
<path d="M252.595 213.268C252.777 213.268 252.899 232.101 252.899 255.309C252.899 278.456 252.777 297.289 252.595 297.289C252.413 297.289 252.291 278.456 252.291 255.309C252.291 232.101 252.413 213.268 252.595 213.268Z" fill="#263238"/>
<path d="M371.428 293.58C371.428 293.58 371.368 293.479 371.246 293.276C371.165 293.074 371.044 292.81 370.882 292.486C370.558 291.717 370.092 290.644 369.484 289.267C368.269 286.472 366.507 282.401 364.381 277.48C360.189 267.456 354.357 253.665 347.917 238.477C344.697 230.822 341.659 223.592 338.865 216.97C337.407 213.689 336.435 210.348 335.888 207.189C335.341 204.03 335.098 201.053 335.098 198.319C335.037 192.851 335.827 188.477 336.921 185.621C337.042 185.257 337.164 184.913 337.285 184.589C337.447 184.305 337.589 184.022 337.71 183.738C337.953 183.212 338.196 182.786 338.439 182.462C338.642 182.179 338.824 181.936 338.986 181.733C339.108 181.571 339.169 181.49 339.169 181.49C339.229 181.551 338.136 182.827 337.164 185.682C336.131 188.538 335.402 192.912 335.523 198.319C335.645 203.665 336.374 210.227 339.412 216.727C342.206 223.349 345.244 230.579 348.464 238.234C354.843 253.483 360.614 267.274 364.806 277.298C366.872 282.28 368.512 286.35 369.727 289.206C370.254 290.583 370.679 291.656 371.003 292.426C371.125 292.75 371.226 293.033 371.307 293.276C371.388 293.479 371.428 293.58 371.428 293.58Z" fill="#263238"/>
<path d="M347.978 159.443C347.978 159.443 347.553 159.869 346.641 160.598C345.669 161.327 344.211 162.299 342.206 163.21C340.141 164.061 337.528 164.85 334.369 165.397C331.271 165.883 327.686 166.248 323.677 166.43C319.728 166.612 315.353 166.551 310.675 166.612C306.058 166.734 301.016 167.038 295.973 168.435C290.991 169.771 285.827 172.262 282.182 176.576C280.359 178.702 279.023 181.315 278.294 184.17C277.626 186.965 277.565 190.002 278.476 192.858C278.901 194.255 279.63 195.531 280.481 196.746C281.392 197.9 282.547 198.811 283.762 199.48C285.037 200.148 286.435 200.513 287.832 200.33C289.229 200.209 290.505 199.541 291.417 198.508C293.239 196.442 293.543 193.465 293.178 190.853C292.996 189.516 292.632 188.18 292.024 187.025C291.477 185.871 290.688 184.777 289.898 183.745C286.556 179.735 281.878 177.426 277.443 176.394C272.887 175.3 268.452 175.543 264.685 176.515C260.858 177.487 257.577 179.067 254.904 180.707C252.231 182.347 250.104 184.048 248.464 185.507C246.763 186.965 245.609 188.24 244.758 189.091C244.394 189.496 244.09 189.82 243.847 190.063C243.644 190.266 243.543 190.367 243.543 190.367C243.543 190.367 245.001 188.362 248.282 185.324C249.922 183.866 252.048 182.104 254.722 180.403C257.395 178.702 260.675 177.123 264.564 176.09C268.391 175.057 272.948 174.814 277.565 175.907C282.121 176.94 286.86 179.249 290.323 183.38C291.174 184.413 291.963 185.507 292.571 186.782C293.178 187.997 293.604 189.334 293.786 190.731C293.968 192.129 294.029 193.587 293.725 194.984C293.421 196.381 292.875 197.779 291.842 198.933C290.87 200.027 289.412 200.816 287.893 200.938C286.374 201.12 284.855 200.756 283.458 200.027C282.121 199.358 280.967 198.325 279.995 197.11C279.084 195.895 278.355 194.498 277.869 193.04C276.957 190.063 276.957 186.904 277.686 183.988C278.415 181.072 279.813 178.398 281.696 176.151C285.463 171.716 290.748 169.225 295.852 167.827C300.955 166.43 305.997 166.187 310.675 166.065C315.353 166.005 319.728 166.126 323.677 166.005C327.625 165.822 331.21 165.519 334.308 165.033C337.407 164.547 340.019 163.818 342.085 162.967C344.15 162.116 345.608 161.205 346.52 160.476C347.006 160.172 347.37 159.869 347.613 159.686C347.856 159.524 347.978 159.443 347.978 159.443Z" fill="#FAFAFA"/>
<path d="M388.135 209.992C388.135 210.033 387.973 210.073 387.649 210.114C387.285 210.114 386.799 210.175 386.13 210.175C384.855 210.235 382.971 210.235 380.602 210.053C378.293 209.871 375.559 209.567 372.522 209.142C369.484 208.717 366.143 208.231 362.619 208.048C359.156 207.866 355.754 208.17 352.777 208.777C349.861 209.446 347.248 210.478 345.304 211.633C341.295 214.002 339.897 216.675 339.776 216.554C339.735 216.554 339.816 216.412 340.019 216.128C340.201 215.825 340.444 215.399 340.869 214.913C341.72 213.881 343.056 212.544 345.061 211.268C347.005 209.992 349.679 208.96 352.655 208.231C355.693 207.562 359.095 207.259 362.68 207.441C366.203 207.623 369.545 208.109 372.583 208.534C375.62 209.02 378.354 209.385 380.663 209.628C382.971 209.871 384.855 209.932 386.13 209.932C387.406 209.932 388.135 209.932 388.135 209.992Z" fill="#FAFAFA"/>
<path d="M358.974 264.482C358.913 264.603 356.483 263.57 351.987 263.874C349.739 263.996 346.945 264.482 343.846 265.332C340.748 266.183 337.285 267.398 333.397 268.613C329.569 269.767 325.134 270.921 320.335 270.861C315.535 270.861 310.371 269.889 305.39 267.762C300.408 265.697 295.669 262.355 291.781 257.859C289.837 255.672 288.196 253.121 286.981 250.326C285.766 247.531 285.159 244.372 285.584 241.213C286.07 238.054 287.528 235.077 289.898 233.072C291.113 232.039 292.449 231.31 293.968 230.946C295.487 230.642 297.066 230.703 298.524 231.128C299.983 231.492 301.319 232.222 302.413 233.254C303.506 234.287 304.296 235.563 304.6 237.021C304.904 238.479 304.782 239.937 304.296 241.274C303.749 242.61 302.959 243.765 301.987 244.797C300.104 246.742 297.735 248.078 295.305 248.989C294.089 249.475 292.874 249.84 291.659 250.022C291.052 250.144 290.444 250.265 289.837 250.326C289.229 250.407 288.622 250.488 288.014 250.569C283.275 251.116 278.719 250.569 274.77 249.658C270.821 248.686 267.358 247.228 264.563 245.709C261.708 244.129 259.46 242.489 257.698 240.97C257.293 240.605 256.909 240.261 256.544 239.937C256.179 239.573 255.835 239.228 255.511 238.904C254.904 238.297 254.397 237.75 253.992 237.264C253.628 236.859 253.344 236.515 253.142 236.231C252.939 235.988 252.858 235.867 252.899 235.867C252.899 235.867 253 235.988 253.203 236.231C253.446 236.474 253.749 236.798 254.114 237.203C254.519 237.649 255.025 238.175 255.633 238.783C255.957 239.107 256.301 239.431 256.665 239.755C257.03 240.079 257.435 240.423 257.881 240.788C259.582 242.246 261.89 243.886 264.685 245.405C267.54 246.924 270.942 248.26 274.891 249.172C278.78 250.083 283.275 250.569 288.014 250.022C288.581 249.982 289.168 249.921 289.776 249.84C290.384 249.718 290.93 249.597 291.538 249.475C292.753 249.293 293.968 248.929 295.122 248.503C297.431 247.592 299.74 246.256 301.562 244.372C302.473 243.4 303.263 242.307 303.689 241.092C304.175 239.876 304.296 238.479 303.992 237.143C303.445 234.469 301.076 232.404 298.342 231.736C297.006 231.31 295.548 231.249 294.15 231.553C292.753 231.857 291.416 232.586 290.323 233.558C288.075 235.441 286.678 238.297 286.192 241.274C285.766 244.311 286.435 247.349 287.528 250.083C288.743 252.817 290.384 255.308 292.267 257.495C296.034 261.869 300.712 265.15 305.633 267.215C310.493 269.342 315.596 270.314 320.335 270.314C325.074 270.375 329.448 269.342 333.275 268.127C337.164 266.972 340.626 265.818 343.786 264.968C346.884 264.178 349.679 263.692 351.987 263.631C353.081 263.509 354.114 263.631 354.964 263.692C355.876 263.813 356.605 263.874 357.151 263.995C357.718 264.157 358.164 264.279 358.488 264.36C358.812 264.401 358.974 264.441 358.974 264.482Z" fill="#FAFAFA"/>
<path d="M252.169 251.481C252.048 251.542 251.501 250.206 250.347 248.262C249.192 246.257 247.309 243.705 244.697 241.275C242.145 238.906 239.411 237.204 237.345 236.172C235.28 235.139 233.943 234.653 234.004 234.531C234.004 234.531 234.368 234.592 234.976 234.774C235.584 234.957 236.495 235.26 237.588 235.746C239.715 236.718 242.509 238.359 245.122 240.789C247.795 243.28 249.618 245.953 250.711 248.018C251.258 249.051 251.683 249.902 251.865 250.509C252.108 251.178 252.23 251.481 252.169 251.481Z" fill="#FAFAFA"/>
<path d="M205.022 303.485C205.022 303.525 204.962 303.424 204.84 303.181C204.719 302.978 204.557 302.674 204.354 302.269C203.929 301.48 203.261 300.265 202.471 298.746C200.952 295.587 198.704 291.03 196.942 285.016C196.092 282.039 195.363 278.636 195.18 274.991C195.059 273.108 195.18 271.225 195.423 269.28C195.707 267.296 196.193 265.331 196.882 263.387C198.279 259.499 200.527 255.55 203.99 252.573C207.392 249.596 212.07 247.531 216.93 248.017C219.36 248.26 221.79 249.232 223.37 251.115C224.889 252.938 225.679 255.429 225.132 257.798C224.889 258.892 224.281 259.985 223.431 260.775C222.58 261.565 221.547 262.112 220.454 262.415C218.267 263.023 215.958 262.598 214.135 261.626C212.252 260.653 210.733 259.195 209.458 257.677C208.242 256.097 207.27 254.457 206.541 252.756C205.144 249.293 204.658 245.769 204.962 242.671C205.205 239.511 206.177 236.777 207.331 234.59C208.546 232.403 209.883 230.702 211.159 229.487C212.434 228.272 213.528 227.421 214.257 226.935C214.682 226.692 214.986 226.51 215.168 226.389C215.371 226.267 215.472 226.227 215.472 226.267C215.533 226.267 215.108 226.51 214.378 227.057C213.589 227.543 212.556 228.393 211.341 229.669C210.126 230.884 208.789 232.585 207.635 234.712C206.541 236.899 205.63 239.633 205.387 242.671C205.144 245.769 205.63 249.171 207.027 252.513C207.756 254.214 208.728 255.793 209.883 257.312C211.098 258.831 212.617 260.167 214.378 261.079C216.14 262.051 218.267 262.355 220.332 261.808C222.276 261.322 224.099 259.742 224.524 257.616C225.01 255.55 224.342 253.242 222.884 251.54C221.426 249.839 219.178 248.867 216.869 248.624C212.252 248.199 207.696 250.143 204.415 253.059C201.013 255.915 198.826 259.742 197.428 263.57C196.74 265.514 196.254 267.438 195.97 269.341C195.727 271.225 195.606 273.108 195.727 274.93C195.849 278.576 196.578 281.917 197.368 284.894C199.069 290.909 201.256 295.465 202.714 298.624C203.443 300.163 204.03 301.358 204.476 302.209C204.638 302.614 204.78 302.938 204.901 303.181C204.982 303.383 205.022 303.485 205.022 303.485Z" fill="#FAFAFA"/>
<path d="M190.016 196.258C190.056 196.258 190.097 196.42 190.137 196.744C190.198 197.108 190.259 197.594 190.32 198.202C190.441 199.478 190.502 201.361 190.32 203.67C189.955 208.226 188.315 214.666 184.305 220.498C180.295 226.391 174.888 230.219 170.696 232.163C168.631 233.135 166.869 233.743 165.654 234.107C165.046 234.289 164.499 234.411 164.196 234.472C163.872 234.553 163.71 234.573 163.71 234.532C163.649 234.472 164.378 234.289 165.532 233.864C166.747 233.439 168.509 232.771 170.514 231.738C174.584 229.733 179.809 225.905 183.819 220.134C187.768 214.423 189.408 208.165 189.894 203.609C190.077 201.361 190.137 199.539 190.077 198.263C190.016 196.987 189.955 196.258 190.016 196.258Z" fill="#FAFAFA"/>
<path d="M398.765 248.928C398.887 249.05 396.457 250.022 394.087 253.181C392.872 254.76 391.657 256.826 390.26 259.013C388.923 261.261 387.162 263.691 385.096 265.878C380.904 270.435 376.226 273.533 372.642 275.295C370.88 276.206 369.361 276.753 368.267 277.118C367.235 277.482 366.627 277.664 366.627 277.604C366.627 277.543 367.174 277.3 368.207 276.875C369.239 276.449 370.697 275.842 372.459 274.87C375.922 273.047 380.539 269.949 384.61 265.453C386.676 263.266 388.377 260.957 389.774 258.709C391.171 256.522 392.447 254.517 393.723 252.938C394.999 251.358 396.275 250.325 397.247 249.718C397.692 249.394 398.057 249.191 398.34 249.11C398.624 248.948 398.765 248.888 398.765 248.928Z" fill="#FAFAFA"/>
<path d="M333.094 156.648C333.094 156.688 332.911 156.729 332.547 156.769C332.101 156.85 331.575 156.952 330.967 157.073C329.509 157.316 327.504 157.62 324.953 157.984C319.91 158.653 312.924 159.443 305.147 159.989C301.259 160.293 297.553 160.536 294.212 160.415C290.809 160.293 287.772 159.746 285.342 158.896C282.911 158.045 281.089 157.012 279.935 156.162C279.327 155.737 278.902 155.372 278.659 155.129C278.375 154.846 278.233 154.704 278.233 154.704C278.294 154.643 278.902 155.19 280.056 155.98C281.21 156.709 283.033 157.741 285.463 158.471C287.893 159.2 290.87 159.746 294.212 159.807C297.553 159.929 301.259 159.686 305.147 159.382C312.863 158.835 319.849 158.106 324.892 157.498C327.383 157.255 329.388 157.012 330.907 156.83C332.304 156.648 333.094 156.587 333.094 156.648Z" fill="#263238"/>
<path d="M416.326 299.302C420.214 319.29 404.965 337.88 384.612 338.123L292.571 337.09L295.001 307.261L373.92 295.535" fill="#B78876"/>
<path d="M300.711 308.659C300.286 308.781 294.94 306.412 290.201 304.224C285.158 301.855 279.569 300.762 274.04 301.065L252.109 302.159C252.109 302.159 253.445 305.804 255.754 307.08C258.062 308.356 271.732 308.659 271.732 308.659L271.003 309.389C268.147 312.305 264.259 314.067 260.128 314.127L258.002 314.188C256.463 314.067 254.944 313.763 253.445 313.277L248.038 311.09C246.398 310.361 244.636 310.482 243.968 312.122C243.299 313.641 243.785 315.707 248.22 317.955C250.711 319.231 260.006 322.39 260.006 322.39C260.006 322.39 260.128 324.941 260.553 326.339C260.918 327.675 264.563 329.012 264.563 329.012C264.563 329.012 266.872 333.751 267.783 334.783C268.208 335.269 271.55 336.302 275.013 337.274C280.723 338.854 286.677 338.854 292.327 337.153L300.711 334.662V309.206" fill="#B78876"/>
<path d="M270.7 325.305C270.639 325.426 268.088 325.305 264.989 324.454C261.891 323.665 259.521 322.51 259.582 322.389C259.643 322.207 262.073 323.118 265.111 323.908C268.148 324.758 270.7 325.123 270.7 325.305Z" fill="#AA6550"/>
<path d="M269.91 330.403C269.91 330.586 268.513 330.646 266.811 330.16C265.171 329.735 263.956 328.945 264.017 328.824C264.138 328.702 265.353 329.249 266.933 329.674C268.573 330.1 269.91 330.282 269.91 330.403Z" fill="#AA6550"/>
<path d="M273.917 306.649C273.977 306.709 273.309 307.438 272.216 308.471C271.122 309.504 269.482 310.901 267.416 312.116C265.411 313.271 263.346 313.939 261.827 314.243C260.308 314.547 259.397 314.607 259.336 314.547C259.336 314.304 263.163 313.939 267.173 311.63C269.117 310.476 270.758 309.14 271.973 308.168C273.127 307.195 273.856 306.588 273.917 306.649Z" fill="#AA6550"/>
<path d="M302.9 304.641L300.713 338.298L387.408 338.359C393.24 338.359 399.072 336.78 404.115 333.742C415.78 326.694 421.855 313.086 419.182 299.659C418.331 294.191 416.205 287.812 413.592 280.947L370.032 288.177L371.43 293.584L302.9 304.641Z" fill="#E8505B"/>
<path d="M391.475 290.786C391.475 290.786 391.191 290.847 390.624 290.968C389.976 291.09 389.126 291.231 388.073 291.393C385.825 291.819 382.666 292.305 378.777 292.973C370.819 294.249 359.944 295.95 347.976 297.894C335.946 299.717 325.072 301.357 317.113 302.572C313.225 303.18 310.005 303.605 307.757 303.969C306.704 304.091 305.853 304.192 305.205 304.273C304.598 304.354 304.294 304.395 304.294 304.395C304.294 304.354 304.598 304.273 305.205 304.152C305.813 304.03 306.643 303.888 307.696 303.726C310.005 303.301 313.164 302.815 317.052 302.147C324.95 300.871 335.825 299.17 347.854 297.226C359.883 295.403 370.758 293.763 378.717 292.548C382.605 291.94 385.764 291.515 388.073 291.15C389.126 291.029 389.976 290.928 390.624 290.847C391.191 290.766 391.475 290.745 391.475 290.786Z" fill="#263238"/>
<path d="M347.124 338.358C347.003 338.358 347.671 335.928 347.732 331.979C347.732 331.007 347.732 329.913 347.61 328.759C347.55 327.544 347.307 326.329 347.063 325.053C346.517 322.501 345.605 319.767 344.269 317.094C342.872 314.36 341.231 312.052 339.53 310.047C339.085 309.561 338.659 309.075 338.254 308.589C337.829 308.163 337.404 307.738 336.978 307.313C336.128 306.462 335.277 305.794 334.548 305.186C331.45 302.696 329.263 301.541 329.324 301.42C329.324 301.359 329.87 301.663 330.842 302.21C331.328 302.453 331.936 302.817 332.604 303.242C333.272 303.728 334.062 304.154 334.791 304.822C335.581 305.429 336.492 306.098 337.343 306.948C337.768 307.374 338.194 307.738 338.619 308.224C339.064 308.67 339.51 309.135 339.955 309.621C341.717 311.626 343.418 314.056 344.816 316.79C346.213 319.524 347.124 322.319 347.671 324.931C347.853 326.268 348.096 327.483 348.157 328.698C348.279 329.852 348.218 331.007 348.157 331.979C348.218 333.011 348.036 333.862 347.914 334.652C347.853 335.502 347.732 336.171 347.61 336.717C347.307 337.811 347.185 338.358 347.124 338.358Z" fill="#FAFAFA"/>
<path d="M399.921 335.809C399.921 335.809 398.463 335.87 395.911 335.384C394.636 335.019 393.056 334.594 391.416 333.744C389.715 332.954 387.953 331.739 386.312 329.977C384.733 328.276 383.335 326.028 382.606 323.294C382.242 321.957 381.999 320.56 381.938 319.041C381.877 317.583 381.999 316.064 382.303 314.545C382.667 313.027 383.214 311.447 384.125 310.05C384.976 308.652 386.252 307.437 387.77 306.587C389.228 305.736 391.051 305.311 392.813 305.432C394.635 305.554 396.397 306.465 397.612 307.923C398.767 309.321 399.435 311.204 399.192 313.027C398.949 314.849 397.673 316.368 396.215 317.279C393.177 319.102 389.654 319.102 386.616 318.616C380.419 317.583 375.559 313.877 373.068 309.928C370.456 305.979 369.787 302.03 369.727 299.479C369.666 296.806 370.091 295.408 370.091 295.408C370.152 295.408 369.848 296.866 369.97 299.418C370.152 301.97 370.82 305.797 373.433 309.685C375.924 313.513 380.662 317.036 386.738 318.008C389.654 318.494 393.056 318.434 395.851 316.733C397.248 315.943 398.341 314.545 398.584 312.905C398.767 311.326 398.22 309.624 397.126 308.288C396.033 306.951 394.453 306.162 392.752 306.04C391.112 305.919 389.471 306.344 388.074 307.134C385.158 308.713 383.518 311.751 382.91 314.667C382.546 316.125 382.424 317.583 382.485 319.041C382.546 320.499 382.789 321.897 383.092 323.172C383.761 325.785 385.097 327.972 386.677 329.673C388.196 331.374 389.957 332.589 391.537 333.44C393.177 334.29 394.696 334.776 395.972 335.141C398.463 335.748 399.921 335.748 399.921 335.809Z" fill="#FAFAFA"/>
</svg>
