<svg width="399" height="341" viewBox="0 0 399 341" fill="none" xmlns="http://www.w3.org/2000/svg">
<g clip-path="url(#clip0_2863_19784)">
<path d="M21.1006 0V320.37L60.3005 314.79L182.392 297.41L350.102 273.54L350.532 150.68C334.672 154.98 317.857 154.125 302.515 148.239C287.174 142.353 274.101 131.741 265.188 117.937C256.274 104.133 251.981 87.8522 252.929 71.4478C253.877 55.0433 260.017 39.3655 270.462 26.6802L21.1006 0Z" fill="#E7E1FF"/>
<path d="M327.815 141.63C363.422 141.63 392.288 112.764 392.288 77.1566C392.288 41.5491 363.422 12.6836 327.815 12.6836C292.207 12.6836 263.342 41.5491 263.342 77.1566C263.342 112.764 292.207 141.63 327.815 141.63Z" fill="#E7E1FF"/>
<g clip-path="url(#clip1_2863_19784)">
<path d="M359.864 58.3832C359.864 61.7544 357.131 64.4876 353.76 64.4876C350.389 64.4876 347.655 61.7544 347.655 58.3832C347.655 55.012 350.389 52.2793 353.76 52.2793C357.131 52.2793 359.864 55.012 359.864 58.3832Z" fill="#448AFF"/>
<path d="M309.505 77.0004C309.505 80.3716 306.773 83.1048 303.401 83.1048C300.03 83.1048 297.297 80.3716 297.297 77.0004C297.297 73.6292 300.03 70.8965 303.401 70.8965C306.773 70.8965 309.505 73.6292 309.505 77.0004Z" fill="#448AFF"/>
<path d="M319.882 89.971V83.0596C319.882 81.0101 321.245 79.2099 323.217 78.6535L331.785 76.2369V71.2012H338.499V76.2369L347.067 78.6535C349.04 79.2099 350.402 81.0095 350.402 83.0596V89.971H319.882Z" fill="#B2EBF2"/>
<path d="M338.5 71.2012H331.785V76.2369C332.495 77.339 333.733 78.068 335.143 78.068C336.551 78.068 337.79 77.339 338.5 76.2369V71.2012Z" fill="#FFC8B8"/>
<path d="M341.904 66.8969C341.972 66.5101 342.01 66.1132 342.01 65.7067V62.3498C342.01 58.5567 338.935 55.4824 335.142 55.4824C331.608 55.4824 328.698 58.1532 328.318 61.5863H337.889L341.904 66.8969Z" fill="#757575"/>
<path d="M337.889 61.5879H328.318C328.29 61.8384 328.274 62.0931 328.274 62.3514V65.7083C328.274 69.5008 331.349 72.5757 335.142 72.5757C338.528 72.5757 341.34 70.1239 341.904 66.8985L337.889 61.5879Z" fill="#FFDED4"/>
<path d="M352.539 102.18C352.539 105.551 349.806 108.284 346.435 108.284C343.064 108.284 340.331 105.551 340.331 102.18C340.331 98.8088 343.064 96.0762 346.435 96.0762C349.806 96.0762 352.539 98.8088 352.539 102.18Z" fill="#448AFF"/>
<path d="M353.76 59.9089C351.198 59.9089 349.007 58.3301 348.101 56.0938C347.815 56.8007 347.655 57.5732 347.655 58.3825C347.655 61.7537 350.389 64.4869 353.76 64.4869C357.131 64.4869 359.864 61.7537 359.864 58.3825C359.864 57.5732 359.705 56.8007 359.418 56.0938C358.513 58.3301 356.321 59.9089 353.76 59.9089Z" fill="#2979FF"/>
<path d="M303.401 78.5261C300.839 78.5261 298.648 76.9473 297.743 74.7109C297.456 75.4179 297.297 76.1903 297.297 76.9997C297.297 80.3709 300.03 83.1041 303.401 83.1041C306.772 83.1041 309.505 80.3709 309.505 76.9997C309.505 76.1903 309.346 75.4179 309.059 74.7109C308.154 76.9473 305.963 78.5261 303.401 78.5261Z" fill="#2979FF"/>
<path d="M346.435 103.706C343.874 103.706 341.682 102.128 340.776 99.8906C340.49 100.598 340.331 101.37 340.331 102.18C340.331 105.551 343.064 108.284 346.435 108.284C349.806 108.284 352.539 105.551 352.539 102.18C352.539 101.37 352.38 100.598 352.094 99.8906C351.188 102.128 348.997 103.706 346.435 103.706Z" fill="#2979FF"/>
<path d="M368.882 77.0094C370.523 73.7375 371.815 70.4485 372.712 67.2076C375.524 57.0529 374.162 48.5496 368.877 43.2652C363.593 37.9808 355.089 36.6186 344.935 39.4304C341.694 40.3272 338.405 41.6198 335.133 43.2604C331.062 41.2175 326.986 39.7226 323.058 38.8615C313.936 36.862 306.246 38.4259 301.408 43.2652C298.302 46.371 296.5 50.7348 296.199 55.8853C295.929 60.5187 296.868 65.8359 298.914 71.3131C297.234 72.642 296.152 74.6962 296.152 76.9998C296.152 79.3035 297.234 81.3577 298.914 82.6866C296.868 88.1638 295.929 93.4816 296.199 98.1144C296.501 103.265 298.302 107.629 301.408 110.735C304.876 114.203 309.742 115.992 315.62 115.992C316.8 115.992 318.021 115.92 319.28 115.774C324.32 115.193 329.705 113.476 335.14 110.743C338.41 112.382 341.697 113.673 344.935 114.569C348.39 115.526 351.655 116 354.667 116C360.504 116 365.391 114.221 368.877 110.735C373.716 105.896 375.28 98.2066 373.281 89.0832C372.42 85.1562 370.925 81.0798 368.882 77.0094ZM345.545 41.6364C354.871 39.0543 362.582 40.2076 367.258 44.8838C371.935 49.5601 373.088 57.2713 370.506 66.597C369.783 69.2095 368.789 71.8576 367.554 74.5034C365.34 70.5336 362.618 66.6 359.463 62.8479C360.43 61.6161 361.008 60.0659 361.008 58.3823C361.008 56.7548 360.481 55.217 359.484 53.9352L357.677 55.3402C358.359 56.2168 358.719 57.2689 358.719 58.3823C358.719 61.1174 356.494 63.3419 353.76 63.3419C351.025 63.3419 348.8 61.1174 348.8 58.3823C348.8 55.6473 351.025 53.4228 353.76 53.4228C354.652 53.4228 355.528 53.6621 356.29 54.1155L357.46 52.1482C356.344 51.4846 355.064 51.1335 353.76 51.1335C352.076 51.1335 350.526 51.7125 349.295 52.679C345.542 49.5244 341.609 46.8018 337.639 44.5875C340.284 43.3527 342.933 42.3595 345.545 41.6364ZM303.026 44.8838C309.215 38.6955 320.562 38.9264 332.636 44.5809C326.742 47.8682 320.961 52.2701 315.686 57.5439C311.775 61.4548 308.333 65.6556 305.442 70.0408C304.79 69.8516 304.105 69.751 303.401 69.751C302.535 69.751 301.705 69.9045 300.935 70.1836C296.969 59.375 297.711 50.198 303.026 44.8838ZM315.679 113.694C310.501 113.694 306.099 112.189 303.026 109.116C297.711 103.802 296.968 94.6253 300.935 83.816C301.705 84.0957 302.535 84.2487 303.401 84.2487C304.109 84.2487 304.792 84.1445 305.439 83.9547C308.331 88.3417 311.774 92.5437 315.686 96.4558C320.959 101.728 326.738 106.128 332.631 109.416C326.578 112.248 320.755 113.695 315.679 113.694ZM335.136 108.17C328.953 104.923 322.848 100.38 317.305 94.8372C313.58 91.1119 310.295 87.12 307.525 82.9567C309.411 81.6469 310.649 79.4659 310.649 77.0004C310.649 76.7856 310.64 76.5684 310.621 76.3548L308.341 76.5565C308.354 76.7029 308.361 76.8517 308.361 76.9998C308.361 79.7349 306.136 81.9594 303.401 81.9594C300.667 81.9594 298.442 79.7349 298.442 76.9998C298.442 74.2648 300.667 72.0403 303.401 72.0403C305.29 72.0403 306.99 73.0901 307.838 74.7796L309.884 73.7536C309.324 72.6378 308.509 71.7136 307.529 71.0346C310.299 66.8749 313.583 62.8848 317.305 59.1625C322.849 53.618 328.957 49.0739 335.141 45.8265C339.35 48.042 343.609 50.8985 347.734 54.3577C346.962 55.5098 346.511 56.894 346.511 58.3823C346.511 62.379 349.763 65.6306 353.76 65.6306C355.248 65.6306 356.632 65.1795 357.784 64.4071C361.244 68.5329 364.1 72.7919 366.315 77.0004C363.068 83.1847 358.523 89.2921 352.98 94.8372C352.37 95.4466 351.743 96.0524 351.11 96.6457C349.846 95.5769 348.215 94.9306 346.435 94.9306C344.807 94.9306 343.269 95.4579 341.988 96.4546L343.393 98.2613C344.269 97.58 345.321 97.2199 346.435 97.2193C349.169 97.2193 351.394 99.4444 351.394 102.179C351.394 104.914 349.169 107.138 346.435 107.138C343.7 107.138 341.475 104.914 341.475 102.179C341.475 101.286 341.714 100.411 342.168 99.6491L340.201 98.4786C339.537 99.5949 339.186 100.874 339.186 102.179C339.186 103.327 339.456 104.413 339.933 105.379C338.329 106.402 336.727 107.333 335.136 108.17ZM367.258 109.116C362.582 113.793 354.871 114.945 345.545 112.364C342.934 111.641 340.289 110.649 337.645 109.415C338.85 108.741 340.057 108.018 341.259 107.248C342.576 108.592 344.409 109.428 346.435 109.428C350.431 109.428 353.684 106.176 353.684 102.179C353.684 100.788 353.288 99.4872 352.606 98.3816C353.281 97.7502 353.948 97.1051 354.598 96.4558C359.872 91.1809 364.273 85.3996 367.561 79.5052C373.216 91.5802 373.447 102.927 367.258 109.116Z" fill="black"/>
<path d="M353.912 88.8268H351.547V83.0597C351.547 80.5092 349.833 78.2442 347.378 77.5516L346.522 77.3105L345.901 79.5136L346.757 79.7552C348.229 80.1706 349.258 81.5292 349.258 83.0597V88.8268H345.138V85.6984H342.849V88.8268H332.548V91.1155H353.912V88.8268Z" fill="black"/>
<path d="M338.927 77.5465L343.698 78.8926L344.319 76.689L339.644 75.3703V72.3305C341.761 70.8868 343.154 68.4571 343.154 65.7072V62.3496C343.154 57.9323 339.56 54.3379 335.142 54.3379C330.725 54.3379 327.13 57.9323 327.13 62.3496V65.7072C327.13 68.4571 328.523 70.8868 330.64 72.3305V75.3703L322.906 77.5513C320.451 78.244 318.737 80.5089 318.737 83.0595V88.8265H316.372V91.1153H330.259V88.8265H327.435V85.6981H325.147V88.8265H321.026V83.0595C321.026 81.5289 322.055 80.1703 323.527 79.7549L331.357 77.5471C332.321 78.6016 333.682 79.2128 335.142 79.2128C336.602 79.2128 337.964 78.601 338.927 77.5465ZM335.142 56.6272C338.297 56.6272 340.864 59.1944 340.864 62.3502V63.6249L338.458 60.4424H329.747C330.535 58.2221 332.655 56.6272 335.142 56.6272ZM329.419 65.7072V62.7317H337.319L340.674 67.1687C340.026 69.6187 337.792 71.4296 335.142 71.4296C331.987 71.4296 329.419 68.8623 329.419 65.7072ZM332.929 75.8672V73.4053C333.632 73.6082 334.374 73.7189 335.142 73.7189C335.91 73.7189 336.651 73.6082 337.354 73.4053V75.8672C336.817 76.5331 336.011 76.9235 335.142 76.9235C334.273 76.9235 333.467 76.5331 332.929 75.8672Z" fill="black"/>
<path d="M345.59 84.1836L343.387 83.5623L344.008 81.3587L346.212 81.9806L345.59 84.1836ZM341.184 82.9411L337.96 82.0318L338.581 79.8281L341.805 80.7374L341.184 82.9411Z" fill="white"/>
<path d="M352.615 57.2383H354.904V59.5276H352.615V57.2383Z" fill="white"/>
<path d="M345.29 101.035H347.579V103.324H345.29V101.035Z" fill="white"/>
<path d="M302.256 75.8555H304.545V78.1442H302.256V75.8555Z" fill="white"/>
</g>
<path d="M332.813 139.964C368.42 139.964 397.286 111.098 397.286 75.4906C397.286 39.8831 368.42 11.0176 332.813 11.0176C297.205 11.0176 268.34 39.8831 268.34 75.4906C268.34 111.098 297.205 139.964 332.813 139.964Z" stroke="#594A96" stroke-width="2.95" stroke-miterlimit="10"/>
<path d="M178.861 297.254C178.854 297.276 130.122 306.089 125.214 305.118C123.457 304.777 118.614 294.102 118.203 289.788C117.202 280.117 117.252 270.366 118.352 260.705C118.418 260.205 118.493 259.696 118.574 259.199C118.722 258.236 118.893 257.287 119.086 256.36C119.642 253.654 120.339 251.089 120.998 248.66C126.581 228.154 91.5517 193.18 102.776 182.416C103.639 181.565 104.614 180.837 105.676 180.251C108.976 178.486 115.736 178.943 120.117 181.315C123.972 183.398 131.007 187.854 135.496 193.884C157.921 224.008 159.096 230.251 162.98 237.884C170.152 251.986 178.155 287.767 178.861 297.254Z" fill="url(#paint0_linear_2863_19784)"/>
<path d="M31.8398 135.788C40.1308 159.747 66.2819 162.643 71.5159 155.165C75.4669 149.521 81.2798 149.959 85.9158 144.858C88.5528 141.953 91.0349 138.869 94.0979 136.416C98.6689 132.754 104.282 130.692 109.376 127.804C122.788 120.204 136.558 115.293 137.934 90.8522C138.101 87.8922 136.005 85.2523 135.054 82.4423C134.162 80.1841 132.837 78.1221 131.154 76.3722C124.373 68.6293 116.021 62.4186 106.654 58.1532C102.308 56.112 97.7013 54.6808 92.9639 53.9003C75.8089 51.3073 58.0999 60.4462 48.0579 74.6002C42.8371 82.1278 39.3339 90.7106 37.7959 99.7414C36.9801 104.313 36.5807 108.949 36.6028 113.593C36.6158 117.903 37.845 122.517 37.386 126.742C37.123 129.054 36.6188 134.837 31.8398 135.788Z" fill="url(#paint1_linear_2863_19784)"/>
<path d="M100.06 153.391L104.226 187.464C104.226 187.464 69.3804 186.584 63.5674 187.45C65.0854 171.843 66.2114 156.765 67.0764 148.559C72.3384 153.368 96.3953 153.995 100.06 153.391Z" fill="#FA997B"/>
<path d="M66.3994 155.646C77.4457 162.857 89.5616 168.277 102.299 171.707L100.89 160.186C100.89 160.186 80.8794 160.822 66.3994 155.646Z" fill="#EF5D23"/>
<path d="M50.0915 284.609C50.1915 285.655 50.2517 286.703 50.2917 287.767L146.681 277.73C141.837 261.077 141.374 241.83 130.462 218.606C125.068 207.126 116.262 184.552 106.134 181.99C99.9475 180.424 98.3876 187.353 88.3796 186.244C78.1086 185.107 63.5625 168.01 56.2795 173.999C36.2265 190.503 45.3185 232.554 50.0915 284.609Z" fill="url(#paint2_linear_2863_19784)"/>
<path d="M1.23797 299.654C2.14658 307.136 4.34907 314.404 7.747 321.132C7.756 321.159 36.04 336.415 41.913 335.253C44.013 334.845 46.2642 337.253 47.8342 331.353C48.3842 329.304 48.908 327.053 49.413 324.628C49.786 322.818 50.15 320.911 50.487 318.928C51.268 314.359 51.9331 309.381 52.4211 304.218C53.6186 292.645 53.5592 280.977 52.2441 269.418C52.1641 268.818 52.075 268.211 51.977 267.618C51.8 266.464 51.5962 265.329 51.3652 264.218C50.7002 260.979 49.8651 257.91 49.0761 255C42.3961 230.46 80.2171 188.4 66.7851 175.515C65.7523 174.497 64.5852 173.625 63.3161 172.924C59.3681 170.813 55.375 171.567 50.132 174.406C45.519 176.899 40.5512 179.754 32.9792 187.472C14.0342 206.781 8.21415 221.072 3.44915 235.421C-0.62385 247.682 -0.714032 270.57 1.23797 299.654Z" fill="url(#paint3_linear_2863_19784)"/>
<path opacity="0.1" d="M38.0133 228.188C45.2133 221.836 47.7194 234.833 42.3964 242.348C37.0734 249.863 50.5402 271.306 50.5402 271.306L51.9772 267.606C51.8002 266.452 51.5964 265.317 51.3654 264.206C50.7004 260.967 49.8653 257.898 49.0763 254.988C42.3963 230.448 80.2173 188.388 66.7853 175.503C65.7525 174.485 64.5854 173.613 63.3163 172.912C59.3683 170.801 55.3752 171.555 50.1322 174.394C50.1322 174.394 67.5574 176.894 62.0214 187.862C56.4854 198.83 45.6782 205.233 36.9132 213.067C28.1482 220.901 30.8133 234.532 38.0133 228.188Z" fill="#231F20"/>
<path d="M4.03623 310.997C4.11523 319.911 11.1173 327.843 20.7643 333.197C21.0773 333.371 21.3921 333.538 21.7071 333.705C22.0751 333.91 22.4542 334.105 22.8402 334.3H22.8531C30.5631 338.207 38.6462 340.608 43.5882 340.925C60.0762 341.992 105.409 325.808 123.15 320.967C140.891 316.126 158.167 307.329 164.507 296.702C167.758 291.249 170.034 288.016 172.36 285.784C172.541 285.612 172.719 285.448 172.895 285.29H172.902C173.444 284.8 174.018 284.348 174.621 283.935C176.321 282.804 178.137 281.859 180.039 281.115C182.073 280.342 184.024 279.368 185.864 278.207C188.164 276.619 189.285 274.694 187.9 271.962C187.21 270.928 186.464 269.934 185.664 268.983C185.278 268.576 184.891 268.169 184.518 267.766C181.73 264.766 176.591 263.271 176.591 263.271C175.044 262.562 173.367 262.177 171.665 262.139C171.202 262.13 170.733 262.139 170.249 262.177C167.265 262.491 164.368 263.374 161.715 264.777L161.695 264.771L161.686 264.776C161.029 264.723 160.42 264.649 159.853 264.558C155.247 263.791 152.98 261.659 148.082 258.597C142.572 255.141 131.732 249.182 112.518 262.097C93.3232 274.991 85.2403 279.597 78.3753 278.93C75.4623 278.657 64.5443 279.772 51.9093 282.642C50.7883 282.893 49.6473 283.16 48.5033 283.442C32.9443 287.291 15.6842 293.75 7.81015 303.473C7.70015 303.6 7.39427 304.023 7.00327 304.609L6.96518 304.663C5.84018 306.354 4.02123 309.381 4.03623 310.997Z" fill="url(#paint4_linear_2863_19784)"/>
<path opacity="0.1" d="M4.03623 310.998C4.11523 319.912 11.1173 327.844 20.7643 333.198C21.0773 333.372 21.3921 333.539 21.7071 333.706C22.0751 333.911 22.4542 334.106 22.8402 334.301H22.8531C30.5631 338.208 38.6462 340.609 43.5882 340.926C60.0762 341.993 105.409 325.809 123.15 320.968C140.891 316.127 158.167 307.33 164.507 296.703C167.758 291.25 170.569 287.524 172.895 285.291C170.909 281.269 165.621 282.081 165.621 282.081C165.621 282.081 147.232 291.604 136.766 302.224C122.217 316.994 83.3663 320.49 68.0113 313.311C58.8193 309.017 47.0852 305.311 39.4862 306.188C35.2572 306.672 33.0141 308.937 34.6241 313.804C35.0241 315.036 38.4523 323.047 35.4413 326.198C30.7823 331.067 22.4093 326.816 16.4583 322.015C9.43334 316.355 6.98511 311.889 7.09311 304.498L7.00327 304.608L6.96518 304.662C5.84018 306.355 4.02123 309.382 4.03623 310.998Z" fill="#231F20"/>
<path d="M173.144 256.881C173.144 256.881 180.073 249.737 182.352 243.098C184.631 236.459 187.504 231.009 190.279 229.126C193.054 227.243 198.305 221.298 198.206 215.254C198.107 209.21 203.359 210.597 204.548 215.254C205.737 219.911 205.836 225.554 200.485 232.595C195.134 239.636 201.674 240.72 207.52 239.333C213.366 237.946 220.798 235.666 220.997 243.99C221.196 252.314 221.497 263.907 219.312 269.357C217.127 274.807 207.421 279.757 197.712 278.671C188.003 277.585 183.74 277.878 183.74 277.878L173.144 256.881Z" fill="#FA997B"/>
<path d="M172.735 285.241H172.742C173.292 284.757 173.871 284.307 174.475 283.893C176.053 282.808 178.33 282.5 180.486 281.617C186.019 279.354 191.579 279.212 189.221 274.617C189.113 274.398 186.98 270.558 186.871 270.426C186.511 269.949 176.457 256.343 176.071 255.934C173.239 252.96 169.09 257.925 161.346 264.665C160.673 264.613 161.058 266.87 161.072 267.983C161.369 271.371 161.073 285.178 172.735 285.241Z" fill="#40847D"/>
<path d="M142.455 255.701C142.455 255.701 129.88 248.69 111.008 262.765C92.5196 276.553 86.0077 279.651 77.3887 279.428C71.5072 279.395 65.6395 280.001 59.8887 281.234C59.8887 281.234 72.4656 280.57 76.7996 281.489C81.1336 282.408 96.6177 278.611 113.471 264.724C120.897 258.76 138.724 253.893 142.455 255.701Z" fill="#40847D"/>
<path d="M35.8677 101.05C35.6827 86.8706 39.5517 72.5896 47.4897 61.6646C55.1267 51.1546 66.8537 44.9427 80.7707 44.5567C94.6877 44.1707 105.471 48.5566 114.09 56.9566C123.59 66.2136 128.251 79.9725 127.134 93.1885C126.644 98.9885 125.122 104.669 124.834 110.479C124.306 120.99 127.774 131.905 124.308 141.841C121.318 150.411 113.427 156.664 104.757 159.35C96.0866 162.036 86.7196 161.55 77.8086 159.815C65.1846 157.364 54.6856 148.393 47.2576 138.068C39.8416 127.771 36.0427 114.455 35.8677 101.05Z" fill="#FA997B"/>
<path d="M96.6853 139.731C93.7537 140.034 90.7911 139.738 87.9778 138.859C85.1644 137.981 82.5591 136.54 80.3203 134.623C80.3226 136.643 80.9645 138.609 82.1541 140.241C83.3436 141.873 85.0196 143.087 86.9414 143.707C93.8014 146.029 96.6853 139.731 96.6853 139.731Z" fill="white"/>
<path d="M89.8311 147.294C87.8266 147.353 85.8551 146.775 84.2002 145.643" stroke="#D26665" stroke-linecap="round" stroke-linejoin="round"/>
<path d="M76.3208 90.7386C82.2548 88.5926 86.4449 91.9386 86.9419 95.2256C83.9077 94.4367 80.7392 94.3104 77.6519 94.8555C74.1178 95.4286 70.6936 96.5442 67.5 98.1626C69.5389 94.781 72.6407 92.1702 76.3208 90.7386Z" fill="#1A1A1A"/>
<path d="M111.779 90.7386C105.845 88.5926 101.655 91.9386 101.158 95.2256C104.192 94.4366 107.361 94.3103 110.448 94.8555C113.982 95.4286 117.407 96.5442 120.6 98.1626C118.561 94.781 115.459 92.1702 111.779 90.7386Z" fill="#1A1A1A"/>
<path d="M120.755 127.155C131.72 127.155 140.608 118.267 140.608 107.302C140.608 96.3377 131.72 87.4492 120.755 87.4492C109.791 87.4492 100.902 96.3377 100.902 107.302C100.902 118.267 109.791 127.155 120.755 127.155Z" fill="white" fill-opacity="0.2" stroke="#D0D2D3" stroke-miterlimit="10"/>
<path opacity="0.3" d="M106.556 94.4531L127.792 125.323C128.733 124.986 129.638 124.554 130.492 124.032C132.358 122.886 134.044 121.467 135.492 119.823L114.223 88.873C111.252 90.0834 108.621 91.9986 106.556 94.4531Z" fill="url(#paint5_linear_2863_19784)"/>
<path opacity="0.3" d="M102.269 102.353L117.884 126.412C119.108 126.61 120.351 126.674 121.59 126.603C122.09 126.603 123.596 126.403 123.606 126.396L104.319 97.1641C103.969 97.7927 103.656 98.4403 103.379 99.104C102.893 100.144 102.521 101.233 102.269 102.353Z" fill="url(#paint6_linear_2863_19784)"/>
<path d="M151.871 76.0193C144.871 84.0893 140.001 92.5793 129.241 94.2593C104.221 98.1593 73.7014 76.1994 69.4514 67.3694C66.1114 98.7294 47.7014 97.0093 41.9614 107.519C39.6514 111.749 34.9913 114.529 33.5813 119.089C28.1313 108.649 23.3114 97.7295 21.5314 86.1695C19.7514 74.6095 19.3713 60.5193 29.1613 49.9693C38.9513 39.4193 52.7912 41.9693 52.7912 41.9693C52.7912 41.9693 71.1214 26.8694 88.5014 25.6194C107.601 24.2394 116.631 26.2495 128.951 42.9495C135.211 51.4395 144.031 76.9293 151.851 76.0193H151.871Z" fill="url(#paint7_linear_2863_19784)"/>
<path d="M51.2901 102.326H32.3311" stroke="#D0D2D3" stroke-miterlimit="10"/>
<path d="M27.9123 117.333C31.4763 126.92 40.2123 132.649 44.5973 130.518C47.9973 128.864 48.5354 122.48 46.5544 114.818C44.5734 107.156 38.8544 97.4181 33.0754 98.8721C27.2964 100.326 24.3433 107.746 27.9123 117.333Z" fill="#FA997B"/>
<path d="M41.1128 113.013C42.6658 115.513 42.759 118.278 41.313 119.178C39.867 120.078 37.429 118.778 35.866 116.269C34.321 113.763 34.2318 111 35.6748 110.104C37.1178 109.208 39.5598 110.502 41.1128 113.013Z" fill="#EF5D23"/>
<path d="M103.987 110.429C103.987 110.429 103.079 103.68 107.387 101.321C111.695 98.9617 117.059 102.081 115.545 106.271L103.987 110.429Z" fill="#1A1A1A"/>
<path d="M104.213 111.253C105.043 113.744 113.444 113.825 115.577 108.971C117.71 104.117 113.377 99.9203 109.353 101.147C108.334 101.446 107.387 101.95 106.57 102.628C105.753 103.306 105.084 104.144 104.602 105.091C104.121 106.037 103.838 107.072 103.771 108.132C103.704 109.192 103.855 110.254 104.213 111.253Z" fill="white"/>
<path d="M108.496 107.47C108.451 107.27 108.418 107.067 108.396 106.862C108.197 106.053 108.282 105.2 108.637 104.446C108.781 104.09 108.975 103.757 109.214 103.457C110.43 101.957 112.235 102.101 113.746 102.993C114.182 103.267 114.55 103.635 114.823 104.071C115.096 104.506 115.266 104.998 115.322 105.509C115.459 105.898 115.533 106.307 115.542 106.719C115.595 107.569 115.317 108.405 114.765 109.054C114.214 109.702 113.432 110.111 112.585 110.194C111.692 110.293 110.793 110.074 110.045 109.576C109.298 109.078 108.749 108.332 108.496 107.47Z" fill="#1A1A1A"/>
<path d="M83.2135 110.429C83.2135 110.429 84.1216 103.68 79.8136 101.321C75.5056 98.9617 70.0806 102.081 71.5956 106.271L83.2135 110.429Z" fill="#1A1A1A"/>
<path d="M82.9803 111.253C82.1513 113.744 73.7493 113.825 71.6173 108.971C69.4853 104.117 73.8172 99.9203 77.8402 101.147C78.8592 101.446 79.8062 101.95 80.6234 102.628C81.4405 103.306 82.1105 104.144 82.5919 105.091C83.0733 106.037 83.3559 107.072 83.4227 108.132C83.4895 109.191 83.339 110.254 82.9803 111.253Z" fill="white"/>
<path d="M75.6934 108.617C75.6208 108.425 75.5586 108.229 75.5074 108.03C75.1918 107.259 75.1515 106.403 75.3933 105.605C75.4825 105.232 75.626 104.874 75.8194 104.542C76.8034 102.884 78.6094 102.759 80.2354 103.42C80.7058 103.628 81.1233 103.938 81.4568 104.329C81.7903 104.721 82.0311 105.182 82.1614 105.679C82.3554 106.044 82.4903 106.437 82.5613 106.844C82.7377 107.677 82.5843 108.546 82.1331 109.267C81.6819 109.989 80.9682 110.508 80.1424 110.714C79.2726 110.944 78.3499 110.859 77.5362 110.476C76.7224 110.092 76.0699 109.434 75.6934 108.617Z" fill="#1A1A1A"/>
<path d="M113.313 104.819C113.313 105.013 113.39 105.199 113.527 105.336C113.664 105.473 113.85 105.55 114.044 105.55C114.238 105.55 114.423 105.473 114.56 105.336C114.697 105.199 114.774 105.013 114.774 104.819C114.767 104.599 114.684 104.388 114.54 104.221C114.396 104.054 114.199 103.942 113.982 103.902C113.579 103.902 113.313 104.415 113.313 104.819Z" fill="white"/>
<path d="M80.1753 105.643C80.1717 105.741 80.1881 105.839 80.2232 105.93C80.2582 106.022 80.3112 106.106 80.3794 106.177C80.4476 106.248 80.5294 106.304 80.6199 106.342C80.7103 106.381 80.8075 106.401 80.9058 106.401C81.004 106.401 81.1015 106.381 81.1919 106.342C81.2823 106.304 81.3639 106.248 81.4321 106.177C81.5003 106.106 81.5536 106.022 81.5886 105.93C81.6237 105.839 81.6401 105.741 81.6365 105.643C81.6286 105.422 81.5456 105.212 81.4014 105.045C81.2571 104.878 81.0601 104.766 80.8433 104.727C80.4403 104.727 80.1753 105.24 80.1753 105.643Z" fill="white"/>
<path d="M96.1968 113.988C96.1968 113.988 95.604 118.495 96.511 120.098C97.418 121.701 100.185 122.998 99.0679 126.328C97.7529 130.243 94.043 128.566 94.043 128.566" stroke="#D26665" stroke-linecap="round" stroke-linejoin="round"/>
<path d="M90.4658 107.944C90.4658 107.944 95.6189 102.915 100.648 107.944" stroke="#D0D2D3" stroke-linecap="round" stroke-linejoin="round"/>
<path d="M115.045 189.129C115.045 189.129 123.177 203.666 131.91 222.06C132.567 206.766 121.443 197.455 115.045 189.129Z" fill="#40847D"/>
<path d="M50.7637 107.299C50.7575 109.908 51.2665 112.493 52.2618 114.904C53.257 117.316 54.7189 119.507 56.5633 121.353C58.4076 123.198 60.5982 124.661 63.0093 125.657C65.4205 126.654 68.0046 127.164 70.6136 127.159C71.2636 127.159 71.9138 127.129 72.5538 127.069C72.5679 127.071 72.5821 127.067 72.5938 127.059C74.0955 126.914 75.5753 126.595 77.0037 126.109C77.9416 125.784 78.8541 125.389 79.7337 124.929C83.685 122.886 86.8355 119.574 88.6795 115.526C90.5235 111.478 90.9541 106.928 89.9024 102.605C88.8507 98.283 86.3775 94.4392 82.8797 91.6907C79.3819 88.9423 75.062 87.4488 70.6136 87.4493C68.0371 87.4424 65.485 87.9454 63.1038 88.9293C60.1322 90.1392 57.4995 92.0542 55.4336 94.5091C54.5991 95.5025 53.8624 96.5743 53.2337 97.7093C52.2749 99.4385 51.5837 101.303 51.1836 103.239C50.92 104.472 50.7828 105.728 50.7737 106.989C50.7637 107.089 50.7637 107.199 50.7637 107.299Z" fill="white" fill-opacity="0.2" stroke="#D0D2D3" stroke-miterlimit="10"/>
<path opacity="0.3" d="M55.6484 94.9685L76.7283 125.649C77.6662 125.323 78.579 124.929 79.4585 124.469C81.4196 123.458 83.1973 122.127 84.7183 120.529L63.3184 89.3887C60.3467 90.5986 57.7143 92.5136 55.6484 94.9685Z" fill="url(#paint8_linear_2863_19784)"/>
<path opacity="0.3" d="M51.6777 103.443L66.5176 126.219C67.8158 126.498 69.138 126.649 70.4656 126.672C71.1156 126.672 72.4356 126.582 72.4456 126.572L53.7275 97.9141C52.7688 99.6429 52.0778 101.507 51.6777 103.443Z" fill="url(#paint9_linear_2863_19784)"/>
<path d="M29.6338 49.4768C29.6338 49.4768 37.364 37.0769 47.427 39.7859C53.137 41.3239 52.979 42.2649 52.979 42.2649C52.979 42.2649 51.7479 37.9818 60.7139 35.5288C68.7999 33.3168 61.9449 28.7368 76.5549 26.7378C82.1549 24.4698 80.4478 27.0859 86.4548 25.8299" stroke="#707070" stroke-width="1.097" stroke-linecap="round" stroke-linejoin="round"/>
<path d="M151.871 76.019C144.871 84.089 140.001 92.579 129.241 94.259C104.221 98.159 73.7012 76.1991 69.4512 67.3691C69.4512 67.3691 113.831 95.469 135.491 85.769C145.951 81.209 149.151 77.349 151.851 76.019H151.871Z" fill="url(#paint10_linear_2863_19784)"/>
</g>
<defs>
<linearGradient id="paint0_linear_2863_19784" x1="125.291" y1="242.186" x2="203.609" y2="242.186" gradientUnits="userSpaceOnUse">
<stop stop-color="#479387"/>
<stop offset="1" stop-color="#2FD4E5"/>
</linearGradient>
<linearGradient id="paint1_linear_2863_19784" x1="31.8398" y1="106.136" x2="137.943" y2="106.136" gradientUnits="userSpaceOnUse">
<stop stop-color="#A9453E"/>
<stop offset="0.235" stop-color="#A64339"/>
<stop offset="0.512" stop-color="#9D3F2A"/>
<stop offset="0.809" stop-color="#8F3913"/>
<stop offset="1" stop-color="#843400"/>
</linearGradient>
<linearGradient id="paint2_linear_2863_19784" x1="-5849.99" y1="230.249" x2="-5747.15" y2="230.249" gradientUnits="userSpaceOnUse">
<stop stop-color="#479387"/>
<stop offset="1" stop-color="#2FD4E5"/>
</linearGradient>
<linearGradient id="paint3_linear_2863_19784" x1="-5773.17" y1="253.56" x2="-5703.48" y2="253.56" gradientUnits="userSpaceOnUse">
<stop stop-color="#479387"/>
<stop offset="1" stop-color="#2FD4E5"/>
</linearGradient>
<linearGradient id="paint4_linear_2863_19784" x1="-5089.54" y1="-459.685" x2="-5137.76" y2="-601.067" gradientUnits="userSpaceOnUse">
<stop stop-color="#479387"/>
<stop offset="1" stop-color="#2FD4E5"/>
</linearGradient>
<linearGradient id="paint5_linear_2863_19784" x1="-5757.53" y1="107.098" x2="-5728.6" y2="107.098" gradientUnits="userSpaceOnUse">
<stop stop-color="white" stop-opacity="0"/>
<stop offset="1" stop-color="white"/>
</linearGradient>
<linearGradient id="paint6_linear_2863_19784" x1="-5746.25" y1="111.898" x2="-5724.91" y2="111.898" gradientUnits="userSpaceOnUse">
<stop stop-color="white" stop-opacity="0"/>
<stop offset="1" stop-color="white"/>
</linearGradient>
<linearGradient id="paint7_linear_2863_19784" x1="20.54" y1="72.1765" x2="151.871" y2="72.1765" gradientUnits="userSpaceOnUse">
<stop stop-color="#A9453E"/>
<stop offset="0.235" stop-color="#A64339"/>
<stop offset="0.512" stop-color="#9D3F2A"/>
<stop offset="0.809" stop-color="#8F3913"/>
<stop offset="1" stop-color="#843400"/>
</linearGradient>
<linearGradient id="paint8_linear_2863_19784" x1="-5707.36" y1="107.519" x2="-5678.29" y2="107.519" gradientUnits="userSpaceOnUse">
<stop stop-color="white" stop-opacity="0"/>
<stop offset="1" stop-color="white"/>
</linearGradient>
<linearGradient id="paint9_linear_2863_19784" x1="-5695.09" y1="112.293" x2="-5674.32" y2="112.293" gradientUnits="userSpaceOnUse">
<stop stop-color="white" stop-opacity="0"/>
<stop offset="1" stop-color="white"/>
</linearGradient>
<linearGradient id="paint10_linear_2863_19784" x1="69.1215" y1="80.3054" x2="147.493" y2="99.6334" gradientUnits="userSpaceOnUse">
<stop stop-color="#843400"/>
<stop offset="0.191" stop-color="#8F3913"/>
<stop offset="0.488" stop-color="#9D3F2A"/>
<stop offset="0.765" stop-color="#A64339"/>
<stop offset="1" stop-color="#A9453E"/>
</linearGradient>
<clipPath id="clip0_2863_19784">
<rect width="398.762" height="340.979" fill="white"/>
</clipPath>
<clipPath id="clip1_2863_19784">
<rect width="78" height="78" fill="white" transform="translate(296 38)"/>
</clipPath>
</defs>
</svg>
