<svg width="212" height="222" viewBox="0 0 212 222" fill="none" xmlns="http://www.w3.org/2000/svg">
<path d="M37.9183 133.282C19.4366 171.813 23.0462 191.792 59.3466 214.712C65.3405 218.497 72.3716 220.353 79.4595 220.249C97.6269 219.981 109.569 218.273 123.575 214.148C129.587 212.377 135.881 211.89 142.148 211.873C158.321 211.827 168.572 204.854 180.756 182.703C183.425 177.852 186.921 173.501 190.599 169.362C209.721 147.846 219.047 109.849 198.782 72.7972C191.502 59.4882 175.063 56.8451 160.297 53.3702C146.58 50.1424 134.822 39.4317 120.147 17.2548C98.3186 -15.733 56.9349 8.63415 58.3894 53.554C58.4799 56.3493 59.075 59.1116 59.7893 61.8156C66.7889 88.316 61.2837 103.077 43.387 124.884C41.2643 127.471 39.3654 130.265 37.9183 133.282Z" stroke="white" stroke-width="2.5"/>
<path d="M50.1843 177.769C80.1366 178.003 96.3499 183.656 114.641 200.08C119.738 204.656 125.551 208.56 132.244 210.018C160.936 216.27 177.472 205.84 182.177 174.098C183.077 168.021 181.909 161.871 180.059 156.013C177.111 146.675 176.251 139.347 177.707 130.436C178.649 124.673 181.618 119.496 185.311 114.973C191.19 107.773 195.578 101.936 199.98 93.6701C201.85 90.1571 203.091 86.3094 203.408 82.342C205.277 58.9713 192.923 46.1079 145.174 28.3057C124.688 21.1011 111.65 19.226 83.5981 27.1613C80.9904 27.899 78.4574 28.9397 76.0705 30.223C36.7062 51.3866 19.4623 68.2159 3.82441 103.339C2.36619 106.614 1.38626 110.119 0.969684 113.68C-3.38488 150.902 6.65881 164.626 36.5422 175.53C40.9024 177.121 45.5431 177.732 50.1843 177.769Z" fill="url(#paint0_linear_2887_19756)" fill-opacity="0.54"/>
<g filter="url(#filter0_d_2887_19756)">
<circle cx="112" cy="111" r="46" fill="#7BC2D1"/>
</g>
<g clip-path="url(#clip0_2887_19756)">
<path d="M135.999 130.81H109.654C106.812 130.81 104.427 128.962 103.719 126.212L103.452 125.184H127.3C129.435 125.184 131.23 123.795 131.765 121.727L136.099 104.982C136.46 103.571 136.17 102.159 135.279 101.004C134.385 99.8511 133.091 99.2174 131.634 99.2174H131.017C131.106 98.5499 131.151 97.8686 131.151 97.1761C131.151 93.9724 130.175 90.9911 128.504 88.5161C128.497 88.5061 128.494 88.4961 128.487 88.4874C128.466 88.4536 128.442 88.4224 128.417 88.3924C125.616 84.3299 120.93 81.6611 115.632 81.6611C110.342 81.6611 105.664 84.3224 102.861 88.3761C102.831 88.4111 102.802 88.4486 102.776 88.4886C102.764 88.5086 102.754 88.5286 102.742 88.5486C101.085 91.0174 100.116 93.9861 100.116 97.1774C100.116 97.8686 100.162 98.5499 100.25 99.2186H96.7349L96.3387 97.6861C95.3949 94.0424 92.2324 91.5936 88.4687 91.5936H74.0012C73.4487 91.5936 73.0024 92.0411 73.0024 92.5924C73.0024 93.1449 73.4499 93.5911 74.0012 93.5911H88.4687C91.3074 93.5911 93.6924 95.4374 94.4037 98.1861L101.784 126.712C102.724 130.359 105.886 132.809 109.654 132.809H135.999C136.551 132.809 136.997 132.361 136.997 131.81C136.997 131.257 136.55 130.81 135.999 130.81ZM103.957 90.3699C105.299 91.0711 106.934 91.6374 108.75 92.0449C108.541 93.3661 108.414 94.7549 108.372 96.1786H102.15C102.305 94.0724 102.945 92.0986 103.957 90.3699ZM129.116 96.1786H122.89C122.849 94.7549 122.722 93.3661 122.514 92.0449C124.332 91.6374 125.967 91.0711 127.309 90.3686C128.321 92.0986 128.961 94.0724 129.116 96.1786ZM116.631 110.412V103.6C117.851 103.637 119.041 103.741 120.172 103.907C119.371 107.287 118.02 109.632 116.631 110.412ZM114.632 101.6C113.285 101.639 111.967 101.757 110.711 101.947C110.53 100.777 110.411 99.5149 110.371 98.1761H114.632V101.6ZM114.632 103.6V110.414C113.244 109.632 111.892 107.289 111.091 103.907C112.224 103.741 113.412 103.636 114.632 103.6ZM116.631 101.6V98.1761H120.892C120.852 99.5149 120.734 100.776 120.552 101.947C119.296 101.757 117.979 101.64 116.631 101.6ZM120.892 96.1786H116.631V92.7574C117.979 92.7186 119.296 92.5999 120.554 92.4099C120.735 93.5799 120.852 94.8411 120.892 96.1786ZM116.631 90.7586V83.9449C118.02 84.7261 119.372 87.0699 120.172 90.4511C119.041 90.6174 117.851 90.7211 116.631 90.7586ZM114.632 83.9449V90.7586C113.412 90.7211 112.222 90.6174 111.091 90.4511C111.891 87.0699 113.244 84.7261 114.632 83.9449ZM114.632 92.7574V96.1774H110.371C110.411 94.8399 110.529 93.5786 110.711 92.4099C111.967 92.5999 113.285 92.7186 114.632 92.7574ZM102.151 98.1761H108.374C108.415 99.6011 108.541 100.991 108.751 102.314C106.935 102.72 105.3 103.286 103.959 103.987C102.945 102.257 102.305 100.284 102.151 98.1761ZM109.131 104.269C109.432 105.56 109.819 106.76 110.281 107.832C110.645 108.674 111.049 109.414 111.484 110.046C108.949 109.226 106.739 107.677 105.102 105.646C106.237 105.079 107.607 104.612 109.131 104.269ZM120.984 107.832C121.447 106.76 121.832 105.56 122.134 104.269C123.659 104.612 125.029 105.079 126.164 105.647C124.527 107.679 122.317 109.227 119.781 110.047C120.216 109.414 120.62 108.675 120.984 107.832ZM127.307 103.989C125.967 103.286 124.331 102.72 122.512 102.312C122.721 100.991 122.849 99.6011 122.889 98.1761H129.115C129.07 98.7899 128.984 99.3924 128.859 99.9799C128.854 99.9986 128.85 100.017 128.846 100.036C128.542 101.449 128.016 102.779 127.307 103.989ZM126.164 88.7111C125.029 89.2799 123.659 89.7461 122.134 90.0899C121.832 88.7986 121.447 87.5974 120.984 86.5249C120.62 85.6836 120.216 84.9436 119.781 84.3111C122.317 85.1311 124.527 86.6799 126.164 88.7111ZM111.484 84.3111C111.049 84.9436 110.645 85.6824 110.281 86.5249C109.817 87.5974 109.431 88.7974 109.13 90.0886C107.606 89.7449 106.236 89.2799 105.101 88.7111C106.737 86.6799 108.949 85.1311 111.484 84.3111ZM100.65 101.216C101.095 102.867 101.806 104.411 102.736 105.797C102.749 105.821 102.761 105.845 102.776 105.869C102.804 105.911 102.834 105.95 102.866 105.987C105.669 110.037 110.346 112.696 115.632 112.696C120.925 112.696 125.605 110.032 128.409 105.977C128.437 105.944 128.464 105.907 128.489 105.869C128.497 105.855 128.504 105.842 128.511 105.829C129.451 104.435 130.17 102.88 130.619 101.216H131.635C132.485 101.216 133.18 101.557 133.7 102.226C134.22 102.9 134.376 103.66 134.165 104.484L129.831 121.226C129.529 122.397 128.511 123.185 127.301 123.185H102.989L97.3049 101.216H100.65ZM113.247 134.612C110.567 134.612 108.386 136.794 108.386 139.474C108.386 142.156 110.567 144.339 113.247 144.339C115.927 144.339 118.109 142.156 118.109 139.474C118.109 136.794 115.927 134.612 113.247 134.612ZM113.247 142.34C111.669 142.34 110.385 141.054 110.385 139.474C110.385 137.895 111.669 136.611 113.247 136.611C114.826 136.611 116.11 137.895 116.11 139.474C116.11 141.055 114.826 142.34 113.247 142.34ZM126.885 134.612C124.205 134.612 122.024 136.794 122.024 139.474C122.024 142.156 124.205 144.339 126.885 144.339C129.565 144.339 131.746 142.156 131.746 139.474C131.746 136.794 129.566 134.612 126.885 134.612ZM126.885 142.34C125.306 142.34 124.022 141.054 124.022 139.474C124.022 137.895 125.306 136.611 126.885 136.611C128.464 136.611 129.747 137.895 129.747 139.474C129.749 141.055 128.464 142.34 126.885 142.34Z" fill="white"/>
</g>
<defs>
<filter id="filter0_d_2887_19756" x="62" y="60" width="100" height="100" filterUnits="userSpaceOnUse" color-interpolation-filters="sRGB">
<feFlood flood-opacity="0" result="BackgroundImageFix"/>
<feColorMatrix in="SourceAlpha" type="matrix" values="0 0 0 0 0 0 0 0 0 0 0 0 0 0 0 0 0 0 127 0" result="hardAlpha"/>
<feOffset dy="-1"/>
<feGaussianBlur stdDeviation="2"/>
<feComposite in2="hardAlpha" operator="out"/>
<feColorMatrix type="matrix" values="0 0 0 0 0 0 0 0 0 0 0 0 0 0 0 0 0 0 0.09 0"/>
<feBlend mode="normal" in2="BackgroundImageFix" result="effect1_dropShadow_2887_19756"/>
<feBlend mode="normal" in="SourceGraphic" in2="effect1_dropShadow_2887_19756" result="shape"/>
</filter>
<linearGradient id="paint0_linear_2887_19756" x1="102" y1="22" x2="101.793" y2="211.746" gradientUnits="userSpaceOnUse">
<stop stop-color="#00B4BE"/>
<stop offset="1" stop-color="#594A96"/>
</linearGradient>
<clipPath id="clip0_2887_19756">
<rect width="64" height="64" fill="white" transform="translate(73 81)"/>
</clipPath>
</defs>
</svg>
