<svg width="399" height="341" viewBox="0 0 399 341" fill="none" xmlns="http://www.w3.org/2000/svg">
<g clip-path="url(#clip0_2863_19784)">
<path d="M21.1006 0V320.37L60.3005 314.79L182.392 297.41L350.102 273.54L350.532 150.68C334.672 154.98 317.857 154.125 302.515 148.239C287.174 142.353 274.101 131.741 265.188 117.937C256.274 104.133 251.981 87.8522 252.929 71.4478C253.877 55.0433 260.017 39.3655 270.462 26.6802L21.1006 0Z" fill="#E7E1FF"/>
<path d="M327.815 141.63C363.422 141.63 392.288 112.764 392.288 77.1566C392.288 41.5491 363.422 12.6836 327.815 12.6836C292.207 12.6836 263.342 41.5491 263.342 77.1566C263.342 112.764 292.207 141.63 327.815 141.63Z" fill="#E7E1FF"/>
<path d="M332.813 139.964C368.42 139.964 397.286 111.098 397.286 75.4906C397.286 39.8831 368.42 11.0176 332.813 11.0176C297.205 11.0176 268.34 39.8831 268.34 75.4906C268.34 111.098 297.205 139.964 332.813 139.964Z" stroke="#594A96" stroke-width="2.95" stroke-miterlimit="10"/>
<path d="M363.252 45.5228C363.189 45.0634 362.787 44.8092 362.455 44.7815C362.123 44.7537 355.646 44.6553 355.646 44.6553C355.646 44.6553 350.228 39.3938 349.693 38.8583C349.158 38.3228 348.112 38.4852 347.706 38.6046C347.7 38.6064 346.69 38.9194 344.984 39.4475C344.7 38.5229 344.28 37.3873 343.681 36.2463C341.752 32.5665 338.928 30.6187 335.515 30.6137C335.511 30.6137 335.507 30.6137 335.503 30.6137C335.267 30.6137 335.031 30.6359 334.795 30.6574C334.695 30.5365 334.593 30.4168 334.486 30.3025C333 28.7119 331.092 27.937 328.808 28.004C324.399 28.1304 320.01 31.3141 316.45 36.9682C313.944 40.9477 312.04 45.9469 311.499 49.816C306.437 51.3834 302.896 52.4802 302.819 52.5042C300.265 53.306 300.184 53.3863 299.849 55.7934C299.596 57.6157 292.911 109.311 292.911 109.311L348.939 119L373.222 112.964C373.222 112.964 363.315 45.9822 363.252 45.5228ZM314.638 48.8438C316.153 41.76 322.088 31.1327 328.893 30.937C329.928 30.9153 330.8 31.1424 331.544 31.6325C330.353 32.2508 329.201 33.1395 328.121 34.2983C325.321 37.3024 323.175 41.9669 322.32 46.4648C319.65 47.2914 317.04 48.1 314.638 48.8438ZM334.899 42.5701C331.963 43.4788 328.759 44.4711 325.545 45.4665C326.45 42.0045 328.163 38.5577 330.268 36.2996C331.051 35.4596 332.146 34.5223 333.443 33.9871C334.664 36.5299 334.928 40.1348 334.899 42.5701ZM337.829 41.6626C337.797 39.43 337.53 36.3248 336.49 33.6405C339.835 34.2743 341.483 38.0594 342.178 40.3162C340.889 40.7152 339.42 41.1699 337.829 41.6626Z" fill="#95BF47"/>
<path d="M362.455 44.781C362.123 44.7532 355.645 44.6548 355.645 44.6548C355.645 44.6548 350.228 39.3933 349.693 38.8578C349.493 38.658 349.222 38.5558 348.94 38.5117L348.942 118.999L373.222 112.964C373.222 112.964 363.315 45.9817 363.252 45.5223C363.189 45.0629 362.787 44.8087 362.455 44.781Z" fill="#5E8E3E"/>
<path d="M335.483 57.2677L332.662 67.8182C332.662 67.8182 329.516 66.3856 325.787 66.6211C320.318 66.9665 320.26 70.4161 320.314 71.2806C320.612 75.9993 333.026 77.0304 333.723 88.0823C334.272 96.7774 329.111 102.725 321.675 103.195C312.751 103.758 307.837 98.4924 307.837 98.4924L309.728 90.4472C309.728 90.4472 314.673 94.1782 318.631 93.9283C321.217 93.765 322.141 91.662 322.047 90.1748C321.658 84.0194 311.55 84.382 310.912 74.2684C310.374 65.7563 315.964 57.1331 328.297 56.3543C333.049 56.0545 335.483 57.2677 335.483 57.2677Z" fill="white"/>
<path d="M178.861 297.254C178.854 297.276 130.122 306.089 125.214 305.118C123.457 304.777 118.614 294.102 118.203 289.788C117.202 280.117 117.252 270.366 118.352 260.705C118.418 260.205 118.493 259.696 118.574 259.199C118.722 258.236 118.893 257.287 119.086 256.36C119.642 253.654 120.339 251.089 120.998 248.66C126.581 228.154 91.5517 193.18 102.776 182.416C103.639 181.565 104.614 180.837 105.676 180.251C108.976 178.486 115.736 178.943 120.117 181.315C123.972 183.398 131.007 187.854 135.496 193.884C157.921 224.008 159.096 230.251 162.98 237.884C170.152 251.986 178.155 287.767 178.861 297.254Z" fill="url(#paint0_linear_2863_19784)"/>
<path d="M31.8398 135.788C40.1308 159.747 66.2819 162.643 71.5159 155.165C75.4669 149.521 81.2798 149.959 85.9158 144.858C88.5528 141.953 91.0349 138.869 94.0979 136.416C98.6689 132.754 104.282 130.692 109.376 127.804C122.788 120.204 136.558 115.293 137.934 90.8522C138.101 87.8922 136.005 85.2523 135.054 82.4423C134.162 80.1841 132.837 78.1221 131.154 76.3722C124.373 68.6293 116.021 62.4186 106.654 58.1532C102.308 56.112 97.7013 54.6808 92.9639 53.9003C75.8089 51.3073 58.0999 60.4462 48.0579 74.6002C42.8371 82.1278 39.3339 90.7106 37.7959 99.7414C36.9801 104.313 36.5807 108.949 36.6028 113.593C36.6158 117.903 37.845 122.517 37.386 126.742C37.123 129.054 36.6188 134.837 31.8398 135.788Z" fill="url(#paint1_linear_2863_19784)"/>
<path d="M100.06 153.391L104.226 187.464C104.226 187.464 69.3804 186.584 63.5674 187.45C65.0854 171.843 66.2114 156.765 67.0764 148.559C72.3384 153.368 96.3953 153.995 100.06 153.391Z" fill="#FA997B"/>
<path d="M66.3994 155.646C77.4457 162.857 89.5616 168.277 102.299 171.707L100.89 160.186C100.89 160.186 80.8794 160.822 66.3994 155.646Z" fill="#EF5D23"/>
<path d="M50.0915 284.609C50.1915 285.655 50.2517 286.703 50.2917 287.767L146.681 277.73C141.837 261.077 141.374 241.83 130.462 218.606C125.068 207.126 116.262 184.552 106.134 181.99C99.9475 180.424 98.3876 187.353 88.3796 186.244C78.1086 185.107 63.5625 168.01 56.2795 173.999C36.2265 190.503 45.3185 232.554 50.0915 284.609Z" fill="url(#paint2_linear_2863_19784)"/>
<path d="M1.23797 299.654C2.14658 307.136 4.34907 314.404 7.747 321.132C7.756 321.159 36.04 336.415 41.913 335.253C44.013 334.845 46.2642 337.253 47.8342 331.353C48.3842 329.304 48.908 327.053 49.413 324.628C49.786 322.818 50.15 320.911 50.487 318.928C51.268 314.359 51.9331 309.381 52.4211 304.218C53.6186 292.645 53.5592 280.977 52.2441 269.418C52.1641 268.818 52.075 268.211 51.977 267.618C51.8 266.464 51.5962 265.329 51.3652 264.218C50.7002 260.979 49.8651 257.91 49.0761 255C42.3961 230.46 80.2171 188.4 66.7851 175.515C65.7523 174.497 64.5852 173.625 63.3161 172.924C59.3681 170.813 55.375 171.567 50.132 174.406C45.519 176.899 40.5512 179.754 32.9792 187.472C14.0342 206.781 8.21415 221.072 3.44915 235.421C-0.62385 247.682 -0.714032 270.57 1.23797 299.654Z" fill="url(#paint3_linear_2863_19784)"/>
<path opacity="0.1" d="M38.0133 228.188C45.2133 221.836 47.7194 234.833 42.3964 242.348C37.0734 249.863 50.5402 271.306 50.5402 271.306L51.9772 267.606C51.8002 266.452 51.5964 265.317 51.3654 264.206C50.7004 260.967 49.8653 257.898 49.0763 254.988C42.3963 230.448 80.2173 188.388 66.7853 175.503C65.7525 174.485 64.5854 173.613 63.3163 172.912C59.3683 170.801 55.3752 171.555 50.1322 174.394C50.1322 174.394 67.5574 176.894 62.0214 187.862C56.4854 198.83 45.6782 205.233 36.9132 213.067C28.1482 220.901 30.8133 234.532 38.0133 228.188Z" fill="#231F20"/>
<path d="M4.03623 310.997C4.11523 319.911 11.1173 327.843 20.7643 333.197C21.0773 333.371 21.3921 333.538 21.7071 333.705C22.0751 333.91 22.4542 334.105 22.8402 334.3H22.8531C30.5631 338.207 38.6462 340.608 43.5882 340.925C60.0762 341.992 105.409 325.808 123.15 320.967C140.891 316.126 158.167 307.329 164.507 296.702C167.758 291.249 170.034 288.016 172.36 285.784C172.541 285.612 172.719 285.448 172.895 285.29H172.902C173.444 284.8 174.018 284.348 174.621 283.935C176.321 282.804 178.137 281.859 180.039 281.115C182.073 280.342 184.024 279.368 185.864 278.207C188.164 276.619 189.285 274.694 187.9 271.962C187.21 270.928 186.464 269.934 185.664 268.983C185.278 268.576 184.891 268.169 184.518 267.766C181.73 264.766 176.591 263.271 176.591 263.271C175.044 262.562 173.367 262.177 171.665 262.139C171.202 262.13 170.733 262.139 170.249 262.177C167.265 262.491 164.368 263.374 161.715 264.777L161.695 264.771L161.686 264.776C161.029 264.723 160.42 264.649 159.853 264.558C155.247 263.791 152.98 261.659 148.082 258.597C142.572 255.141 131.732 249.182 112.518 262.097C93.3232 274.991 85.2403 279.597 78.3753 278.93C75.4623 278.657 64.5443 279.772 51.9093 282.642C50.7883 282.893 49.6473 283.16 48.5033 283.442C32.9443 287.291 15.6842 293.75 7.81015 303.473C7.70015 303.6 7.39427 304.023 7.00327 304.609L6.96518 304.663C5.84018 306.354 4.02123 309.381 4.03623 310.997Z" fill="url(#paint4_linear_2863_19784)"/>
<path opacity="0.1" d="M4.03623 310.998C4.11523 319.912 11.1173 327.844 20.7643 333.198C21.0773 333.372 21.3921 333.539 21.7071 333.706C22.0751 333.911 22.4542 334.106 22.8402 334.301H22.8531C30.5631 338.208 38.6462 340.609 43.5882 340.926C60.0762 341.993 105.409 325.809 123.15 320.968C140.891 316.127 158.167 307.33 164.507 296.703C167.758 291.25 170.569 287.524 172.895 285.291C170.909 281.269 165.621 282.081 165.621 282.081C165.621 282.081 147.232 291.604 136.766 302.224C122.217 316.994 83.3663 320.49 68.0113 313.311C58.8193 309.017 47.0852 305.311 39.4862 306.188C35.2572 306.672 33.0141 308.937 34.6241 313.804C35.0241 315.036 38.4523 323.047 35.4413 326.198C30.7823 331.067 22.4093 326.816 16.4583 322.015C9.43334 316.355 6.98511 311.889 7.09311 304.498L7.00327 304.608L6.96518 304.662C5.84018 306.355 4.02123 309.382 4.03623 310.998Z" fill="#231F20"/>
<path d="M173.144 256.881C173.144 256.881 180.073 249.737 182.352 243.098C184.631 236.459 187.504 231.009 190.279 229.126C193.054 227.243 198.305 221.298 198.206 215.254C198.107 209.21 203.359 210.597 204.548 215.254C205.737 219.911 205.836 225.554 200.485 232.595C195.134 239.636 201.674 240.72 207.52 239.333C213.366 237.946 220.798 235.666 220.997 243.99C221.196 252.314 221.497 263.907 219.312 269.357C217.127 274.807 207.421 279.757 197.712 278.671C188.003 277.585 183.74 277.878 183.74 277.878L173.144 256.881Z" fill="#FA997B"/>
<path d="M172.735 285.241H172.742C173.292 284.757 173.871 284.307 174.475 283.893C176.053 282.808 178.33 282.5 180.486 281.617C186.019 279.354 191.579 279.212 189.221 274.617C189.113 274.398 186.98 270.558 186.871 270.426C186.511 269.949 176.457 256.343 176.071 255.934C173.239 252.96 169.09 257.925 161.346 264.665C160.673 264.613 161.058 266.87 161.072 267.983C161.369 271.371 161.073 285.178 172.735 285.241Z" fill="#40847D"/>
<path d="M142.455 255.701C142.455 255.701 129.88 248.69 111.008 262.765C92.5196 276.553 86.0077 279.651 77.3887 279.428C71.5072 279.395 65.6395 280.001 59.8887 281.234C59.8887 281.234 72.4656 280.57 76.7996 281.489C81.1336 282.408 96.6177 278.611 113.471 264.724C120.897 258.76 138.724 253.893 142.455 255.701Z" fill="#40847D"/>
<path d="M35.8677 101.05C35.6827 86.8706 39.5517 72.5896 47.4897 61.6646C55.1267 51.1546 66.8537 44.9427 80.7707 44.5567C94.6877 44.1707 105.471 48.5566 114.09 56.9566C123.59 66.2136 128.251 79.9725 127.134 93.1885C126.644 98.9885 125.122 104.669 124.834 110.479C124.306 120.99 127.774 131.905 124.308 141.841C121.318 150.411 113.427 156.664 104.757 159.35C96.0866 162.036 86.7196 161.55 77.8086 159.815C65.1846 157.364 54.6856 148.393 47.2576 138.068C39.8416 127.771 36.0427 114.455 35.8677 101.05Z" fill="#FA997B"/>
<path d="M96.6853 139.731C93.7537 140.034 90.7911 139.738 87.9778 138.859C85.1644 137.981 82.5591 136.54 80.3203 134.623C80.3226 136.643 80.9645 138.609 82.1541 140.241C83.3436 141.873 85.0196 143.087 86.9414 143.707C93.8014 146.029 96.6853 139.731 96.6853 139.731Z" fill="white"/>
<path d="M89.8311 147.294C87.8266 147.353 85.8551 146.775 84.2002 145.643" stroke="#D26665" stroke-linecap="round" stroke-linejoin="round"/>
<path d="M76.3208 90.7386C82.2548 88.5926 86.4449 91.9386 86.9419 95.2256C83.9077 94.4367 80.7392 94.3104 77.6519 94.8555C74.1178 95.4286 70.6936 96.5442 67.5 98.1626C69.5389 94.781 72.6407 92.1702 76.3208 90.7386Z" fill="#1A1A1A"/>
<path d="M111.779 90.7386C105.845 88.5926 101.655 91.9386 101.158 95.2256C104.192 94.4366 107.361 94.3103 110.448 94.8555C113.982 95.4286 117.407 96.5442 120.6 98.1626C118.561 94.781 115.459 92.1702 111.779 90.7386Z" fill="#1A1A1A"/>
<path d="M120.755 127.155C131.72 127.155 140.608 118.267 140.608 107.302C140.608 96.3377 131.72 87.4492 120.755 87.4492C109.791 87.4492 100.902 96.3377 100.902 107.302C100.902 118.267 109.791 127.155 120.755 127.155Z" fill="white" fill-opacity="0.2" stroke="#D0D2D3" stroke-miterlimit="10"/>
<path opacity="0.3" d="M106.556 94.4531L127.792 125.323C128.733 124.986 129.638 124.554 130.492 124.032C132.358 122.886 134.044 121.467 135.492 119.823L114.223 88.873C111.252 90.0834 108.621 91.9986 106.556 94.4531Z" fill="url(#paint5_linear_2863_19784)"/>
<path opacity="0.3" d="M102.269 102.353L117.884 126.412C119.108 126.61 120.351 126.674 121.59 126.603C122.09 126.603 123.596 126.403 123.606 126.396L104.319 97.1641C103.969 97.7927 103.656 98.4403 103.379 99.104C102.893 100.144 102.521 101.233 102.269 102.353Z" fill="url(#paint6_linear_2863_19784)"/>
<path d="M151.871 76.0193C144.871 84.0893 140.001 92.5793 129.241 94.2593C104.221 98.1593 73.7014 76.1994 69.4514 67.3694C66.1114 98.7294 47.7014 97.0093 41.9614 107.519C39.6514 111.749 34.9913 114.529 33.5813 119.089C28.1313 108.649 23.3114 97.7295 21.5314 86.1695C19.7514 74.6095 19.3713 60.5193 29.1613 49.9693C38.9513 39.4193 52.7912 41.9693 52.7912 41.9693C52.7912 41.9693 71.1214 26.8694 88.5014 25.6194C107.601 24.2394 116.631 26.2495 128.951 42.9495C135.211 51.4395 144.031 76.9293 151.851 76.0193H151.871Z" fill="url(#paint7_linear_2863_19784)"/>
<path d="M51.2901 102.326H32.3311" stroke="#D0D2D3" stroke-miterlimit="10"/>
<path d="M27.9123 117.333C31.4763 126.92 40.2123 132.649 44.5973 130.518C47.9973 128.864 48.5354 122.48 46.5544 114.818C44.5734 107.156 38.8544 97.4181 33.0754 98.8721C27.2964 100.326 24.3433 107.746 27.9123 117.333Z" fill="#FA997B"/>
<path d="M41.1128 113.013C42.6658 115.513 42.759 118.278 41.313 119.178C39.867 120.078 37.429 118.778 35.866 116.269C34.321 113.763 34.2318 111 35.6748 110.104C37.1178 109.208 39.5598 110.502 41.1128 113.013Z" fill="#EF5D23"/>
<path d="M103.987 110.429C103.987 110.429 103.079 103.68 107.387 101.321C111.695 98.9617 117.059 102.081 115.545 106.271L103.987 110.429Z" fill="#1A1A1A"/>
<path d="M104.213 111.253C105.043 113.744 113.444 113.825 115.577 108.971C117.71 104.117 113.377 99.9203 109.353 101.147C108.334 101.446 107.387 101.95 106.57 102.628C105.753 103.306 105.084 104.144 104.602 105.091C104.121 106.037 103.838 107.072 103.771 108.132C103.704 109.192 103.855 110.254 104.213 111.253Z" fill="white"/>
<path d="M108.496 107.47C108.451 107.27 108.418 107.067 108.396 106.862C108.197 106.053 108.282 105.2 108.637 104.446C108.781 104.09 108.975 103.757 109.214 103.457C110.43 101.957 112.235 102.101 113.746 102.993C114.182 103.267 114.55 103.635 114.823 104.071C115.096 104.506 115.266 104.998 115.322 105.509C115.459 105.898 115.533 106.307 115.542 106.719C115.595 107.569 115.317 108.405 114.765 109.054C114.214 109.702 113.432 110.111 112.585 110.194C111.692 110.293 110.793 110.074 110.045 109.576C109.298 109.078 108.749 108.332 108.496 107.47Z" fill="#1A1A1A"/>
<path d="M83.2135 110.429C83.2135 110.429 84.1216 103.68 79.8136 101.321C75.5056 98.9617 70.0806 102.081 71.5956 106.271L83.2135 110.429Z" fill="#1A1A1A"/>
<path d="M82.9803 111.253C82.1513 113.744 73.7493 113.825 71.6173 108.971C69.4853 104.117 73.8172 99.9203 77.8402 101.147C78.8592 101.446 79.8062 101.95 80.6234 102.628C81.4405 103.306 82.1105 104.144 82.5919 105.091C83.0733 106.037 83.3559 107.072 83.4227 108.132C83.4895 109.191 83.339 110.254 82.9803 111.253Z" fill="white"/>
<path d="M75.6934 108.617C75.6208 108.425 75.5586 108.229 75.5074 108.03C75.1918 107.259 75.1515 106.403 75.3933 105.605C75.4825 105.232 75.626 104.874 75.8194 104.542C76.8034 102.884 78.6094 102.759 80.2354 103.42C80.7058 103.628 81.1233 103.938 81.4568 104.329C81.7903 104.721 82.0311 105.182 82.1614 105.679C82.3554 106.044 82.4903 106.437 82.5613 106.844C82.7377 107.677 82.5843 108.546 82.1331 109.267C81.6819 109.989 80.9682 110.508 80.1424 110.714C79.2726 110.944 78.3499 110.859 77.5362 110.476C76.7224 110.092 76.0699 109.434 75.6934 108.617Z" fill="#1A1A1A"/>
<path d="M113.313 104.819C113.313 105.013 113.39 105.199 113.527 105.336C113.664 105.473 113.85 105.55 114.044 105.55C114.238 105.55 114.423 105.473 114.56 105.336C114.697 105.199 114.774 105.013 114.774 104.819C114.767 104.599 114.684 104.388 114.54 104.221C114.396 104.054 114.199 103.942 113.982 103.902C113.579 103.902 113.313 104.415 113.313 104.819Z" fill="white"/>
<path d="M80.1753 105.643C80.1717 105.741 80.1881 105.839 80.2232 105.93C80.2582 106.022 80.3112 106.106 80.3794 106.177C80.4476 106.248 80.5294 106.304 80.6199 106.342C80.7103 106.381 80.8075 106.401 80.9058 106.401C81.004 106.401 81.1015 106.381 81.1919 106.342C81.2823 106.304 81.3639 106.248 81.4321 106.177C81.5003 106.106 81.5536 106.022 81.5886 105.93C81.6237 105.839 81.6401 105.741 81.6365 105.643C81.6286 105.422 81.5456 105.212 81.4014 105.045C81.2571 104.878 81.0601 104.766 80.8433 104.727C80.4403 104.727 80.1753 105.24 80.1753 105.643Z" fill="white"/>
<path d="M96.1968 113.988C96.1968 113.988 95.604 118.495 96.511 120.098C97.418 121.701 100.185 122.998 99.0679 126.328C97.7529 130.243 94.043 128.566 94.043 128.566" stroke="#D26665" stroke-linecap="round" stroke-linejoin="round"/>
<path d="M90.4658 107.944C90.4658 107.944 95.6189 102.915 100.648 107.944" stroke="#D0D2D3" stroke-linecap="round" stroke-linejoin="round"/>
<path d="M115.045 189.129C115.045 189.129 123.177 203.666 131.91 222.06C132.567 206.766 121.443 197.455 115.045 189.129Z" fill="#40847D"/>
<path d="M50.7637 107.299C50.7575 109.908 51.2665 112.493 52.2618 114.904C53.257 117.316 54.7189 119.507 56.5633 121.353C58.4076 123.198 60.5982 124.661 63.0093 125.657C65.4205 126.654 68.0046 127.164 70.6136 127.159C71.2636 127.159 71.9138 127.129 72.5538 127.069C72.5679 127.071 72.5821 127.067 72.5938 127.059C74.0955 126.914 75.5753 126.595 77.0037 126.109C77.9416 125.784 78.8541 125.389 79.7337 124.929C83.685 122.886 86.8355 119.574 88.6795 115.526C90.5235 111.478 90.9541 106.928 89.9024 102.605C88.8507 98.283 86.3775 94.4392 82.8797 91.6907C79.3819 88.9423 75.062 87.4488 70.6136 87.4493C68.0371 87.4424 65.485 87.9454 63.1038 88.9293C60.1322 90.1392 57.4995 92.0542 55.4336 94.5091C54.5991 95.5025 53.8624 96.5743 53.2337 97.7093C52.2749 99.4385 51.5837 101.303 51.1836 103.239C50.92 104.472 50.7828 105.728 50.7737 106.989C50.7637 107.089 50.7637 107.199 50.7637 107.299Z" fill="white" fill-opacity="0.2" stroke="#D0D2D3" stroke-miterlimit="10"/>
<path opacity="0.3" d="M55.6484 94.9685L76.7283 125.649C77.6662 125.323 78.579 124.929 79.4585 124.469C81.4196 123.458 83.1973 122.127 84.7183 120.529L63.3184 89.3887C60.3467 90.5986 57.7143 92.5136 55.6484 94.9685Z" fill="url(#paint8_linear_2863_19784)"/>
<path opacity="0.3" d="M51.6777 103.443L66.5176 126.219C67.8158 126.498 69.138 126.649 70.4656 126.672C71.1156 126.672 72.4356 126.582 72.4456 126.572L53.7275 97.9141C52.7688 99.6429 52.0778 101.507 51.6777 103.443Z" fill="url(#paint9_linear_2863_19784)"/>
<path d="M29.6338 49.4768C29.6338 49.4768 37.364 37.0769 47.427 39.7859C53.137 41.3239 52.979 42.2649 52.979 42.2649C52.979 42.2649 51.7479 37.9818 60.7139 35.5288C68.7999 33.3168 61.9449 28.7368 76.5549 26.7378C82.1549 24.4698 80.4478 27.0859 86.4548 25.8299" stroke="#707070" stroke-width="1.097" stroke-linecap="round" stroke-linejoin="round"/>
<path d="M151.871 76.019C144.871 84.089 140.001 92.579 129.241 94.259C104.221 98.159 73.7012 76.1991 69.4512 67.3691C69.4512 67.3691 113.831 95.469 135.491 85.769C145.951 81.209 149.151 77.349 151.851 76.019H151.871Z" fill="url(#paint10_linear_2863_19784)"/>
</g>
<defs>
<linearGradient id="paint0_linear_2863_19784" x1="125.291" y1="242.186" x2="203.609" y2="242.186" gradientUnits="userSpaceOnUse">
<stop stop-color="#479387"/>
<stop offset="1" stop-color="#2FD4E5"/>
</linearGradient>
<linearGradient id="paint1_linear_2863_19784" x1="31.8398" y1="106.136" x2="137.943" y2="106.136" gradientUnits="userSpaceOnUse">
<stop stop-color="#A9453E"/>
<stop offset="0.235" stop-color="#A64339"/>
<stop offset="0.512" stop-color="#9D3F2A"/>
<stop offset="0.809" stop-color="#8F3913"/>
<stop offset="1" stop-color="#843400"/>
</linearGradient>
<linearGradient id="paint2_linear_2863_19784" x1="-5849.99" y1="230.249" x2="-5747.15" y2="230.249" gradientUnits="userSpaceOnUse">
<stop stop-color="#479387"/>
<stop offset="1" stop-color="#2FD4E5"/>
</linearGradient>
<linearGradient id="paint3_linear_2863_19784" x1="-5773.17" y1="253.56" x2="-5703.48" y2="253.56" gradientUnits="userSpaceOnUse">
<stop stop-color="#479387"/>
<stop offset="1" stop-color="#2FD4E5"/>
</linearGradient>
<linearGradient id="paint4_linear_2863_19784" x1="-5089.54" y1="-459.685" x2="-5137.76" y2="-601.067" gradientUnits="userSpaceOnUse">
<stop stop-color="#479387"/>
<stop offset="1" stop-color="#2FD4E5"/>
</linearGradient>
<linearGradient id="paint5_linear_2863_19784" x1="-5757.53" y1="107.098" x2="-5728.6" y2="107.098" gradientUnits="userSpaceOnUse">
<stop stop-color="white" stop-opacity="0"/>
<stop offset="1" stop-color="white"/>
</linearGradient>
<linearGradient id="paint6_linear_2863_19784" x1="-5746.25" y1="111.898" x2="-5724.91" y2="111.898" gradientUnits="userSpaceOnUse">
<stop stop-color="white" stop-opacity="0"/>
<stop offset="1" stop-color="white"/>
</linearGradient>
<linearGradient id="paint7_linear_2863_19784" x1="20.54" y1="72.1765" x2="151.871" y2="72.1765" gradientUnits="userSpaceOnUse">
<stop stop-color="#A9453E"/>
<stop offset="0.235" stop-color="#A64339"/>
<stop offset="0.512" stop-color="#9D3F2A"/>
<stop offset="0.809" stop-color="#8F3913"/>
<stop offset="1" stop-color="#843400"/>
</linearGradient>
<linearGradient id="paint8_linear_2863_19784" x1="-5707.36" y1="107.519" x2="-5678.29" y2="107.519" gradientUnits="userSpaceOnUse">
<stop stop-color="white" stop-opacity="0"/>
<stop offset="1" stop-color="white"/>
</linearGradient>
<linearGradient id="paint9_linear_2863_19784" x1="-5695.09" y1="112.293" x2="-5674.32" y2="112.293" gradientUnits="userSpaceOnUse">
<stop stop-color="white" stop-opacity="0"/>
<stop offset="1" stop-color="white"/>
</linearGradient>
<linearGradient id="paint10_linear_2863_19784" x1="69.1215" y1="80.3054" x2="147.493" y2="99.6334" gradientUnits="userSpaceOnUse">
<stop stop-color="#843400"/>
<stop offset="0.191" stop-color="#8F3913"/>
<stop offset="0.488" stop-color="#9D3F2A"/>
<stop offset="0.765" stop-color="#A64339"/>
<stop offset="1" stop-color="#A9453E"/>
</linearGradient>
<clipPath id="clip0_2863_19784">
<rect width="398.762" height="340.979" fill="white"/>
</clipPath>
</defs>
</svg>
