<svg id="Layer_1" enable-background="new 0 0 512 512" height="512" viewBox="0 0 512 512" width="512" xmlns="http://www.w3.org/2000/svg"><path d="m256 57c-109.7 0-199 89.3-199 199s89.3 199 199 199 199-89.3 199-199-89.3-199-199-199zm0 28.5c44.2 0 84.6 16.9 114.9 44.7-5.1-1-10.2-.8-15.2.9-13.8 4.8-25.6 24.8-16.9 41.6 4 7.7 12 18.7 20.7 30.2 5.6 7.5 17.8 34.7 7.3 74.7-7.4 28.3-22.9 77-22.9 77l-61.9-180.1h19.5c4 0 7.2-3.2 7.2-7.2s-3.2-7.2-7.2-7.2h-94.6c-4 0-7.2 3.2-7.2 7.2s3.2 7.2 7.2 7.2h16.3l28.3 73.7-36.7 109.5-61.6-183.2h19.5c4 0 7.2-3.2 7.2-7.2s-3.2-7.2-7.2-7.2h-57.6c30.8-45 82.5-74.6 140.9-74.6zm-170.5 170.5c0-24.3 5.1-47.4 14.3-68.3l82.1 221.8c-57-27.6-96.4-86-96.4-153.5zm121 163.1 53.2-147.3 53.3 144.9c-17.8 6.3-37 9.8-56.9 9.8-17.3 0-33.9-2.6-49.6-7.4zm139.6-18.4c10.7-31.5 47.7-141.4 54.7-163.2 6.6-20.5 11.9-32.5 11.5-49.5 9.1 20.9 14.2 43.9 14.2 68 0 60.9-32.2 114.5-80.4 144.7z" fill="#0071bc"/></svg>