<?xml version="1.0" encoding="iso-8859-1"?>
<!-- Generator: Adobe Illustrator 19.0.0, SVG Export Plug-In . SVG Version: 6.00 Build 0)  -->
<svg version="1.1" id="Capa_1" xmlns="http://www.w3.org/2000/svg" xmlns:xlink="http://www.w3.org/1999/xlink" x="0px" y="0px"
	 viewBox="0 0 512 512" style="enable-background:new 0 0 512 512;" xml:space="preserve">
<g>
	<g transform="translate(1 1)">
		<path style="fill:#7FACFA;" d="M502.467,41.667v452.267c-0.014,4.707-3.826,8.519-8.533,8.533H16.067
			c-4.707-0.014-8.519-3.826-8.533-8.533V41.667H502.467z"/>
		<path style="fill:#E3E7F2;" d="M476.869,41.667l-0.002,452.267c0.105,4.584-3.508,8.395-8.092,8.533H15.625
			c-4.584-0.138-8.197-3.949-8.092-8.533L7.531,41.667H476.869z"/>
		<path style="fill:#7FACFA;" d="M502.467,16.067v42.667H7.533V16.067c0.014-4.707,3.826-8.519,8.533-8.533h477.867
			C498.64,7.547,502.453,11.36,502.467,16.067z"/>
		<path style="fill:#E3E7F2;" d="M476.867,16.067l0.002,42.667H7.531l0.002-42.667c-0.105-4.584,3.508-8.395,8.092-8.533h453.149
			C473.358,7.672,476.972,11.482,476.867,16.067z"/>
		
			<linearGradient id="SVGID_1_" gradientUnits="userSpaceOnUse" x1="-49.8011" y1="651.3232" x2="-48.5609" y2="650.5534" gradientTransform="matrix(153.6 0 0 -247.4667 7681.2002 161344.8125)">
			<stop  offset="0" style="stop-color:#D4E1F4"/>
			<stop  offset="0.1717" style="stop-color:#D4E1F4"/>
			<stop  offset="0.2" style="stop-color:#D4E1F4"/>
			<stop  offset="0.2001" style="stop-color:#DAE4F4"/>
			<stop  offset="0.2007" style="stop-color:#EBEBF4"/>
			<stop  offset="0.2014" style="stop-color:#F6F1F4"/>
			<stop  offset="0.2023" style="stop-color:#FDF4F4"/>
			<stop  offset="0.205" style="stop-color:#FFF5F4"/>
			<stop  offset="0.2522" style="stop-color:#FFF5F4"/>
			<stop  offset="0.26" style="stop-color:#FFF5F4"/>
			<stop  offset="0.26" style="stop-color:#D4E1F4"/>
			<stop  offset="0.3974" style="stop-color:#D4E1F4"/>
			<stop  offset="0.42" style="stop-color:#D4E1F4"/>
			<stop  offset="0.4201" style="stop-color:#DAE4F4"/>
			<stop  offset="0.4207" style="stop-color:#EBEBF4"/>
			<stop  offset="0.4214" style="stop-color:#F6F1F4"/>
			<stop  offset="0.4223" style="stop-color:#FDF4F4"/>
			<stop  offset="0.425" style="stop-color:#FFF5F4"/>
			<stop  offset="0.4894" style="stop-color:#FFF5F4"/>
			<stop  offset="0.5" style="stop-color:#FFF5F4"/>
			<stop  offset="0.5" style="stop-color:#F9F2F4"/>
			<stop  offset="0.5001" style="stop-color:#E8EBF4"/>
			<stop  offset="0.5003" style="stop-color:#DDE5F4"/>
			<stop  offset="0.5005" style="stop-color:#D6E2F4"/>
			<stop  offset="0.501" style="stop-color:#D4E1F4"/>
			<stop  offset="0.7062" style="stop-color:#D4E1F4"/>
			<stop  offset="0.74" style="stop-color:#D4E1F4"/>
			<stop  offset="0.741" style="stop-color:#FFF5F4"/>
			<stop  offset="0.8346" style="stop-color:#FFF5F4"/>
			<stop  offset="0.85" style="stop-color:#FFF5F4"/>
			<stop  offset="0.851" style="stop-color:#D4E1F4"/>
		</linearGradient>
		<path style="fill:url(#SVGID_1_);" d="M203.8,289.133V152.6c-0.028-9.414-7.652-17.039-17.067-17.067H67.267
			c-9.414,0.028-17.039,7.652-17.067,17.067v213.333c0.028,9.414,7.652,17.039,17.067,17.067h119.467
			c9.414-0.028,17.039-7.652,17.067-17.067v-42.667"/>
		<path style="fill:#7FACFA;" d="M459.8,109.933V127H306.2v-17.067c0.027-9.414,7.652-17.039,17.067-17.067h119.467
			C452.148,92.894,459.773,100.519,459.8,109.933z"/>
		
			<linearGradient id="SVGID_2_" gradientUnits="userSpaceOnUse" x1="-49.7914" y1="651.249" x2="-48.5511" y2="650.4792" gradientTransform="matrix(153.6 0 0 -213.3333 7937.2002 139081.3438)">
			<stop  offset="0" style="stop-color:#D4E1F4"/>
			<stop  offset="0.1717" style="stop-color:#D4E1F4"/>
			<stop  offset="0.2" style="stop-color:#D4E1F4"/>
			<stop  offset="0.2001" style="stop-color:#DAE4F4"/>
			<stop  offset="0.2007" style="stop-color:#EBEBF4"/>
			<stop  offset="0.2014" style="stop-color:#F6F1F4"/>
			<stop  offset="0.2023" style="stop-color:#FDF4F4"/>
			<stop  offset="0.205" style="stop-color:#FFF5F4"/>
			<stop  offset="0.2522" style="stop-color:#FFF5F4"/>
			<stop  offset="0.26" style="stop-color:#FFF5F4"/>
			<stop  offset="0.26" style="stop-color:#D4E1F4"/>
			<stop  offset="0.3974" style="stop-color:#D4E1F4"/>
			<stop  offset="0.42" style="stop-color:#D4E1F4"/>
			<stop  offset="0.4201" style="stop-color:#DAE4F4"/>
			<stop  offset="0.4207" style="stop-color:#EBEBF4"/>
			<stop  offset="0.4214" style="stop-color:#F6F1F4"/>
			<stop  offset="0.4223" style="stop-color:#FDF4F4"/>
			<stop  offset="0.425" style="stop-color:#FFF5F4"/>
			<stop  offset="0.4894" style="stop-color:#FFF5F4"/>
			<stop  offset="0.5" style="stop-color:#FFF5F4"/>
			<stop  offset="0.5" style="stop-color:#F9F2F4"/>
			<stop  offset="0.5001" style="stop-color:#E8EBF4"/>
			<stop  offset="0.5003" style="stop-color:#DDE5F4"/>
			<stop  offset="0.5005" style="stop-color:#D6E2F4"/>
			<stop  offset="0.501" style="stop-color:#D4E1F4"/>
			<stop  offset="0.7062" style="stop-color:#D4E1F4"/>
			<stop  offset="0.74" style="stop-color:#D4E1F4"/>
			<stop  offset="0.741" style="stop-color:#FFF5F4"/>
			<stop  offset="0.8346" style="stop-color:#FFF5F4"/>
			<stop  offset="0.85" style="stop-color:#FFF5F4"/>
			<stop  offset="0.851" style="stop-color:#D4E1F4"/>
		</linearGradient>
		<path style="fill:url(#SVGID_2_);" d="M459.8,127v196.267c-0.028,9.414-7.652,17.039-17.067,17.067H323.267
			c-9.414-0.028-17.039-7.652-17.067-17.067V127H459.8z"/>
		<path style="fill:#7FACFA;" d="M459.8,400.067v17.067H306.2v-17.067c0.027-9.414,7.652-17.039,17.067-17.067h119.467
			C452.148,383.028,459.773,390.652,459.8,400.067z"/>
		
			<linearGradient id="SVGID_3_" gradientUnits="userSpaceOnUse" x1="-49.8011" y1="650.256" x2="-48.5609" y2="649.4862" gradientTransform="matrix(153.6 0 0 -85.3333 7937.2002 55915.4688)">
			<stop  offset="0" style="stop-color:#D4E1F4"/>
			<stop  offset="0.1717" style="stop-color:#D4E1F4"/>
			<stop  offset="0.2" style="stop-color:#D4E1F4"/>
			<stop  offset="0.2001" style="stop-color:#DAE4F4"/>
			<stop  offset="0.2007" style="stop-color:#EBEBF4"/>
			<stop  offset="0.2014" style="stop-color:#F6F1F4"/>
			<stop  offset="0.2023" style="stop-color:#FDF4F4"/>
			<stop  offset="0.205" style="stop-color:#FFF5F4"/>
			<stop  offset="0.2522" style="stop-color:#FFF5F4"/>
			<stop  offset="0.26" style="stop-color:#FFF5F4"/>
			<stop  offset="0.26" style="stop-color:#D4E1F4"/>
			<stop  offset="0.3974" style="stop-color:#D4E1F4"/>
			<stop  offset="0.42" style="stop-color:#D4E1F4"/>
			<stop  offset="0.4201" style="stop-color:#DAE4F4"/>
			<stop  offset="0.4207" style="stop-color:#EBEBF4"/>
			<stop  offset="0.4214" style="stop-color:#F6F1F4"/>
			<stop  offset="0.4223" style="stop-color:#FDF4F4"/>
			<stop  offset="0.425" style="stop-color:#FFF5F4"/>
			<stop  offset="0.4894" style="stop-color:#FFF5F4"/>
			<stop  offset="0.5" style="stop-color:#FFF5F4"/>
			<stop  offset="0.5" style="stop-color:#F9F2F4"/>
			<stop  offset="0.5001" style="stop-color:#E8EBF4"/>
			<stop  offset="0.5003" style="stop-color:#DDE5F4"/>
			<stop  offset="0.5005" style="stop-color:#D6E2F4"/>
			<stop  offset="0.501" style="stop-color:#D4E1F4"/>
			<stop  offset="0.7062" style="stop-color:#D4E1F4"/>
			<stop  offset="0.74" style="stop-color:#D4E1F4"/>
			<stop  offset="0.741" style="stop-color:#FFF5F4"/>
			<stop  offset="0.8346" style="stop-color:#FFF5F4"/>
			<stop  offset="0.85" style="stop-color:#FFF5F4"/>
			<stop  offset="0.851" style="stop-color:#D4E1F4"/>
		</linearGradient>
		<polygon style="fill:url(#SVGID_3_);" points="459.8,417.133 459.8,502.467 306.2,502.467 306.2,485.4 306.2,451.267 
			306.2,417.133 		"/>
		<path style="fill:#7FACFA;" d="M203.8,442.733V459.8H50.2v-17.067c0.028-9.414,7.652-17.039,17.067-17.067h119.467
			C196.148,425.694,203.773,433.319,203.8,442.733z"/>
		
			<linearGradient id="SVGID_4_" gradientUnits="userSpaceOnUse" x1="-49.8011" y1="649.17" x2="-48.5609" y2="648.4003" gradientTransform="matrix(153.6 0 0 -51.2 7681.2002 33703.2031)">
			<stop  offset="0" style="stop-color:#D4E1F4"/>
			<stop  offset="0.1717" style="stop-color:#D4E1F4"/>
			<stop  offset="0.2" style="stop-color:#D4E1F4"/>
			<stop  offset="0.2001" style="stop-color:#DAE4F4"/>
			<stop  offset="0.2007" style="stop-color:#EBEBF4"/>
			<stop  offset="0.2014" style="stop-color:#F6F1F4"/>
			<stop  offset="0.2023" style="stop-color:#FDF4F4"/>
			<stop  offset="0.205" style="stop-color:#FFF5F4"/>
			<stop  offset="0.2522" style="stop-color:#FFF5F4"/>
			<stop  offset="0.26" style="stop-color:#FFF5F4"/>
			<stop  offset="0.26" style="stop-color:#D4E1F4"/>
			<stop  offset="0.3974" style="stop-color:#D4E1F4"/>
			<stop  offset="0.42" style="stop-color:#D4E1F4"/>
			<stop  offset="0.4201" style="stop-color:#DAE4F4"/>
			<stop  offset="0.4207" style="stop-color:#EBEBF4"/>
			<stop  offset="0.4214" style="stop-color:#F6F1F4"/>
			<stop  offset="0.4223" style="stop-color:#FDF4F4"/>
			<stop  offset="0.425" style="stop-color:#FFF5F4"/>
			<stop  offset="0.4894" style="stop-color:#FFF5F4"/>
			<stop  offset="0.5" style="stop-color:#FFF5F4"/>
			<stop  offset="0.5" style="stop-color:#F9F2F4"/>
			<stop  offset="0.5001" style="stop-color:#E8EBF4"/>
			<stop  offset="0.5003" style="stop-color:#DDE5F4"/>
			<stop  offset="0.5005" style="stop-color:#D6E2F4"/>
			<stop  offset="0.501" style="stop-color:#D4E1F4"/>
			<stop  offset="0.7062" style="stop-color:#D4E1F4"/>
			<stop  offset="0.74" style="stop-color:#D4E1F4"/>
			<stop  offset="0.741" style="stop-color:#FFF5F4"/>
			<stop  offset="0.8346" style="stop-color:#FFF5F4"/>
			<stop  offset="0.85" style="stop-color:#FFF5F4"/>
			<stop  offset="0.851" style="stop-color:#D4E1F4"/>
		</linearGradient>
		<polygon style="fill:url(#SVGID_4_);" points="203.8,459.8 203.8,511 50.2,511 50.2,500.76 50.2,480.28 50.2,459.8 		"/>
		<g>
			<circle style="fill:#E3E7F2;" cx="127" cy="272.067" r="34.133"/>
			<rect x="348.867" y="161.133" style="fill:#E3E7F2;" width="34.133" height="42.667"/>
			<rect x="331.8" y="237.933" style="fill:#E3E7F2;" width="51.2" height="42.667"/>
		</g>
		<path d="M383,511h-51.2c-4.713,0-8.533-3.821-8.533-8.533v-51.2c0-4.713,3.82-8.533,8.533-8.533H383
			c4.713,0,8.533,3.82,8.533,8.533v51.2C391.533,507.18,387.713,511,383,511z M340.333,493.933h34.133V459.8h-34.133V493.933z"/>
		<polyline style="fill:#E3E7F2;" points="383,340.333 383,314.733 331.8,314.733 331.8,340.333 		"/>
		<path style="fill:#7FACFA;" d="M203.8,152.6v17.067H50.2V152.6c0.028-9.414,7.652-17.039,17.067-17.067h119.467
			C196.148,135.561,203.773,143.186,203.8,152.6z"/>
		<g>
			<path style="fill:#A4C2F7;" d="M434.2,109.933V127h-128v-17.067c-0.686-8.609,5.631-16.189,14.222-17.067h99.555
				C428.569,93.745,434.886,101.325,434.2,109.933z"/>
			<path style="fill:#A4C2F7;" d="M434.2,400.067v17.067h-128v-17.067c-0.686-8.609,5.631-16.189,14.222-17.067h99.555
				C428.569,383.878,434.886,391.458,434.2,400.067z"/>
			<path style="fill:#A4C2F7;" d="M178.2,442.733V459.8h-128v-17.067c-0.686-8.609,5.631-16.189,14.222-17.067h99.555
				C172.569,426.545,178.886,434.125,178.2,442.733z"/>
			<path style="fill:#A4C2F7;" d="M178.2,152.6v17.067h-128V152.6c-0.686-8.609,5.631-16.189,14.222-17.067h99.555
				C172.569,136.411,178.886,143.991,178.2,152.6z"/>
			<circle style="fill:#A4C2F7;" cx="203.8" cy="306.2" r="17.067"/>
			<circle style="fill:#A4C2F7;" cx="306.2" cy="178.2" r="17.067"/>
		</g>
		<rect x="331.8" y="451.267" style="fill:#E3E7F2;" width="51.2" height="51.2"/>
		<path style="fill:#FFFFFF;" d="M41.24,502.467h-25.6c-4.584-0.142-8.2-3.948-8.107-8.533V16.067
			c-0.093-4.586,3.522-8.392,8.107-8.533h25.6c-4.584,0.142-8.2,3.948-8.107,8.533v477.867
			C33.04,498.519,36.656,502.325,41.24,502.467z"/>
	</g>
	<g>
		<polygon style="fill:#FFFFFF;" points="17.067,59.733 17.067,170.667 17.067,494.933 0,494.933 0,170.667 0,59.733 		"/>
		<g>
			<path style="fill:#428DFF;" d="M8.533,136.533c2.259-0.034,4.422-0.918,6.059-2.475c3.3-3.365,3.3-8.752,0-12.117l-1.279-1.025
				c-0.476-0.324-0.993-0.583-1.538-0.771c-0.484-0.246-1.003-0.417-1.538-0.509c-0.563-0.096-1.133-0.153-1.704-0.171
				c-2.259,0.031-4.423,0.915-6.059,2.475c-3.222,3.397-3.222,8.721,0,12.117c0.815,0.771,1.77,1.379,2.813,1.792
				C6.314,136.288,7.417,136.52,8.533,136.533z"/>
			<path style="fill:#428DFF;" d="M494.933,0H17.067C7.645,0.009,0.009,7.645,0,17.067v76.8c0,4.713,3.821,8.533,8.533,8.533
				s8.533-3.821,8.533-8.533v-25.6h477.867v426.667h-25.6v-93.867c-0.015-14.132-11.468-25.585-25.6-25.6H324.267
				c-14.132,0.015-25.585,11.468-25.6,25.6v93.867h-85.333v-51.2c-0.015-14.132-11.468-25.585-25.6-25.6H68.267
				c-14.132,0.015-25.585,11.468-25.6,25.6v51.2h-25.6v-332.8c0-4.713-3.821-8.533-8.533-8.533S0,157.421,0,162.133v332.8
				c0.009,9.422,7.645,17.057,17.067,17.067h477.867c9.422-0.009,17.057-7.645,17.067-17.067V17.067
				C511.991,7.645,504.355,0.009,494.933,0z M324.267,392.533h119.467c4.71,0.006,8.527,3.823,8.533,8.533v8.533H315.733v-8.533
				C315.739,396.356,319.556,392.539,324.267,392.533z M315.733,426.667h136.533v68.267h-59.733v-42.667
				c0-4.713-3.82-8.533-8.533-8.533h-51.2c-4.713,0-8.533,3.82-8.533,8.533v42.667h-8.533V426.667z M68.267,435.2h119.467
				c4.71,0.006,8.527,3.823,8.533,8.533v8.533H59.733v-8.533C59.739,439.023,63.556,435.206,68.267,435.2z M59.733,469.333h136.533
				v25.6H59.733V469.333z M341.333,494.933V460.8h34.133v34.133H341.333z M17.067,51.2V17.067h477.867V51.2H17.067z"/>
			<path style="fill:#428DFF;" d="M93.867,25.6h-51.2c-4.713,0-8.533,3.821-8.533,8.533s3.821,8.533,8.533,8.533h51.2
				c4.713,0,8.533-3.821,8.533-8.533S98.579,25.6,93.867,25.6z"/>
			<path style="fill:#428DFF;" d="M145.067,25.6H128c-4.713,0-8.533,3.821-8.533,8.533s3.821,8.533,8.533,8.533h17.067
				c4.713,0,8.533-3.821,8.533-8.533S149.779,25.6,145.067,25.6z"/>
			<path style="fill:#428DFF;" d="M196.267,25.6H179.2c-4.713,0-8.533,3.821-8.533,8.533s3.821,8.533,8.533,8.533h17.067
				c4.713,0,8.533-3.821,8.533-8.533S200.98,25.6,196.267,25.6z"/>
			<path style="fill:#428DFF;" d="M247.467,25.6H230.4c-4.713,0-8.533,3.821-8.533,8.533s3.82,8.533,8.533,8.533h17.067
				c4.713,0,8.533-3.821,8.533-8.533S252.18,25.6,247.467,25.6z"/>
			<path style="fill:#428DFF;" d="M298.667,25.6H281.6c-4.713,0-8.533,3.821-8.533,8.533s3.82,8.533,8.533,8.533h17.067
				c4.713,0,8.533-3.821,8.533-8.533S303.38,25.6,298.667,25.6z"/>
			<path style="fill:#428DFF;" d="M477.867,25.6h-8.533c-4.713,0-8.533,3.821-8.533,8.533s3.821,8.533,8.533,8.533h8.533
				c4.713,0,8.533-3.821,8.533-8.533S482.58,25.6,477.867,25.6z"/>
			<path style="fill:#428DFF;" d="M187.733,128H68.267c-14.132,0.015-25.585,11.468-25.6,25.6v213.333
				c0.015,14.132,11.468,25.585,25.6,25.6h119.467c14.132-0.015,25.585-11.468,25.6-25.6v-35.706
				c9.373-3.34,15.946-11.827,16.835-21.737c14.883-7.107,34.365-23.723,34.365-62.024c-1.406-19.981,7.676-39.255,23.98-50.891
				c2.8,3.001,6.283,5.283,10.153,6.652v121.04c0.015,14.132,11.468,25.585,25.6,25.6h119.467c14.132-0.015,25.585-11.468,25.6-25.6
				V110.933c-0.015-14.132-11.468-25.585-25.6-25.6H324.267c-14.132,0.015-25.585,11.468-25.6,25.6v44.239
				c-10.199,3.592-17.033,13.214-17.067,24.028c0,0.465,0.113,0.899,0.137,1.358c-22.724,14.427-35.842,40.038-34.271,66.908
				c0,21.855-7.316,36.967-21.718,45.098c-3.064-4.343-7.403-7.625-12.415-9.392V153.6C213.318,139.468,201.865,128.015,187.733,128
				z M375.467,332.8h-34.133v-8.533h34.133V332.8z M452.267,324.267c-0.006,4.71-3.823,8.527-8.533,8.533h-51.2v-17.067
				c0-4.713-3.82-8.533-8.533-8.533h-51.2c-4.713,0-8.533,3.821-8.533,8.533V332.8c-4.71-0.006-8.527-3.823-8.533-8.533V203.228
				c10.22-3.565,17.067-13.204,17.067-24.028s-6.847-20.463-17.067-24.028v-18.639h136.533V324.267z M324.267,102.4h119.467
				c4.71,0.006,8.527,3.823,8.533,8.533v8.533H315.733v-8.533C315.739,106.223,319.556,102.406,324.267,102.4z M307.2,170.667
				c4.713,0,8.533,3.821,8.533,8.533s-3.82,8.533-8.533,8.533s-8.533-3.82-8.533-8.533C298.673,174.49,302.49,170.673,307.2,170.667
				z M68.267,145.067h119.467c4.71,0.006,8.527,3.823,8.533,8.533v8.533H59.733V153.6C59.739,148.89,63.556,145.073,68.267,145.067z
				 M187.733,375.467H68.267c-4.71-0.006-8.527-3.823-8.533-8.533V179.2h136.533v103.972c-10.22,3.564-17.068,13.203-17.068,24.027
				c0,10.824,6.847,20.463,17.068,24.027v35.706C196.261,371.644,192.444,375.461,187.733,375.467z M204.8,315.733
				c-4.713,0-8.533-3.82-8.533-8.533s3.821-8.533,8.533-8.533c4.713,0,8.533,3.82,8.533,8.533
				C213.327,311.91,209.51,315.727,204.8,315.733z"/>
			<path style="fill:#428DFF;" d="M170.667,273.067c0-23.564-19.103-42.667-42.667-42.667s-42.667,19.103-42.667,42.667
				s19.103,42.667,42.667,42.667C151.553,315.706,170.639,296.619,170.667,273.067z M128,298.667c-14.138,0-25.6-11.462-25.6-25.6
				s11.462-25.6,25.6-25.6c14.139,0,25.6,11.462,25.6,25.6C153.585,287.199,142.132,298.651,128,298.667z"/>
			<path style="fill:#428DFF;" d="M110.933,332.8h-25.6c-4.713,0-8.533,3.82-8.533,8.533s3.821,8.533,8.533,8.533h25.6
				c4.713,0,8.533-3.821,8.533-8.533S115.646,332.8,110.933,332.8z"/>
			<path style="fill:#428DFF;" d="M170.667,332.8h-25.6c-4.713,0-8.533,3.82-8.533,8.533s3.821,8.533,8.533,8.533h25.6
				c4.713,0,8.533-3.821,8.533-8.533S175.38,332.8,170.667,332.8z"/>
			<path style="fill:#428DFF;" d="M85.333,213.333h85.333c4.713,0,8.533-3.821,8.533-8.533c0-4.713-3.821-8.533-8.533-8.533H85.333
				c-4.713,0-8.533,3.821-8.533,8.533C76.8,209.513,80.621,213.333,85.333,213.333z"/>
			<path style="fill:#428DFF;" d="M349.867,213.333H384c4.713,0,8.533-3.821,8.533-8.533v-42.667c0-4.713-3.82-8.533-8.533-8.533
				h-25.6c-4.713,0-8.533,3.821-8.533,8.533c0,4.713,3.82,8.533,8.533,8.533h17.067v25.6h-25.6c-4.713,0-8.533,3.821-8.533,8.533
				C341.333,209.513,345.154,213.333,349.867,213.333z"/>
			<path style="fill:#428DFF;" d="M384,230.4h-51.2c-4.713,0-8.533,3.821-8.533,8.533V281.6c0,4.713,3.82,8.533,8.533,8.533H384
				c4.713,0,8.533-3.821,8.533-8.533v-42.667C392.533,234.221,388.713,230.4,384,230.4z M375.467,273.067h-34.133v-25.6h34.133
				V273.067z"/>
			<path style="fill:#428DFF;" d="M409.6,170.667h17.067c4.713,0,8.533-3.821,8.533-8.533c0-4.713-3.82-8.533-8.533-8.533H409.6
				c-4.713,0-8.533,3.821-8.533,8.533C401.067,166.846,404.887,170.667,409.6,170.667z"/>
			<path style="fill:#428DFF;" d="M409.6,196.267h17.067c4.713,0,8.533-3.821,8.533-8.533c0-4.713-3.82-8.533-8.533-8.533H409.6
				c-4.713,0-8.533,3.821-8.533,8.533C401.067,192.446,404.887,196.267,409.6,196.267z"/>
			<path style="fill:#428DFF;" d="M409.6,247.467h17.067c4.713,0,8.533-3.821,8.533-8.533c0-4.713-3.82-8.533-8.533-8.533H409.6
				c-4.713,0-8.533,3.821-8.533,8.533C401.067,243.646,404.887,247.467,409.6,247.467z"/>
			<path style="fill:#428DFF;" d="M409.6,273.067h17.067c4.713,0,8.533-3.82,8.533-8.533S431.38,256,426.667,256H409.6
				c-4.713,0-8.533,3.821-8.533,8.533S404.887,273.067,409.6,273.067z"/>
			<path style="fill:#428DFF;" d="M409.6,460.8h17.067c4.713,0,8.533-3.82,8.533-8.533s-3.82-8.533-8.533-8.533H409.6
				c-4.713,0-8.533,3.82-8.533,8.533S404.887,460.8,409.6,460.8z"/>
			<path style="fill:#428DFF;" d="M409.6,486.4h17.067c4.713,0,8.533-3.82,8.533-8.533s-3.82-8.533-8.533-8.533H409.6
				c-4.713,0-8.533,3.821-8.533,8.533S404.887,486.4,409.6,486.4z"/>
			<path style="fill:#428DFF;" d="M409.6,324.267h17.067c4.713,0,8.533-3.821,8.533-8.533c0-4.713-3.82-8.533-8.533-8.533H409.6
				c-4.713,0-8.533,3.821-8.533,8.533C401.067,320.446,404.887,324.267,409.6,324.267z"/>
		</g>
	</g>
</g>
<g>
</g>
<g>
</g>
<g>
</g>
<g>
</g>
<g>
</g>
<g>
</g>
<g>
</g>
<g>
</g>
<g>
</g>
<g>
</g>
<g>
</g>
<g>
</g>
<g>
</g>
<g>
</g>
<g>
</g>
</svg>
