<?xml version="1.0" encoding="iso-8859-1"?>
<!-- Generator: Adobe Illustrator 19.0.0, SVG Export Plug-In . SVG Version: 6.00 Build 0)  -->
<svg version="1.1" id="Capa_1" xmlns="http://www.w3.org/2000/svg" xmlns:xlink="http://www.w3.org/1999/xlink" x="0px" y="0px"
	 viewBox="0 0 512 512" style="enable-background:new 0 0 512 512;" xml:space="preserve">
<g>
	<g>
		<path style="fill:#71C285;" d="M221.288,416.542H169.22c-4.793,0-8.678,3.885-8.678,8.678s3.885,8.678,8.678,8.678h52.068
			c4.793,0,8.678-3.885,8.678-8.678S226.081,416.542,221.288,416.542z"/>
		<path style="fill:#71C285;" d="M325.424,416.542h-52.068c-4.793,0-8.678,3.885-8.678,8.678s3.885,8.678,8.678,8.678h52.068
			c4.793,0,8.678-3.885,8.678-8.678S330.216,416.542,325.424,416.542z"/>
		<path style="fill:#71C285;" d="M247.322,277.695c-2.302-0.001-4.509,0.914-6.137,2.541c-1.628,1.628-2.542,3.835-2.541,6.137
			v112.814c0,4.793,3.885,8.678,8.678,8.678s8.678-3.885,8.678-8.678V286.373c0.001-2.302-0.914-4.509-2.541-6.137
			C251.831,278.608,249.624,277.694,247.322,277.695z"/>
	</g>
	<circle style="fill:#4482C3;" cx="412.203" cy="425.22" r="86.78"/>
	<path style="fill:#E6E7E8;" d="M464.271,477.288c0.027,6.91-1.331,13.756-3.992,20.133c-29.103,19.439-67.049,19.439-96.152,0
		c-10.189-24.537-0.328-52.812,22.91-65.692c6.539,6.924,15.642,10.847,25.166,10.847s18.627-3.924,25.166-10.847
		C453.975,440.872,464.285,458.332,464.271,477.288z"/>
	<path style="fill:#FFFFFF;" d="M446.915,407.864c0,19.171-15.541,34.712-34.712,34.712c-19.171,0-34.712-15.541-34.712-34.712
		s15.541-34.712,34.712-34.712c9.232-0.084,18.11,3.546,24.638,10.074C443.369,389.755,446.999,398.633,446.915,407.864z"/>
	<path style="fill:#CBB292;" d="M108.475,512H30.373c-9.585,0-17.356-7.771-17.356-17.356V321.085
		c0-9.585,7.771-17.356,17.356-17.356h121.492c9.585,0,17.356,7.771,17.356,17.356v130.169L108.475,512z"/>
	<path style="fill:#7F6E5D;" d="M108.475,512v-43.39c0-9.585,7.771-17.356,17.356-17.356h43.39L108.475,512z"/>
	<g>
		<path style="fill:#E6E7E8;" d="M47.729,355.797h8.678c4.793,0,8.678-3.885,8.678-8.678c0-4.793-3.885-8.678-8.678-8.678h-8.678
			c-4.793,0-8.678,3.885-8.678,8.678C39.051,351.911,42.936,355.797,47.729,355.797z"/>
		<path style="fill:#E6E7E8;" d="M91.119,355.797h43.39c4.793,0,8.678-3.885,8.678-8.678c0-4.793-3.885-8.678-8.678-8.678h-43.39
			c-4.793,0-8.678,3.885-8.678,8.678C82.441,351.911,86.326,355.797,91.119,355.797z"/>
		<path style="fill:#E6E7E8;" d="M134.508,373.153h-86.78c-4.793,0-8.678,3.885-8.678,8.678s3.885,8.678,8.678,8.678h86.78
			c4.793,0,8.678-3.885,8.678-8.678S139.301,373.153,134.508,373.153z"/>
	</g>
	<path style="fill:#4482C3;" d="M247.322,0C165.846,0,99.797,66.049,99.797,147.525s66.049,147.525,147.525,147.525
		s147.525-66.049,147.525-147.525C394.757,66.087,328.76,0.091,247.322,0z M117.153,147.525c0.034-11.737,1.663-23.414,4.842-34.712
		h44.21c-3.098,23.038-3.098,46.386,0,69.424h-44.21C118.816,170.939,117.187,159.262,117.153,147.525z M181.237,147.525
		c0.012-11.617,0.868-23.218,2.559-34.712h54.847v69.424h-54.847C182.105,170.744,181.25,159.143,181.237,147.525z M307.631,95.458
		H256V18.674C278.829,24.89,298.362,55.021,307.631,95.458z M238.644,18.674v76.784h-51.631
		C196.282,55.021,215.815,24.89,238.644,18.674z M238.644,199.593v76.784c-22.829-6.217-42.362-36.347-51.63-76.784H238.644z
		 M256,276.377v-76.784h51.63C298.362,240.03,278.829,270.16,256,276.377z M256,182.237v-69.424h54.847
		c3.412,23.015,3.412,46.408,0,69.424H256z M328.439,112.814h44.21c6.457,22.691,6.457,46.733,0,69.424h-44.21
		C331.537,159.2,331.537,135.851,328.439,112.814z M366.548,95.458H325.5c-4.461-24.882-14.644-48.387-29.746-68.659
		C327.406,39.572,352.812,64.211,366.548,95.458z M198.89,26.799c-15.102,20.272-25.285,43.777-29.746,68.659h-41.048
		C141.833,64.211,167.238,39.572,198.89,26.799z M128.096,199.593h41.048c4.461,24.882,14.644,48.386,29.745,68.658
		C167.238,255.478,141.832,230.839,128.096,199.593z M295.755,268.252c15.101-20.272,25.284-43.777,29.745-68.658h41.048
		C352.812,230.839,327.407,255.478,295.755,268.252z"/>
	<circle style="fill:#26B99A;" cx="247.322" cy="425.22" r="26.034"/>
</g>
<g>
</g>
<g>
</g>
<g>
</g>
<g>
</g>
<g>
</g>
<g>
</g>
<g>
</g>
<g>
</g>
<g>
</g>
<g>
</g>
<g>
</g>
<g>
</g>
<g>
</g>
<g>
</g>
<g>
</g>
</svg>
