<svg xmlns="http://www.w3.org/2000/svg" version="1.1" xmlns:xlink="http://www.w3.org/1999/xlink" xmlns:svgjs="http://svgjs.com/svgjs" width="512" height="512" x="0" y="0" viewBox="0 0 512 511" style="enable-background:new 0 0 512 512" xml:space="preserve" class=""><g><path fill="#b9b9b9" d="M469.332 358.898a8.532 8.532 0 0 1-8.531-8.53v-85.923c0-14.14-11.461-25.601-25.598-25.601h-.36l-42.19.59A8.816 8.816 0 0 1 384 231.02a8.534 8.534 0 0 1 8.414-8.653l42.188-.59a42.853 42.853 0 0 1 30.558 12.29 42.373 42.373 0 0 1 12.707 30.378v85.922c0 4.711-3.82 8.531-8.535 8.531zm0 0" data-original="#b9b9b9"></path><path fill="#b3e4e8" d="M76.8 9.035h290.134c18.851 0 34.132 15.281 34.132 34.133v315.73c0 9.426-7.64 17.067-17.066 17.067H59.734c-9.425 0-17.066-7.64-17.066-17.067V43.168c0-18.852 15.281-34.133 34.133-34.133zm0 0" data-original="#b3e4e8"></path><path fill="#cbcbcb" d="M76.8 9.035h290.134c18.851 0 34.132 15.281 34.132 34.133v25.598H42.668V43.168c0-18.852 15.281-34.133 34.133-34.133zm0 0" data-original="#cbcbcb"></path><path fill="#ea9d2d" d="M196.266 299.168a8.533 8.533 0 0 1-8.532-8.535v-17.067c0-4.71 3.82-8.53 8.532-8.53a8.533 8.533 0 0 1 8.535 8.53v17.067a8.534 8.534 0 0 1-8.535 8.535zM247.469 299.168a8.534 8.534 0 0 1-8.535-8.535v-17.067c0-4.71 3.82-8.53 8.535-8.53 4.71 0 8.531 3.82 8.531 8.53v17.067a8.533 8.533 0 0 1-8.531 8.535zm0 0" data-original="#ea9d2d"></path><path fill="#fbb540" d="M281.602 188.234h-17.067c-4 0-7.46 2.778-8.332 6.68l-6.098 27.453h-62.37a8.528 8.528 0 0 0-8.364 10.238l8.531 42.668a8.539 8.539 0 0 0 8.364 6.829h51.203a8.568 8.568 0 0 0 2.855-.504c.344-.164.672-.348.992-.547a8.574 8.574 0 0 0 1.493-.856 7.68 7.68 0 0 0 .851-.93c.395-.363.746-.769 1.05-1.21.224-.422.407-.86.548-1.313.219-.426.402-.867.547-1.324l15.554-70.117h10.243c4.71 0 8.53-3.82 8.53-8.535 0-4.711-3.82-8.532-8.53-8.532zm-83.457 51.2h47.445l-5.121 25.597h-37.203zm0 0" data-original="#fbb540"></path><path fill="#ebebeb" d="M469.332 350.367c18.852 0 34.137 15.281 34.137 34.133v42.668c0 18.852-15.285 34.133-34.137 34.133s-34.133-15.281-34.133-34.133V384.5c0-18.852 15.281-34.133 34.133-34.133zm0 0" data-original="#ebebeb"></path><path fill="#e4e4e2" d="M435.2 393.035h68.265v34.133c0 18.852-15.281 34.133-34.133 34.133-18.852 0-34.133-15.281-34.133-34.133zm0 0" data-original="#e4e4e2"></path><path fill="#d9d9d9" d="M469.332 410.102a8.533 8.533 0 0 1-8.531-8.536V384.5c0-4.71 3.82-8.535 8.531-8.535a8.536 8.536 0 0 1 8.535 8.535v17.066a8.534 8.534 0 0 1-8.535 8.536zm0 0" data-original="#d9d9d9"></path><path fill="#fbb540" d="M341.332 265.035h17.066v17.067h-17.066zm0 0" data-original="#fbb540"></path><path fill="#ea9d2d" d="M341.332 230.898h17.066v17.067h-17.066zm0 0" data-original="#ea9d2d"></path><path fill="#fbb540" d="M341.332 196.766h17.066v17.066h-17.066zm0 0" data-original="#fbb540"></path><path fill="#fbd699" d="M8.535 43.168H435.2v76.797H8.535zm0 0" data-original="#fbd699" class=""></path><path fill="#e06661" d="M93.867 43.168H179.2v76.797H93.867zm0 0" data-original="#e06661"></path><path fill="#ea6b65" d="M136.535 162.633c-23.566 0-42.668-19.102-42.668-42.668H179.2c0 23.566-19.101 42.668-42.664 42.668zm0 0" data-original="#ea6b65"></path><path fill="#fbedbf" d="M51.2 162.633c-23.563 0-42.665-19.102-42.665-42.668h85.332c0 23.566-19.101 42.668-42.668 42.668zM221.867 162.633c-23.566 0-42.668-19.102-42.668-42.668h85.336c0 23.566-19.105 42.668-42.668 42.668zm0 0" data-original="#fbedbf"></path><path fill="#e06661" d="M264.535 43.168h85.332v76.797h-85.332zm0 0" data-original="#e06661"></path><path fill="#ea6b65" d="M307.2 162.633c-23.563 0-42.665-19.102-42.665-42.668h85.332c0 23.566-19.101 42.668-42.668 42.668zm0 0" data-original="#ea6b65"></path><path fill="#fbedbf" d="M392.535 162.633c-23.566 0-42.668-19.102-42.668-42.668H435.2c0 23.566-19.101 42.668-42.664 42.668zm0 0" data-original="#fbedbf"></path><path fill="#b9b9b9" d="M187.734 367.434H256v68.265h-68.266zm0 0" data-original="#b9b9b9"></path><path fill="#cbcbcb" d="M384 375.965H59.734c-9.425 0-17.066-7.64-17.066-17.067v-34.132h358.398v34.132c0 9.426-7.64 17.067-17.066 17.067zM59.734 427.168H384c9.426 0 17.066 7.64 17.066 17.066s-7.64 17.067-17.066 17.067H59.734c-9.425 0-17.066-7.64-17.066-17.067s7.64-17.066 17.066-17.066zm0 0" data-original="#cbcbcb"></path><path d="M187.734 290.633a8.533 8.533 0 1 0 17.067 0v-8.531h34.133v8.53a8.533 8.533 0 1 0 17.066 0v-16.136l15.36-69.195h10.242c4.71 0 8.53-3.82 8.53-8.535 0-4.711-3.82-8.532-8.53-8.532h-17.067c-4 0-7.46 2.778-8.332 6.68l-6.098 27.453h-62.37a8.53 8.53 0 0 0-8.364 10.238l8.363 41.813zm57.856-51.2-5.121 25.598h-37.203l-5.121-25.597zm0 0" fill="#353232" data-original="#000000" class=""></path><path d="M477.867 342.688v-78.184c.004-23.563-19.097-42.668-42.66-42.672-.227 0-.45.004-.672.008l-24.933.39v-54.05c20.433-7.227 34.105-26.535 34.132-48.215V43.168a8.534 8.534 0 0 0-8.535-8.535h-26.453C404.664 14.78 387.203.527 366.934.5H76.8C56.53.527 39.07 14.781 34.988 34.633H8.535A8.534 8.534 0 0 0 0 43.168v76.797c.023 21.68 13.695 40.988 34.133 48.215v190.718c0 14.141 11.46 25.602 25.601 25.602H179.2v34.133H59.734c-14.14 0-25.601 11.46-25.601 25.601 0 14.137 11.46 25.598 25.601 25.598H384c14.137 0 25.602-11.46 25.602-25.598 0-14.14-11.465-25.601-25.602-25.601H264.535V384.5H384c14.137 0 25.602-11.46 25.602-25.602V239.305l25.195-.399c14.137-.222 25.777 11.059 26 25.196.004.132.004.27.004.402v78.184c-19.852 4.082-34.11 21.546-34.133 41.812v42.668c0 23.562 19.102 42.664 42.664 42.664 23.566 0 42.668-19.102 42.668-42.664V384.5c-.023-20.27-14.281-37.73-34.133-41.813zm-85.332-188.586c-15.562-.024-29.144-10.543-33.058-25.602h66.113c-3.914 15.059-17.496 25.578-33.055 25.602zM102.398 51.699h68.27v59.735h-68.27zm85.336 0H256v59.735h-68.266zm85.332 0h68.266v59.735h-68.266zM169.59 128.5c-4.692 18.258-23.297 29.254-41.555 24.559a34.13 34.13 0 0 1-24.558-24.559zm85.336 0c-4.696 18.258-23.301 29.254-41.559 24.559A34.13 34.13 0 0 1 188.81 128.5zm85.332 0c-4.695 18.258-23.301 29.254-41.559 24.559a34.13 34.13 0 0 1-24.558-24.559zm86.41-17.066h-68.27V51.699h68.27zM76.801 17.566h290.133a25.608 25.608 0 0 1 24.03 17.067H52.77A25.608 25.608 0 0 1 76.8 17.566zM17.066 51.7h68.266v59.735H17.066zm1.075 76.801h66.117c-4.695 18.258-23.301 29.254-41.559 24.559A34.136 34.136 0 0 1 18.141 128.5zm75.726 19.71c15.563 23.567 47.281 30.052 70.844 14.49a51.082 51.082 0 0 0 14.488-14.49c15.563 23.567 47.281 30.052 70.844 14.49a51.082 51.082 0 0 0 14.488-14.49c15.563 23.567 47.282 30.052 70.848 14.49a51.132 51.132 0 0 0 14.488-14.49 51.2 51.2 0 0 0 42.664 22.958v145.066H51.2V171.168a51.207 51.207 0 0 0 42.668-22.957zm298.668 296.024c0 4.711-3.824 8.532-8.535 8.532H59.734a8.533 8.533 0 1 1 0-17.067H384c4.71 0 8.535 3.82 8.535 8.535zM247.47 418.633h-51.203V384.5h51.203zm145.066-59.735a8.536 8.536 0 0 1-8.535 8.536H59.734a8.534 8.534 0 0 1-8.535-8.536v-25.597h341.336zm102.399 68.27c0 14.137-11.461 25.598-25.602 25.598-14.137 0-25.598-11.461-25.598-25.598v-25.602h17.067a8.533 8.533 0 1 0 17.066 0h17.067zM477.867 384.5v-8.535c0-4.711-3.82-8.531-8.535-8.531a8.532 8.532 0 0 0-8.531 8.53v8.536h-17.067c0-14.137 11.461-25.602 25.598-25.602 14.14 0 25.602 11.465 25.602 25.602zm0 0" fill="#353232" data-original="#000000" class=""></path><path d="M341.332 265.035h17.066v17.067h-17.066zM341.332 230.898h17.066v17.067h-17.066zM341.332 196.766h17.066v17.066h-17.066zm0 0" fill="#353232" data-original="#000000" class=""></path></g></svg>