<?xml version="1.0" encoding="iso-8859-1"?>
<!-- Generator: Adobe Illustrator 19.0.0, SVG Export Plug-In . SVG Version: 6.00 Build 0)  -->
<svg version="1.1" id="Capa_1" xmlns="http://www.w3.org/2000/svg" xmlns:xlink="http://www.w3.org/1999/xlink" x="0px" y="0px"
	 viewBox="0 0 512 512" style="enable-background:new 0 0 512 512;" xml:space="preserve">
<path style="fill:#303C42;" d="M426.667,0h-384C19.135,0,0,19.135,0,42.667v384c0,23.531,19.135,42.667,42.667,42.667h384
	c23.531,0,42.667-19.135,42.667-42.667v-384C469.333,19.135,450.198,0,426.667,0z"/>
<g>
	<path id="SVGCleanerId_0" style="fill:#5C6671;" d="M42.667,21.333h384c11.76,0,21.333,9.573,21.333,21.333v42.667H21.333V42.667
		C21.333,30.906,30.906,21.333,42.667,21.333z"/>
</g>
<g>
	
		<linearGradient id="SVGCleanerId_0_3_" gradientUnits="userSpaceOnUse" x1="-44.263" y1="647.7943" x2="-26.9841" y2="639.7372" gradientTransform="matrix(21.3333 0 0 -21.3333 996.3334 13791.667)">
		<stop  offset="0" style="stop-color:#FFFFFF;stop-opacity:0.2"/>
		<stop  offset="1" style="stop-color:#FFFFFF;stop-opacity:0"/>
	</linearGradient>
	<path id="SVGCleanerId_0_1_" style="fill:url(#SVGCleanerId_0_3_);" d="M42.667,21.333h384c11.76,0,21.333,9.573,21.333,21.333
		v42.667H21.333V42.667C21.333,30.906,30.906,21.333,42.667,21.333z"/>
</g>
<g>
	
		<linearGradient id="SVGCleanerId_0_4_" gradientUnits="userSpaceOnUse" x1="-41.3061" y1="649.2945" x2="-30.1002" y2="638.0877" gradientTransform="matrix(21.3333 0 0 -21.3333 996.3334 13791.667)">
		<stop  offset="0" style="stop-color:#FFFFFF;stop-opacity:0.2"/>
		<stop  offset="1" style="stop-color:#FFFFFF;stop-opacity:0"/>
	</linearGradient>
	<path id="SVGCleanerId_0_2_" style="fill:url(#SVGCleanerId_0_4_);" d="M42.667,21.333h384c11.76,0,21.333,9.573,21.333,21.333
		v42.667H21.333V42.667C21.333,30.906,30.906,21.333,42.667,21.333z"/>
</g>
<path style="fill:#FFFFFF;" d="M426.667,448h-384c-11.76,0-21.333-9.573-21.333-21.333v-320H448v320
	C448,438.427,438.427,448,426.667,448z"/>
<g>
	<circle style="fill:#303C42;" cx="53.333" cy="53.333" r="10.667"/>
	<circle style="fill:#303C42;" cx="96" cy="53.333" r="10.667"/>
	<circle style="fill:#303C42;" cx="138.667" cy="53.333" r="10.667"/>
	<path style="fill:#303C42;" d="M373.333,234.667H352h-57.406l-29.052-58.104c-2.635-5.271-9.052-7.396-14.313-4.771
		c-5.271,2.635-7.406,9.042-4.771,14.313l24.281,48.563h-72.146l24.281-48.563c2.635-5.271,0.5-11.677-4.771-14.313
		c-5.281-2.625-11.667-0.5-14.313,4.771l-29.052,58.104h-57.406H96c-5.896,0-10.667,4.771-10.667,10.667
		C85.333,251.229,90.104,256,96,256h13.65l37.798,113.406c2.906,8.729,11.042,14.594,20.24,14.594h133.958
		c9.198,0,17.333-5.865,20.229-14.583L359.684,256h13.65c5.896,0,10.667-4.771,10.667-10.667
		C384,239.438,379.229,234.667,373.333,234.667z"/>
</g>
<polygon style="fill:#29B6F6;" points="301.646,362.667 167.688,362.667 132.135,256 337.198,256 "/>
<path style="opacity:0.1;enable-background:new    ;" d="M312.889,256l-21.866,65.604c-3.927,11.781-14.952,19.729-27.371,19.729
	H160.577l7.111,21.333h133.958L337.198,256H312.889z"/>
<path style="fill:#303C42;" d="M503.927,362.99l-20.438-5.115l10.833-18.063c2.521-4.198,1.854-9.573-1.604-13.031l-30.167-30.167
	c-3.479-3.469-8.854-4.125-13.031-1.604l-18.063,10.833l-5.115-20.438c-1.188-4.74-5.448-8.073-10.344-8.073h-42.667
	c-4.896,0-9.156,3.333-10.344,8.073l-5.115,20.438l-18.063-10.833c-4.208-2.5-9.583-1.865-13.031,1.604l-30.167,30.167
	c-3.458,3.458-4.125,8.833-1.604,13.031l10.833,18.063l-20.438,5.115c-4.74,1.188-8.073,5.448-8.073,10.344V416
	c0,4.896,3.333,9.156,8.073,10.344l20.438,5.115l-10.833,18.063c-2.521,4.198-1.854,9.573,1.604,13.031l30.167,30.167
	c3.448,3.458,8.802,4.094,13.031,1.604l18.063-10.833l5.115,20.438c1.188,4.74,5.448,8.073,10.344,8.073H416
	c4.896,0,9.156-3.333,10.344-8.073l5.115-20.438l18.063,10.833c4.198,2.5,9.573,1.865,13.031-1.604l30.167-30.167
	c3.458-3.458,4.125-8.833,1.604-13.031l-10.833-18.063l20.438-5.115c4.74-1.188,8.073-5.448,8.073-10.344v-42.667
	C512,368.438,508.667,364.177,503.927,362.99z M394.667,426.667c-17.646,0-32-14.354-32-32c0-17.646,14.354-32,32-32
	c17.646,0,32,14.354,32,32C426.667,412.313,412.313,426.667,394.667,426.667z"/>
<path style="fill:#CCCCCC;" d="M472.344,377.073c-3.479-0.865-6.292-3.427-7.479-6.823c-0.948-2.729-1.99-5.396-3.25-7.979
	c-1.573-3.25-1.406-7.063,0.448-10.156l9.688-16.135l-18.396-18.396l-16.135,9.688c-3.104,1.854-6.896,2.021-10.156,0.448
	c-2.583-1.26-5.25-2.302-7.979-3.25c-3.396-1.188-5.958-4-6.823-7.479l-4.583-18.323h-26.021l-4.583,18.323
	c-0.865,3.479-3.427,6.292-6.823,7.479c-2.729,0.948-5.396,1.99-7.979,3.25c-3.271,1.563-7.073,1.406-10.156-0.448l-16.135-9.688
	l-18.396,18.396l9.688,16.135c1.854,3.094,2.021,6.906,0.448,10.156c-1.26,2.583-2.302,5.25-3.25,7.979
	c-1.188,3.396-4,5.958-7.479,6.823l-18.323,4.583v26.021l18.323,4.583c3.479,0.865,6.292,3.427,7.479,6.823
	c0.948,2.729,1.99,5.396,3.25,7.979c1.573,3.25,1.406,7.063-0.448,10.156l-9.688,16.135l18.396,18.396l16.135-9.688
	c3.083-1.854,6.906-2.021,10.156-0.448c2.583,1.26,5.25,2.302,7.979,3.25c3.396,1.188,5.958,4,6.823,7.479l4.583,18.323h26.021
	l4.583-18.323c0.865-3.479,3.427-6.292,6.823-7.479c2.729-0.948,5.396-1.99,7.979-3.25c3.25-1.583,7.052-1.406,10.156,0.448
	l16.135,9.688l18.396-18.396l-9.688-16.135c-1.854-3.094-2.021-6.906-0.448-10.156c1.26-2.583,2.302-5.25,3.25-7.979
	c1.188-3.396,4-5.958,7.479-6.823l18.323-4.583v-26.021L472.344,377.073z M394.667,448c-29.41,0-53.333-23.924-53.333-53.333
	c0-29.41,23.924-53.333,53.333-53.333c29.41,0,53.333,23.924,53.333,53.333C448,424.076,424.076,448,394.667,448z"/>
<linearGradient id="SVGID_1_" gradientUnits="userSpaceOnUse" x1="-48.3553" y1="641.3854" x2="-21.6487" y2="628.9293" gradientTransform="matrix(21.3333 0 0 -21.3333 996.3334 13791.667)">
	<stop  offset="0" style="stop-color:#FFFFFF;stop-opacity:0.2"/>
	<stop  offset="1" style="stop-color:#FFFFFF;stop-opacity:0"/>
</linearGradient>
<path style="fill:url(#SVGID_1_);" d="M503.927,362.99l-20.438-5.115l10.833-18.063c2.521-4.198,1.854-9.573-1.604-13.031
	l-23.385-23.385V42.667C469.333,19.135,450.198,0,426.667,0h-384C19.135,0,0,19.135,0,42.667v384
	c0,23.531,19.135,42.667,42.667,42.667h260.729l23.385,23.385c3.448,3.458,8.802,4.094,13.031,1.604l18.063-10.833l5.115,20.438
	c1.188,4.74,5.448,8.073,10.344,8.073H416c4.896,0,9.156-3.333,10.344-8.073l5.115-20.438l18.063,10.833
	c4.198,2.5,9.573,1.865,13.031-1.604l30.167-30.167c3.458-3.458,4.125-8.833,1.604-13.031l-10.833-18.063l20.438-5.115
	c4.74-1.188,8.073-5.448,8.073-10.344v-42.667C512,368.438,508.667,364.177,503.927,362.99z"/>
<g>
</g>
<g>
</g>
<g>
</g>
<g>
</g>
<g>
</g>
<g>
</g>
<g>
</g>
<g>
</g>
<g>
</g>
<g>
</g>
<g>
</g>
<g>
</g>
<g>
</g>
<g>
</g>
<g>
</g>
</svg>
