<svg id="Layer_1" enable-background="new 0 0 256 256" height="512" viewBox="0 0 256 256" width="512" xmlns="http://www.w3.org/2000/svg"><g><g><g><path d="m89.611 174.8c-2.406 0-4.357-5.373-4.357-12v-112.8c0-6.628 1.951-12 4.357-12h-42.8c-6.627 0-12 5.372-12 12v112.8c0 6.627 5.373 12 12 12h9.6v43.2l36.685-31.445v-11.755z" fill="#a4d4a0"/></g><g><path d="m181.211 38h-42.8c2.406 0 4.357 5.372 4.357 12v112.8c0 6.627-1.951 12-4.357 12h42.8c6.627 0 12-5.373 12-12v-112.8c0-6.628-5.372-12-12-12z" fill="#419b46"/></g><g><path d="m142.769 162.8v-112.8c0-6.628-1.951-12-4.357-12h-48.801c-2.406 0-4.357 5.372-4.357 12v112.8c0 6.627 1.951 12 4.357 12h3.486v11.755l13.715-11.755h31.6c2.406 0 4.357-5.373 4.357-12z" fill="#65bc49"/></g></g><g><path d="m56.411 221c-.425 0-.852-.09-1.253-.274-1.064-.49-1.747-1.554-1.747-2.726v-40.2h-6.6c-8.271 0-15-6.729-15-15v-112.8c0-8.271 6.729-15 15-15h134.4c8.271 0 15 6.729 15 15v112.8c0 8.271-6.729 15-15 15h-73.29l-49.558 42.478c-.554.475-1.249.722-1.952.722zm-9.6-180c-4.962 0-9 4.038-9 9v112.8c0 4.962 4.038 9 9 9h9.6c1.657 0 3 1.343 3 3v36.678l45.448-38.956c.543-.466 1.236-.722 1.952-.722h74.4c4.963 0 9-4.038 9-9v-112.8c0-4.962-4.037-9-9-9z" fill="#1c2d6b"/></g><g><g><g><path d="m182.125 182c0-6.628 1.372-12.001 3.064-12.001-6.628 0-12.001 5.373-12.001 12.001s5.373 12.001 12.001 12.001c-1.692 0-3.064-5.373-3.064-12.001z" fill="#ede49d"/></g><g><path d="m185.189 169.999c1.692 0 3.064 5.373 3.064 12.001s-1.372 12.001-3.064 12.001c6.628 0 12.001-5.373 12.001-12.001-.001-6.628-5.373-12.001-12.001-12.001z" fill="#d3ba2a"/></g><g><ellipse cx="185.189" cy="182" fill="#eee045" rx="3.064" ry="12.001"/></g></g><g><g><path d="m176.345 192.326c-.148-.755-.279-1.53-.395-2.326h-5.474v-16h5.474c.115-.796.247-1.571.395-2.326l-3.872-9.473 1.227-3.002-8.311-8.311-11.313 11.313 9.473 9.473c-.361.755-.683 1.53-.965 2.326h-13.396v16h13.396c.282.796.604 1.571.965 2.326l-9.473 9.473 11.313 11.313 8.311-8.311-1.227-3.002z" fill="#89aadb"/></g><g><path d="m221.189 190v-16h-13.395c-.282-.796-.604-1.571-.965-2.326l9.473-9.473-11.313-11.313-8.311 8.311 1.227 3.002-3.872 9.473c.148.755.279 1.53.395 2.326h5.474v16h-5.474c-.115.796-.247 1.571-.395 2.326l3.872 9.473-1.227 3.002 8.311 8.311 11.313-11.313-9.473-9.473c.361-.755.683-1.53.965-2.326z" fill="#4b67b0"/></g><g><path d="m199.901 190v-16h-5.474c-.115-.796-.247-1.571-.395-2.326l3.872-9.473-1.227-3.002-1.162 1.162c-.755-.361-1.53-.683-2.326-.965v-13.396h-16v13.396c-.796.282-1.571.604-2.326.965l-1.162-1.162-1.227 3.002 3.872 9.473c-.148.755-.279 1.53-.395 2.326h-5.474v16h5.474c.115.796.247 1.571.395 2.326l-3.872 9.473 1.227 3.002 1.162-1.162c.755.361 1.53.683 2.326.965v13.396h16v-13.396c.796-.282 1.571-.604 2.326-.965l1.162 1.162 1.227-3.002-3.872-9.473c.148-.755.279-1.53.395-2.326zm-14.712 4.001c-6.628 0-12.001-5.373-12.001-12.001s5.373-12.001 12.001-12.001 12.001 5.373 12.001 12.001c-.001 6.628-5.373 12.001-12.001 12.001z" fill="#6287c5"/></g></g><g><path d="m193.188 221h-15.999c-1.657 0-3-1.343-3-3v-9.444l-6.679 6.678c-1.172 1.171-3.07 1.171-4.242 0l-11.313-11.313c-.563-.563-.879-1.326-.879-2.122 0-.795.316-1.559.879-2.121l6.678-6.678h-9.444c-1.657 0-3-1.343-3-3v-16c0-1.657 1.343-3 3-3h9.444l-6.678-6.678c-1.172-1.171-1.172-3.071 0-4.242l11.313-11.313c1.172-1.172 3.07-1.172 4.242 0l6.679 6.678v-9.445c0-1.657 1.343-3 3-3h15.999c1.657 0 3 1.343 3 3v9.444l6.679-6.678c.563-.563 1.325-.879 2.121-.879.796 0 1.559.316 2.121.879l11.313 11.313c1.172 1.171 1.172 3.071 0 4.242l-6.677 6.679h9.443c1.657 0 3 1.343 3 3v16c0 1.657-1.343 3-3 3h-9.443l6.677 6.678c1.172 1.171 1.172 3.071 0 4.242l-11.313 11.313c-1.172 1.172-3.07 1.171-4.242 0l-6.679-6.678v9.445c0 1.657-1.342 3-3 3zm-12.999-6h9.999v-10.396c0-1.271.801-2.404 1.999-2.828.688-.244 1.372-.527 2.032-.843 1.147-.55 2.517-.315 3.416.584l7.353 7.352 7.07-7.07-7.352-7.353c-.9-.899-1.134-2.269-.585-3.417.316-.661.6-1.344.843-2.03.423-1.199 1.557-2 2.828-2h10.396v-10h-10.396c-1.271 0-2.405-.802-2.828-2-.243-.686-.526-1.369-.843-2.03-.549-1.148-.315-2.517.585-3.417l7.352-7.353-7.07-7.071-7.353 7.352c-.899.899-2.269 1.134-3.416.585-.66-.316-1.344-.6-2.032-.843-1.198-.424-1.999-1.557-1.999-2.828v-10.394h-9.999v10.396c0 1.271-.802 2.405-2 2.829-.686.242-1.369.526-2.031.843-1.147.549-2.518.314-3.416-.585l-7.353-7.352-7.071 7.071 7.353 7.353c.899.899 1.134 2.269.585 3.417-.316.66-.6 1.344-.845 2.033-.424 1.197-1.557 1.998-2.827 1.998h-10.396v10h10.396c1.271 0 2.403.8 2.827 1.998.245.689.528 1.373.845 2.033.549 1.148.314 2.517-.585 3.417l-7.352 7.353 7.07 7.07 7.353-7.352c.898-.899 2.269-1.134 3.416-.584.662.317 1.346.601 2.031.843 1.198.424 2 1.557 2 2.829zm4.999-18c-8.271 0-15-6.729-15-15s6.729-15 15-15 15.001 6.729 15.001 15-6.729 15-15.001 15zm0-24c-4.963 0-9 4.038-9 9s4.037 9 9 9 9.001-4.038 9.001-9-4.038-9-9.001-9z" fill="#1c2d6b"/></g></g><g><g><path d="m121.211 69.8h-64.8c-1.657 0-3-1.343-3-3s1.343-3 3-3h64.8c1.657 0 3 1.343 3 3s-1.343 3-3 3z" fill="#1c2d6b"/></g><g><path d="m121.211 96.2h-64.8c-1.657 0-3-1.343-3-3s1.343-3 3-3h64.8c1.657 0 3 1.343 3 3s-1.343 3-3 3z" fill="#1c2d6b"/></g><g><path d="m121.211 122.6h-64.8c-1.657 0-3-1.343-3-3s1.343-3 3-3h64.8c1.657 0 3 1.343 3 3s-1.343 3-3 3z" fill="#1c2d6b"/></g><g><path d="m121.211 149h-64.8c-1.657 0-3-1.343-3-3s1.343-3 3-3h64.8c1.657 0 3 1.343 3 3s-1.343 3-3 3z" fill="#1c2d6b"/></g></g><g><g><path d="m132.01 59.6 3.6 64.8h5.403l-.899-64.8z" fill="#ef7f72"/></g><g><path d="m145.507 59.6-.899 64.8h5.402l3.6-64.8z" fill="#e8383b"/></g><g><path d="m140.114 59.6.899 64.8h3.595l.899-64.8z" fill="#e95947"/></g></g><g><path d="m150.011 127.4h-14.4c-1.592 0-2.907-1.244-2.995-2.833l-3.6-64.8c-.046-.823.249-1.629.815-2.228.567-.599 1.355-.938 2.18-.938h21.6c.824 0 1.612.339 2.18.938.566.599.861 1.405.815 2.228l-3.6 64.8c-.088 1.589-1.403 2.833-2.995 2.833zm-11.563-6h8.725l3.267-58.8h-15.258z" fill="#1c2d6b"/></g><g><g><path d="m153.527 144.187c0-5.928-4.795-10.734-10.717-10.756 1.479.023 2.676 4.829 2.676 10.756 0 5.928-1.197 10.734-2.676 10.756 5.923-.023 10.717-4.829 10.717-10.756z" fill="#e8383b"/></g><g><path d="m140.114 144.187c0-5.933 1.199-10.744 2.68-10.757-.008 0-.017-.001-.025-.001-5.942 0-10.758 4.817-10.758 10.758s4.817 10.758 10.758 10.758c.008 0 .017-.001.025-.001-1.481-.014-2.68-4.824-2.68-10.757z" fill="#ef7f72"/></g><g><path d="m142.8 133.428c-.002 0-.004.001-.006.001.006 0 .011.001.017.001-.004 0-.007-.002-.011-.002z" fill="#e95947"/></g><g><path d="m142.8 154.945c.004 0 .007-.002.01-.002-.006 0-.011.001-.017.001.003 0 .005.001.007.001z" fill="#e95947"/></g><g><path d="m145.486 144.187c0-5.928-1.197-10.734-2.676-10.756-.006 0-.011-.001-.017-.001-1.481.014-2.68 4.824-2.68 10.757s1.199 10.743 2.68 10.757c.006 0 .011-.001.017-.001 1.479-.023 2.676-4.829 2.676-10.756z" fill="#e95947"/></g></g><g><path d="m142.769 157.945c-7.586 0-13.758-6.172-13.758-13.758s6.172-13.759 13.758-13.759c7.587 0 13.759 6.172 13.759 13.759s-6.173 13.758-13.759 13.758zm0-21.517c-4.277 0-7.758 3.48-7.758 7.759 0 4.278 3.48 7.758 7.758 7.758s7.759-3.48 7.759-7.758c-.001-4.278-3.481-7.759-7.759-7.759z" fill="#1c2d6b"/></g></g></svg>