<svg id="Layer_1" enable-background="new 0 0 512 512" height="512" viewBox="0 0 512 512" width="512" xmlns="http://www.w3.org/2000/svg"><g><path d="m490.3 23.2h-468.6c-11.4 0-20.7 9.3-20.7 20.8v313.9c0 11.4 9.3 20.7 20.7 20.7h184.9v51.2h-25.6c-17.5 0-31.7 14.2-31.7 31.7v27.4h213.2v-27.4c0-17.5-14.1-31.7-31.6-31.7h-25.6v-51.2h185c11.4 0 20.7-9.2 20.7-20.7v-313.9c0-11.5-9.3-20.8-20.7-20.8zm-159.3 417.8c11.2 0 20.3 9.1 20.3 20.4v16.1h-190.7v-16.1c0-11.3 9.2-20.4 20.4-20.4zm-113.1-11.3v-51.2h76.2v51.2zm281.8-71.9c0 5.2-4.2 9.4-9.4 9.4h-468.6c-5.2 0-9.5-4.2-9.5-9.4v-34.4h487.5zm0-45.7h-487.4v-268.1c0-5.2 4.2-9.5 9.5-9.5h468.6c5.2 0 9.4 4.3 9.4 9.5v268.1z" fill="#1483df"/><path d="m351.3 461.4v16.1h-190.7v-16.1c0-11.3 9.2-20.4 20.4-20.4h150c11.2 0 20.3 9.1 20.3 20.4z" fill="#9ac8ff"/><path d="m217.9 378.5h76.2v51.2h-76.2z" fill="#9ac8ff"/><path d="m499.7 323.4v34.4c0 5.2-4.2 9.4-9.4 9.4h-468.6c-5.2 0-9.5-4.2-9.5-9.4v-34.4z" fill="#9ac8ff"/><path d="m259 213.7v-80.6c25-10.2 4.7-45.6-16.7-29.1l-69.8-40.2c2.5-10.3-6.3-20.5-16.7-20.3-10.5-.1-19.2 10-16.7 20.3l-69.8 40.3c-21.5-16.7-41.8 18.8-16.7 29v80.6c-25.1 10.3-4.6 45.8 16.8 29l69.6 40.2c-2.5 10.3 6.2 20.5 16.7 20.3 10.5.1 19.2-10 16.7-20.3l69.6-40.2c21.6 16.7 42-18.6 17-29zm-10.7-99.7c2.8-5.2 11.2-2.8 11 3-.7 10-15.6 5.9-11-3zm-92.6-59.3c9.9.8 6.1 15-2.9 10.9-5.2-2.5-3-11.1 2.9-10.9zm-80.7 59 69.5-40.1c6.3 5.4 16.1 5.4 22.4 0l69.5 40.2c-.5 2.1-.4 4.4 0 6.5l-69.5 40.1c-6.2-5.5-16.2-5.4-22.4 0l-69.5-40.1c.4-2.2.4-4.4 0-6.6zm86.6 59.6c-.7 9.9-15.5 5.9-11-3 2.7-4.8 11.3-2.6 11 3zm-109.4-56.3c.1-7.7 11.7-7.7 11.8 0-.1 7.7-11.6 7.8-11.8 0zm11.1 115.7c-2.8 5.2-11.2 3-11-2.9.6-9.8 15.3-6 11 2.9zm83.7 38.6c-.8.5-1.7 1.1-2.5 1.7l-69.5-40c1.7-8.1-3.5-16.7-11.2-19.3v-80.4c2-.7 3.9-1.9 5.6-3.2 14.9 8.6 55.2 31.8 69.5 40.1-1.7 8.2 3.4 16.8 11.2 19.5v80.2c-1.1.3-2.1.8-3.1 1.4zm8.7 20.6c-7.8 0-7.7-11.7 0-11.8 7.7.2 7.9 11.6 0 11.8zm90.4-77.6c-6.9 3.1-11.2 11.1-9.6 18.7l-69.6 40c-1.6-1.3-3.6-2.5-5.6-3.2v-80.2c7.8-2.8 13-11.3 11.2-19.5l69.5-40.1c.8.7 1.6 1.2 2.5 1.8 0 0 .1 0 .1.1 1 .5 2 1 3 1.4v80.4c-.5.1-1 .4-1.5.6zm7.2 21.4c-7.8-.1-7.8-11.6 0-11.8 7.8.2 7.8 11.7 0 11.8z" fill="#1483df"/><path d="m64.1 229.9c-.2 7.7-11.7 7.7-11.8 0 .1-7.8 11.6-7.8 11.8 0z" fill="#9ac8ff"/><path d="m64.1 117c-.2 7.7-11.7 7.8-11.8 0 0-7.7 11.6-7.7 11.8 0z" fill="#9ac8ff"/><path d="m161.6 60.6c-.1 7.5-11.8 7.5-11.8 0 .1-7.7 11.7-7.7 11.8 0z" fill="#9ac8ff"/><path d="m259.2 117c-.6 10-15.5 5.9-11-3h.1c2.7-5.2 11.1-2.8 10.9 3z" fill="#9ac8ff"/><path d="m259.2 229.9c-.2 7.7-11.6 7.7-11.8 0 .1-7.8 11.7-7.8 11.8 0z" fill="#9ac8ff"/><path d="m161.6 173.3c-.7 9.9-15.5 5.9-11-3 2.7-4.8 11.3-2.6 11 3z" fill="#9ac8ff"/><path d="m161.6 286c-.1 7.7-11.7 7.7-11.8 0 .1-7.7 11.7-7.7 11.8 0z" fill="#9ac8ff"/><path d="m247.7 133.2v80.4c-7.7 2.7-12.9 11.2-11.2 19.3l-69.6 40.1c-1.6-1.3-3.6-2.5-5.6-3.2v-80.2c7.8-2.8 13-11.3 11.2-19.5l69.5-40.1c.8.7 1.6 1.2 2.5 1.8 0 0 .1 0 .1.1 1.1.5 2.1.9 3.1 1.3z" fill="#9ac8ff"/><g fill="#1483df"><path d="m155.7 133.8c-3.1 0-5.6 2.5-5.6 5.6v8c0 3.1 2.5 5.6 5.6 5.6s5.6-2.5 5.6-5.6v-8c.1-3.1-2.5-5.6-5.6-5.6z"/><path d="m155.7 100.1c3.1 0 5.6-2.5 5.6-5.6v-8c0-3.1-2.5-5.6-5.6-5.6s-5.6 2.5-5.6 5.6v8c0 3.1 2.5 5.6 5.6 5.6z"/><path d="m91.7 122.6h8.3c7.4 0 7.4-11.2 0-11.3h-8.3c-7.3.1-7.3 11.3 0 11.3z"/><path d="m179.6 122.6h15.9c3.1 0 5.6-2.5 5.6-5.6s-2.5-5.6-5.6-5.6h-15.9c-7.4 0-7.4 11.2 0 11.2z"/><path d="m115.9 122.6h15.9c3.1 0 5.6-2.5 5.6-5.6s-2.5-5.6-5.6-5.6h-15.9c-7.3 0-7.3 11.2 0 11.2z"/><path d="m147.8 122.6h2.3c-1.2 9.9 12.4 9.9 11.3 0 10.6 1.3 10.6-12.6 0-11.3 1.2-10-12.4-10-11.3 0h-2.3c-7.4.1-7.4 11.3 0 11.3z"/><path d="m211.4 122.6h8.3c7.4 0 7.4-11.2 0-11.3h-8.3c-7.4.1-7.4 11.3 0 11.3z"/><path d="m452.8 94.1h-68.3c-5.7 0-10.3 4.6-10.3 10.3v25.9c0 5.7 4.6 10.3 10.3 10.3h68.3c5.7 0 10.3-4.6 10.3-10.3v-25.9c0-5.7-4.6-10.3-10.3-10.3zm-1 35.3h-66.4v-24h66.4z"/></g><path d="m385.4 105.4h66.4v24h-66.4z" fill="#9ac8ff"/><path d="m457.5 166.3h-87.6c-7.3 0-7.4 11.2 0 11.3h87.6c7.3-.1 7.4-11.3 0-11.3z" fill="#1483df"/><path d="m457.5 241.3h-172c-7.3 0-7.4 11.2 0 11.3h172c7.3-.1 7.4-11.3 0-11.3z" fill="#1483df"/><path d="m457.5 204.3h-115.9c-7.3 0-7.4 11.2 0 11.3h115.9c7.3 0 7.4-11.2 0-11.3z" fill="#1483df"/></g></svg>