<svg id="Layer_1" enable-background="new 0 0 512 512" height="512" viewBox="0 0 512 512" width="512" xmlns="http://www.w3.org/2000/svg"><g><path clip-rule="evenodd" d="m266.302 375.658h76.295v29.929h-76.295z" fill="#445ea0" fill-rule="evenodd"/><path clip-rule="evenodd" d="m266.302 375.658h22.964v29.929h-22.964z" fill="#2e4c89" fill-rule="evenodd"/><path clip-rule="evenodd" d="m116.277 61.242h376.343c10.666 0 19.38 8.714 19.38 19.38v275.686c0 10.637-8.714 19.35-19.38 19.35h-376.343c-10.637 0-19.35-8.714-19.35-19.35v-275.686c0-10.666 8.714-19.38 19.35-19.38z" fill="#445ea0" fill-rule="evenodd"/><path clip-rule="evenodd" d="m124.408 88.753h360.082v259.424h-360.082z" fill="#e9e9ff" fill-rule="evenodd"/><path clip-rule="evenodd" d="m403.533 450.758v-22.585c0-12.415-10.171-22.585-22.585-22.585h-152.998c-12.414 0-22.585 10.171-22.585 22.585v22.585z" fill="#293d7c" fill-rule="evenodd"/><path d="m280.523 112.504h82.123c3.963 0 7.198 3.206 7.198 7.198v82.123c0 3.963-3.235 7.198-7.198 7.198h-82.123c-3.993 0-7.198-3.235-7.198-7.198v-82.123c0-3.993 3.206-7.198 7.198-7.198z" fill="#43cb8e"/><path d="m280.523 227.878h82.123c3.963 0 7.198 3.235 7.198 7.198v82.152c0 3.963-3.235 7.198-7.198 7.198h-82.123c-3.993 0-7.198-3.235-7.198-7.198v-82.152c0-3.963 3.206-7.198 7.198-7.198z" fill="#ed524e"/><path d="m385.639 144.501h79.179v14.397h-79.179zm0-31.998v14.397h79.179v-14.397zm0 161.769h79.179v-14.397h-79.179zm0-31.998h79.179v-14.397h-79.179z" fill="#cfcfff"/><g><path d="m312.347 184.369c-.091 0-.181-.002-.273-.006-2.152-.081-4.154-1.121-5.458-2.835l-14.994-19.718 11.46-8.715 9.692 12.747 28.077-31.646 10.769 9.554-33.89 38.198c-1.367 1.542-3.329 2.421-5.383 2.421z" fill="#e9e9ff"/></g><path d="m345.694 262.241-10.174-10.184-13.935 13.921-13.935-13.921-10.175 10.184 13.925 13.911-13.925 13.911 10.175 10.184 13.935-13.921 13.935 13.921 10.174-10.184-13.924-13.911z" fill="#e9e9ff"/><g clip-rule="evenodd" fill-rule="evenodd"><path d="m249.283 405.587h-21.333c-12.414 0-22.585 10.171-22.585 22.585v22.585h21.361v-22.585c.001-12.414 10.142-22.585 22.557-22.585z" fill="#1a2b63"/><path d="m285.39 201.825v-82.123c0-3.993 3.235-7.198 7.198-7.198h-12.065c-3.993 0-7.198 3.206-7.198 7.198v82.123c0 3.963 3.206 7.198 7.198 7.198h12.065c-3.963 0-7.198-3.235-7.198-7.198z" fill="#00ba66"/><path d="m280.523 227.878c-3.993 0-7.198 3.235-7.198 7.198v82.152c0 3.963 3.206 7.198 7.198 7.198h12.065c-3.963 0-7.198-3.235-7.198-7.198v-82.152c0-3.963 3.235-7.198 7.198-7.198z" fill="#c0433f"/><path d="m510.339 364.118c-3.031 6.79-9.85 11.54-17.718 11.54h-376.344c-10.637 0-19.35-8.714-19.35-19.35v-275.686c0-7.694 4.517-14.367 11.016-17.485-1.049 2.39-1.661 5.042-1.661 7.839v275.657c0 10.666 8.743 19.38 19.38 19.38h376.343c2.972-.001 5.799-.671 8.334-1.895z" fill="#2e4c89"/><path d="m130.441 133.544c9.967 2.244 19.292 6.178 27.685 11.482l15.562-15.562c10.899 7.577 20.37 17.077 27.947 27.976l-15.533 15.533c5.275 8.393 9.209 17.718 11.482 27.714h21.973c1.166 6.411 1.778 12.997 1.778 19.758s-.612 13.347-1.778 19.758h-21.973c-2.273 9.996-6.207 19.321-11.482 27.714l15.533 15.533c-7.577 10.899-17.048 20.4-27.947 27.977l-15.562-15.562c-8.393 5.304-17.718 9.238-27.685 11.482v22.002c-6.411 1.137-13.027 1.748-19.788 1.748-6.732 0-13.347-.612-19.758-1.748v-22.002c-9.967-2.244-19.292-6.178-27.685-11.482l-15.562 15.562c-10.899-7.577-20.37-17.077-27.947-27.977l15.533-15.533c-5.275-8.393-9.209-17.718-11.482-27.714h-21.974c-1.166-6.409-1.778-12.996-1.778-19.757s.612-13.347 1.778-19.758h21.973c2.273-9.996 6.207-19.321 11.482-27.714l-15.533-15.533c7.577-10.899 17.048-20.4 27.947-27.976l15.562 15.562c8.393-5.304 17.718-9.238 27.685-11.482v-22.002c6.411-1.137 13.027-1.749 19.758-1.749 6.761 0 13.377.612 19.788 1.749v22.001z" fill="#0cb4fb"/><path d="m110.653 159.306c33.776 0 61.17 27.365 61.17 61.14s-27.394 61.14-61.17 61.14c-33.747 0-61.14-27.365-61.14-61.14s27.393-61.14 61.14-61.14z" fill="#e9e9ff"/></g><path d="m95.159 237.611-10.18 10.179-22.226-22.224c-1.351-1.35-2.109-3.183-2.108-5.093.001-1.911.761-3.742 2.112-5.091l22.23-22.192 10.171 10.188-17.131 17.102zm63.423-22.283-22.226-22.225-10.18 10.179 17.131 17.132-17.131 17.101 10.171 10.188 22.23-22.191c1.352-1.349 2.112-3.181 2.113-5.091s-.757-3.742-2.108-5.093zm-45.911-30.215-17.913 66.946 13.907 3.721 17.913-66.946z" fill="#293d7c"/><path clip-rule="evenodd" d="m110.653 159.306c1.574 0 3.118.058 4.634.146-31.619 2.39-56.507 28.763-56.507 60.995s24.887 58.605 56.507 60.995c-1.515.087-3.06.146-4.634.146-33.747 0-61.14-27.365-61.14-61.14s27.393-61.142 61.14-61.142z" fill="#cfcfff" fill-rule="evenodd"/></g></svg>