<svg id="Layer_1" enable-background="new 0 0 512 512" height="512" viewBox="0 0 512 512" width="512" xmlns="http://www.w3.org/2000/svg" xmlns:xlink="http://www.w3.org/1999/xlink"><linearGradient id="SVGID_1_" gradientUnits="userSpaceOnUse" x1="413.902" x2="93.19" y1="490.449" y2="32.424"><stop offset=".1006" stop-color="#57ffd9"/><stop offset="1" stop-color="#2a64ff"/></linearGradient><path clip-rule="evenodd" d="m9 402.914v9.441c0 16.635 13.611 30.245 30.245 30.245h433.511c16.634 0 30.244-13.611 30.244-30.245v-9.441c-57.193 0-114.387 0-171.58 0v9.214h-150.84v-9.214c-57.193 0-114.386 0-171.58 0zm331.091-191.612c-2.226-11.161-6.615-21.541-12.716-30.682l11.966-11.966-23.837-23.837-11.966 11.966c-9.142-6.1-19.521-10.492-30.682-12.717v-16.915h-33.711v16.915c-11.161 2.226-21.541 6.615-30.682 12.716l-11.966-11.966-23.837 23.837 11.966 11.966c-6.101 9.142-10.492 19.521-12.717 30.682h-16.914v33.711h16.914c2.226 11.161 6.615 21.542 12.717 30.683l-11.965 11.965 23.837 23.837 11.965-11.965c9.142 6.101 19.521 10.492 30.683 12.717v16.913h33.711v-16.912c11.161-2.226 21.541-6.615 30.682-12.717l11.965 11.965 23.837-23.837-11.966-11.966c6.1-9.142 10.491-19.521 12.717-30.682h16.915v-33.711zm-84.091 75.855c-10.84 0-20.996-2.926-29.724-8.027l18.204-18.203c27.034 9.626 53.634-15.765 45.365-43.193l-21.7 21.7-19.714-3.707-3.707-19.714 21.7-21.7c-27.428-8.269-52.819 18.331-43.193 45.365l-18.203 18.204c-5.101-8.729-8.027-18.884-8.027-29.724 0-32.585 26.415-59 59-59s59 26.415 59 59-26.417 58.999-59.001 58.999zm209.008-217.757h-418.016c-11.586 0-21.036 9.45-21.036 21.036v296.477h460.087v-296.476c0-11.586-9.449-21.037-21.035-21.037zm-8.904 287.575c-133.403 0-266.806 0-400.209 0v-257.636h400.209z" fill="url(#SVGID_1_)" fill-rule="evenodd"/></svg>